M48
; DRILL file {KiCad 5.1.5+dfsg1-2+b1} date Thu 24 Sep 2020 09:47:27 AM CDT
; FORMAT={-:-/ absolute / inch / decimal}
; #@! TF.CreationDate,2020-09-24T09:47:27-05:00
; #@! TF.GenerationSoftware,Kicad,Pcbnew,5.1.5+dfsg1-2+b1
; #@! TF.FileFunction,Plated,1,2,PTH
FMAT,2
INCH
T1C0.0157
T2C0.0276
T3C0.0315
T4C0.0315
T5C0.0394
T6C0.0394
T7C0.0433
T8C0.0500
T9C0.0591
T10C0.1051
%
G90
G05
T1
X3.5Y-1.15
X3.5Y-3.65
T2
X2.6Y-4.7015
X2.6Y-4.8
X2.6Y-4.8983
X2.6Y-2.2015
X2.6Y-2.3
X2.6Y-2.3983
T3
X4.05Y-1.95
X4.05Y-2.05
X4.05Y-2.15
X4.05Y-2.25
X4.35Y-1.95
X4.35Y-2.05
X4.35Y-2.15
X4.35Y-2.25
X3.1Y-2.3
X1.6Y-1.0
X1.6Y-1.6
X1.7Y-1.0
X1.7Y-1.6
X2.3Y-1.0
X2.3Y-1.6
X2.5Y-1.0
X2.5Y-1.6
X3.1Y-4.8
X4.35Y-3.55
X2.95Y-4.0
X2.95Y-4.0984
X2.95Y-1.5
X2.95Y-1.5984
X8.9Y-1.9
X9.4906Y-1.9
X8.9Y-4.1
X9.4906Y-4.1
X2.2016Y-4.9
X2.3Y-4.9
X1.3Y-2.0
X1.3984Y-2.0
X1.3Y-2.4
X1.3984Y-2.4
X4.25Y-4.9516
X4.05Y-1.5
X4.05Y-1.6
X4.05Y-1.7
X4.05Y-1.8
X4.35Y-1.5
X4.35Y-1.6
X4.35Y-1.7
X4.35Y-1.8
X1.3Y-4.5
X1.3984Y-4.5
X4.15Y-3.55
X2.2016Y-2.4
X2.3Y-2.4
X4.05Y-4.45
X4.05Y-4.55
X4.05Y-4.65
X4.05Y-4.75
X4.35Y-4.45
X4.35Y-4.55
X4.35Y-4.65
X4.35Y-4.75
X3.85Y-4.95
X4.25Y-2.4516
X1.7Y-2.4
X1.7984Y-2.4
X1.7Y-4.9
X1.7984Y-4.9
X2.85Y-1.2516
X4.45Y-2.45
X4.05Y-4.95
X3.35Y-4.0
X3.35Y-4.1
X3.35Y-4.2
X3.35Y-4.3
X3.65Y-4.0
X3.65Y-4.1
X3.65Y-4.2
X3.65Y-4.3
X9.0Y-2.9
X9.0Y-3.0
X9.0Y-3.1
X1.6Y-3.5
X1.6Y-4.1
X1.7Y-3.5
X1.7Y-4.1
X2.3Y-3.5
X2.3Y-4.1
X2.5Y-3.5
X2.5Y-4.1
X4.45Y-4.9516
X4.15Y-1.2
X3.95Y-3.55
X3.65Y-3.8
X3.85Y-2.45
X2.95Y-1.0
X2.95Y-1.0984
X2.6Y-4.4
X2.85Y-3.75
X2.6Y-1.9016
X3.35Y-1.5
X3.35Y-1.6
X3.35Y-1.7
X3.35Y-1.8
X3.65Y-1.5
X3.65Y-1.6
X3.65Y-1.7
X3.65Y-1.8
X4.55Y-3.5516
X3.95Y-1.2
X3.65Y-1.2984
X1.3Y-4.9
X1.3984Y-4.9
X4.35Y-1.2
X4.05Y-4.0
X4.05Y-4.1
X4.05Y-4.2
X4.05Y-4.3
X4.35Y-4.0
X4.35Y-4.1
X4.35Y-4.2
X4.35Y-4.3
X4.55Y-1.2
X2.95Y-3.5
X2.95Y-3.5984
X4.05Y-2.45
T4
X4.15Y-3.6484
X3.85Y-5.0484
X4.25Y-2.55
X2.85Y-1.35
X4.45Y-2.5484
X4.05Y-5.0484
X4.45Y-5.05
X4.15Y-1.2984
X3.95Y-3.6484
X3.65Y-3.7016
X3.85Y-2.5484
X2.6984Y-4.4
X2.85Y-3.8484
X2.6984Y-1.9016
X4.55Y-3.65
X3.95Y-1.2984
X3.65Y-1.2
X4.35Y-1.2984
X4.55Y-1.2984
X4.05Y-2.5484
X3.1Y-2.3984
X3.1Y-4.8984
X4.35Y-3.6484
X4.25Y-5.05
T5
X3.55Y-0.9
X3.65Y-0.9
X9.75Y-3.45
X9.75Y-3.55
X9.75Y-2.95
X9.75Y-3.05
X9.75Y-2.45
X9.75Y-2.55
X1.0Y-2.95
X1.0Y-3.05
X3.55Y-3.4
X3.65Y-3.4
T6
X1.7Y-4.4
X1.8004Y-4.4
X2.0996Y-4.4
X2.2Y-4.4
X2.3Y-4.4
X5.6594Y-4.2
X6.25Y-4.2
X3.35Y-4.5
X3.65Y-4.5
X6.65Y-4.15
X6.65Y-4.25
X6.65Y-4.35
X5.65Y-1.7
X6.2406Y-1.7
X6.65Y-1.65
X6.65Y-1.75
X6.65Y-1.85
X5.85Y-4.4
X8.0Y-2.9
X8.0Y-3.1
X3.35Y-0.9
X3.35Y-1.2
X3.35Y-2.0
X3.65Y-2.0
X8.0Y-4.45
X8.0Y-4.65
X6.25Y-1.9001
X8.0Y-1.35
X8.0Y-1.55
X1.6996Y-1.9
X1.8Y-1.9
X2.0992Y-1.9
X2.1996Y-1.9
X2.2996Y-1.9
X3.35Y-3.4
X3.35Y-3.7
T7
X5.25Y-1.25
X5.35Y-1.25
X5.45Y-1.25
X5.25Y-3.75
X5.35Y-3.75
X5.45Y-3.75
X5.25Y-2.3
X5.35Y-2.3
X5.45Y-2.3
X5.25Y-4.8
X5.35Y-4.8
X5.45Y-4.8
T8
X6.25Y-4.4
X5.85Y-1.9001
T9
X4.9996Y-3.7
X5.7004Y-3.7
X4.9996Y-4.75
X5.7004Y-4.75
X4.9996Y-2.25
X5.7004Y-2.25
X7.95Y-1.0996
X7.95Y-1.8004
X7.95Y-2.6496
X7.95Y-3.3504
X4.9996Y-1.2
X5.7004Y-1.2
X7.95Y-4.1996
X7.95Y-4.9004
T10
X6.75Y-1.2579
X6.75Y-2.2421
X6.75Y-3.7579
X6.75Y-4.7421
T0
M30
