%TF.GenerationSoftware,KiCad,Pcbnew,5.1.5+dfsg1-2+b1*%
%TF.CreationDate,2020-09-24T09:47:26-05:00*%
%TF.ProjectId,HV-pulse-generator,48562d70-756c-4736-952d-67656e657261,2.0.0*%
%TF.SameCoordinates,Original*%
%TF.FileFunction,Legend,Top*%
%TF.FilePolarity,Positive*%
%FSLAX46Y46*%
G04 Gerber Fmt 4.6, Leading zero omitted, Abs format (unit mm)*
G04 Created by KiCad (PCBNEW 5.1.5+dfsg1-2+b1) date 2020-09-24 09:47:26*
%MOMM*%
%LPD*%
G04 APERTURE LIST*
%ADD10C,0.150000*%
%ADD11C,0.635000*%
%ADD12C,0.762000*%
%TA.AperFunction,Profile*%
%ADD13C,0.150000*%
%TD*%
%ADD14C,0.120000*%
%ADD15C,0.304800*%
%ADD16C,0.381000*%
%ADD17C,0.203200*%
%ADD18C,0.124460*%
G04 APERTURE END LIST*
D10*
X256992380Y-87598095D02*
X255992380Y-87598095D01*
X256992380Y-87026666D01*
X255992380Y-87026666D01*
X256468571Y-86550476D02*
X256468571Y-86217142D01*
X256992380Y-86074285D02*
X256992380Y-86550476D01*
X255992380Y-86550476D01*
X255992380Y-86074285D01*
X256040000Y-85121904D02*
X255992380Y-85217142D01*
X255992380Y-85360000D01*
X256040000Y-85502857D01*
X256135238Y-85598095D01*
X256230476Y-85645714D01*
X256420952Y-85693333D01*
X256563809Y-85693333D01*
X256754285Y-85645714D01*
X256849523Y-85598095D01*
X256944761Y-85502857D01*
X256992380Y-85360000D01*
X256992380Y-85264761D01*
X256944761Y-85121904D01*
X256897142Y-85074285D01*
X256563809Y-85074285D01*
X256563809Y-85264761D01*
X256040000Y-92201904D02*
X255992380Y-92297142D01*
X255992380Y-92440000D01*
X256040000Y-92582857D01*
X256135238Y-92678095D01*
X256230476Y-92725714D01*
X256420952Y-92773333D01*
X256563809Y-92773333D01*
X256754285Y-92725714D01*
X256849523Y-92678095D01*
X256944761Y-92582857D01*
X256992380Y-92440000D01*
X256992380Y-92344761D01*
X256944761Y-92201904D01*
X256897142Y-92154285D01*
X256563809Y-92154285D01*
X256563809Y-92344761D01*
X256992380Y-91725714D02*
X255992380Y-91725714D01*
X256992380Y-91154285D01*
X255992380Y-91154285D01*
X256992380Y-90678095D02*
X255992380Y-90678095D01*
X255992380Y-90440000D01*
X256040000Y-90297142D01*
X256135238Y-90201904D01*
X256230476Y-90154285D01*
X256420952Y-90106666D01*
X256563809Y-90106666D01*
X256754285Y-90154285D01*
X256849523Y-90201904D01*
X256944761Y-90297142D01*
X256992380Y-90440000D01*
X256992380Y-90678095D01*
X256992380Y-62221904D02*
X255992380Y-62221904D01*
X255992380Y-61840952D01*
X256040000Y-61745714D01*
X256087619Y-61698095D01*
X256182857Y-61650476D01*
X256325714Y-61650476D01*
X256420952Y-61698095D01*
X256468571Y-61745714D01*
X256516190Y-61840952D01*
X256516190Y-62221904D01*
X255992380Y-61031428D02*
X255992380Y-60840952D01*
X256040000Y-60745714D01*
X256135238Y-60650476D01*
X256325714Y-60602857D01*
X256659047Y-60602857D01*
X256849523Y-60650476D01*
X256944761Y-60745714D01*
X256992380Y-60840952D01*
X256992380Y-61031428D01*
X256944761Y-61126666D01*
X256849523Y-61221904D01*
X256659047Y-61269523D01*
X256325714Y-61269523D01*
X256135238Y-61221904D01*
X256040000Y-61126666D01*
X255992380Y-61031428D01*
X256944761Y-60221904D02*
X256992380Y-60079047D01*
X256992380Y-59840952D01*
X256944761Y-59745714D01*
X256897142Y-59698095D01*
X256801904Y-59650476D01*
X256706666Y-59650476D01*
X256611428Y-59698095D01*
X256563809Y-59745714D01*
X256516190Y-59840952D01*
X256468571Y-60031428D01*
X256420952Y-60126666D01*
X256373333Y-60174285D01*
X256278095Y-60221904D01*
X256182857Y-60221904D01*
X256087619Y-60174285D01*
X256040000Y-60126666D01*
X255992380Y-60031428D01*
X255992380Y-59793333D01*
X256040000Y-59650476D01*
X256040000Y-66801904D02*
X255992380Y-66897142D01*
X255992380Y-67040000D01*
X256040000Y-67182857D01*
X256135238Y-67278095D01*
X256230476Y-67325714D01*
X256420952Y-67373333D01*
X256563809Y-67373333D01*
X256754285Y-67325714D01*
X256849523Y-67278095D01*
X256944761Y-67182857D01*
X256992380Y-67040000D01*
X256992380Y-66944761D01*
X256944761Y-66801904D01*
X256897142Y-66754285D01*
X256563809Y-66754285D01*
X256563809Y-66944761D01*
X256992380Y-66325714D02*
X255992380Y-66325714D01*
X256992380Y-65754285D01*
X255992380Y-65754285D01*
X256992380Y-65278095D02*
X255992380Y-65278095D01*
X255992380Y-65040000D01*
X256040000Y-64897142D01*
X256135238Y-64801904D01*
X256230476Y-64754285D01*
X256420952Y-64706666D01*
X256563809Y-64706666D01*
X256754285Y-64754285D01*
X256849523Y-64801904D01*
X256944761Y-64897142D01*
X256992380Y-65040000D01*
X256992380Y-65278095D01*
D11*
X217049047Y-89020952D02*
X214509047Y-89020952D01*
X215718571Y-89020952D02*
X215718571Y-87569523D01*
X217049047Y-87569523D02*
X214509047Y-87569523D01*
X217049047Y-86360000D02*
X214509047Y-86360000D01*
X214630000Y-83820000D02*
X214509047Y-84061904D01*
X214509047Y-84424761D01*
X214630000Y-84787619D01*
X214871904Y-85029523D01*
X215113809Y-85150476D01*
X215597619Y-85271428D01*
X215960476Y-85271428D01*
X216444285Y-85150476D01*
X216686190Y-85029523D01*
X216928095Y-84787619D01*
X217049047Y-84424761D01*
X217049047Y-84182857D01*
X216928095Y-83820000D01*
X216807142Y-83699047D01*
X215960476Y-83699047D01*
X215960476Y-84182857D01*
X217049047Y-82610476D02*
X214509047Y-82610476D01*
X215718571Y-82610476D02*
X215718571Y-81159047D01*
X217049047Y-81159047D02*
X214509047Y-81159047D01*
X214509047Y-78377142D02*
X217049047Y-77530476D01*
X214509047Y-76683809D01*
X214509047Y-75353333D02*
X214509047Y-74869523D01*
X214630000Y-74627619D01*
X214871904Y-74385714D01*
X215355714Y-74264761D01*
X216202380Y-74264761D01*
X216686190Y-74385714D01*
X216928095Y-74627619D01*
X217049047Y-74869523D01*
X217049047Y-75353333D01*
X216928095Y-75595238D01*
X216686190Y-75837142D01*
X216202380Y-75958095D01*
X215355714Y-75958095D01*
X214871904Y-75837142D01*
X214630000Y-75595238D01*
X214509047Y-75353333D01*
X217049047Y-71966666D02*
X217049047Y-73176190D01*
X214509047Y-73176190D01*
X214509047Y-71482857D02*
X214509047Y-70031428D01*
X217049047Y-70757142D02*
X214509047Y-70757142D01*
X216323333Y-69305714D02*
X216323333Y-68096190D01*
X217049047Y-69547619D02*
X214509047Y-68700952D01*
X217049047Y-67854285D01*
X214630000Y-65677142D02*
X214509047Y-65919047D01*
X214509047Y-66281904D01*
X214630000Y-66644761D01*
X214871904Y-66886666D01*
X215113809Y-67007619D01*
X215597619Y-67128571D01*
X215960476Y-67128571D01*
X216444285Y-67007619D01*
X216686190Y-66886666D01*
X216928095Y-66644761D01*
X217049047Y-66281904D01*
X217049047Y-66040000D01*
X216928095Y-65677142D01*
X216807142Y-65556190D01*
X215960476Y-65556190D01*
X215960476Y-66040000D01*
X215718571Y-64467619D02*
X215718571Y-63620952D01*
X217049047Y-63258095D02*
X217049047Y-64467619D01*
X214509047Y-64467619D01*
X214509047Y-63258095D01*
D10*
X256040000Y-74421904D02*
X255992380Y-74517142D01*
X255992380Y-74660000D01*
X256040000Y-74802857D01*
X256135238Y-74898095D01*
X256230476Y-74945714D01*
X256420952Y-74993333D01*
X256563809Y-74993333D01*
X256754285Y-74945714D01*
X256849523Y-74898095D01*
X256944761Y-74802857D01*
X256992380Y-74660000D01*
X256992380Y-74564761D01*
X256944761Y-74421904D01*
X256897142Y-74374285D01*
X256563809Y-74374285D01*
X256563809Y-74564761D01*
X256992380Y-73945714D02*
X255992380Y-73945714D01*
X256992380Y-73374285D01*
X255992380Y-73374285D01*
X256992380Y-72898095D02*
X255992380Y-72898095D01*
X255992380Y-72660000D01*
X256040000Y-72517142D01*
X256135238Y-72421904D01*
X256230476Y-72374285D01*
X256420952Y-72326666D01*
X256563809Y-72326666D01*
X256754285Y-72374285D01*
X256849523Y-72421904D01*
X256944761Y-72517142D01*
X256992380Y-72660000D01*
X256992380Y-72898095D01*
X255992380Y-79740000D02*
X255992380Y-79549523D01*
X256040000Y-79454285D01*
X256135238Y-79359047D01*
X256325714Y-79311428D01*
X256659047Y-79311428D01*
X256849523Y-79359047D01*
X256944761Y-79454285D01*
X256992380Y-79549523D01*
X256992380Y-79740000D01*
X256944761Y-79835238D01*
X256849523Y-79930476D01*
X256659047Y-79978095D01*
X256325714Y-79978095D01*
X256135238Y-79930476D01*
X256040000Y-79835238D01*
X255992380Y-79740000D01*
X255992380Y-78882857D02*
X256801904Y-78882857D01*
X256897142Y-78835238D01*
X256944761Y-78787619D01*
X256992380Y-78692380D01*
X256992380Y-78501904D01*
X256944761Y-78406666D01*
X256897142Y-78359047D01*
X256801904Y-78311428D01*
X255992380Y-78311428D01*
X255992380Y-77978095D02*
X255992380Y-77406666D01*
X256992380Y-77692380D02*
X255992380Y-77692380D01*
X94360952Y-89606428D02*
X93599047Y-89606428D01*
X89915952Y-89606428D02*
X89154047Y-89606428D01*
X89535000Y-89987380D02*
X89535000Y-89225476D01*
X94360952Y-26106428D02*
X93599047Y-26106428D01*
X89915952Y-26106428D02*
X89154047Y-26106428D01*
X89535000Y-26487380D02*
X89535000Y-25725476D01*
D11*
X24250952Y-32354761D02*
X26790952Y-32354761D01*
X26790952Y-33322380D01*
X26670000Y-33564285D01*
X26549047Y-33685238D01*
X26307142Y-33806190D01*
X25944285Y-33806190D01*
X25702380Y-33685238D01*
X25581428Y-33564285D01*
X25460476Y-33322380D01*
X25460476Y-32354761D01*
X26790952Y-35378571D02*
X26790952Y-35862380D01*
X26670000Y-36104285D01*
X26428095Y-36346190D01*
X25944285Y-36467142D01*
X25097619Y-36467142D01*
X24613809Y-36346190D01*
X24371904Y-36104285D01*
X24250952Y-35862380D01*
X24250952Y-35378571D01*
X24371904Y-35136666D01*
X24613809Y-34894761D01*
X25097619Y-34773809D01*
X25944285Y-34773809D01*
X26428095Y-34894761D01*
X26670000Y-35136666D01*
X26790952Y-35378571D01*
X24371904Y-37434761D02*
X24250952Y-37797619D01*
X24250952Y-38402380D01*
X24371904Y-38644285D01*
X24492857Y-38765238D01*
X24734761Y-38886190D01*
X24976666Y-38886190D01*
X25218571Y-38765238D01*
X25339523Y-38644285D01*
X25460476Y-38402380D01*
X25581428Y-37918571D01*
X25702380Y-37676666D01*
X25823333Y-37555714D01*
X26065238Y-37434761D01*
X26307142Y-37434761D01*
X26549047Y-37555714D01*
X26670000Y-37676666D01*
X26790952Y-37918571D01*
X26790952Y-38523333D01*
X26670000Y-38886190D01*
X24250952Y-41910000D02*
X26790952Y-41910000D01*
X26790952Y-42514761D01*
X26670000Y-42877619D01*
X26428095Y-43119523D01*
X26186190Y-43240476D01*
X25702380Y-43361428D01*
X25339523Y-43361428D01*
X24855714Y-43240476D01*
X24613809Y-43119523D01*
X24371904Y-42877619D01*
X24250952Y-42514761D01*
X24250952Y-41910000D01*
X24250952Y-45901428D02*
X25460476Y-45054761D01*
X24250952Y-44450000D02*
X26790952Y-44450000D01*
X26790952Y-45417619D01*
X26670000Y-45659523D01*
X26549047Y-45780476D01*
X26307142Y-45901428D01*
X25944285Y-45901428D01*
X25702380Y-45780476D01*
X25581428Y-45659523D01*
X25460476Y-45417619D01*
X25460476Y-44450000D01*
X24250952Y-46990000D02*
X26790952Y-46990000D01*
X26790952Y-47836666D02*
X24250952Y-48683333D01*
X26790952Y-49530000D01*
X25581428Y-50376666D02*
X25581428Y-51223333D01*
X24250952Y-51586190D02*
X24250952Y-50376666D01*
X26790952Y-50376666D01*
X26790952Y-51586190D01*
X24250952Y-54126190D02*
X25460476Y-53279523D01*
X24250952Y-52674761D02*
X26790952Y-52674761D01*
X26790952Y-53642380D01*
X26670000Y-53884285D01*
X26549047Y-54005238D01*
X26307142Y-54126190D01*
X25944285Y-54126190D01*
X25702380Y-54005238D01*
X25581428Y-53884285D01*
X25460476Y-53642380D01*
X25460476Y-52674761D01*
X24250952Y-98455238D02*
X26790952Y-98455238D01*
X24250952Y-99906666D01*
X26790952Y-99906666D01*
X25581428Y-101116190D02*
X25581428Y-101962857D01*
X24250952Y-102325714D02*
X24250952Y-101116190D01*
X26790952Y-101116190D01*
X26790952Y-102325714D01*
X26670000Y-104744761D02*
X26790952Y-104502857D01*
X26790952Y-104140000D01*
X26670000Y-103777142D01*
X26428095Y-103535238D01*
X26186190Y-103414285D01*
X25702380Y-103293333D01*
X25339523Y-103293333D01*
X24855714Y-103414285D01*
X24613809Y-103535238D01*
X24371904Y-103777142D01*
X24250952Y-104140000D01*
X24250952Y-104381904D01*
X24371904Y-104744761D01*
X24492857Y-104865714D01*
X25339523Y-104865714D01*
X25339523Y-104381904D01*
X24250952Y-107889523D02*
X26790952Y-107889523D01*
X26790952Y-108494285D01*
X26670000Y-108857142D01*
X26428095Y-109099047D01*
X26186190Y-109220000D01*
X25702380Y-109340952D01*
X25339523Y-109340952D01*
X24855714Y-109220000D01*
X24613809Y-109099047D01*
X24371904Y-108857142D01*
X24250952Y-108494285D01*
X24250952Y-107889523D01*
X24250952Y-111880952D02*
X25460476Y-111034285D01*
X24250952Y-110429523D02*
X26790952Y-110429523D01*
X26790952Y-111397142D01*
X26670000Y-111639047D01*
X26549047Y-111760000D01*
X26307142Y-111880952D01*
X25944285Y-111880952D01*
X25702380Y-111760000D01*
X25581428Y-111639047D01*
X25460476Y-111397142D01*
X25460476Y-110429523D01*
X24250952Y-112969523D02*
X26790952Y-112969523D01*
X26790952Y-113816190D02*
X24250952Y-114662857D01*
X26790952Y-115509523D01*
X25581428Y-116356190D02*
X25581428Y-117202857D01*
X24250952Y-117565714D02*
X24250952Y-116356190D01*
X26790952Y-116356190D01*
X26790952Y-117565714D01*
X24250952Y-120105714D02*
X25460476Y-119259047D01*
X24250952Y-118654285D02*
X26790952Y-118654285D01*
X26790952Y-119621904D01*
X26670000Y-119863809D01*
X26549047Y-119984761D01*
X26307142Y-120105714D01*
X25944285Y-120105714D01*
X25702380Y-119984761D01*
X25581428Y-119863809D01*
X25460476Y-119621904D01*
X25460476Y-118654285D01*
D10*
X28646428Y-77724047D02*
X28646428Y-78485952D01*
X28955952Y-73731428D02*
X28194047Y-73731428D01*
X28575000Y-74112380D02*
X28575000Y-73350476D01*
X22153571Y-72914285D02*
X22153571Y-73676190D01*
X21772619Y-73295238D02*
X22534523Y-73295238D01*
X22677380Y-74104761D02*
X22725000Y-74152380D01*
X22772619Y-74247619D01*
X22772619Y-74485714D01*
X22725000Y-74580952D01*
X22677380Y-74628571D01*
X22582142Y-74676190D01*
X22486904Y-74676190D01*
X22344047Y-74628571D01*
X21772619Y-74057142D01*
X21772619Y-74676190D01*
X22439285Y-75533333D02*
X21772619Y-75533333D01*
X22820238Y-75295238D02*
X22105952Y-75057142D01*
X22105952Y-75676190D01*
X22772619Y-76676190D02*
X21772619Y-77009523D01*
X22772619Y-77342857D01*
X21772619Y-78438095D02*
X22772619Y-78438095D01*
X21772619Y-78914285D02*
X22772619Y-78914285D01*
X21772619Y-79485714D01*
X22772619Y-79485714D01*
D12*
X190500000Y-95250000D02*
X256540000Y-95250000D01*
X190500000Y-57150000D02*
X256540000Y-57150000D01*
X190500000Y-76200000D02*
X190500000Y-57150000D01*
X190500000Y-95250000D02*
X190500000Y-76200000D01*
X190500000Y-76200000D02*
X30480000Y-76200000D01*
D13*
X254000000Y-20320000D02*
G75*
G02X259080000Y-25400000I0J-5080000D01*
G01*
X20320000Y-25400000D02*
G75*
G02X25400000Y-20320000I5080000J0D01*
G01*
X25400000Y-132080000D02*
G75*
G02X20320000Y-127000000I0J5080000D01*
G01*
X259080000Y-127000000D02*
G75*
G02X254000000Y-132080000I-5080000J0D01*
G01*
X259080000Y-25400000D02*
X259080000Y-127000000D01*
X254000000Y-20320000D02*
X25400000Y-20320000D01*
X20320000Y-127000000D02*
X20320000Y-25400000D01*
X254000000Y-132080000D02*
X25400000Y-132080000D01*
D14*
%TO.C,J4*%
X248980000Y-78800000D02*
X247650000Y-78800000D01*
X248980000Y-77470000D02*
X248980000Y-78800000D01*
X248980000Y-76200000D02*
X246320000Y-76200000D01*
X246320000Y-76200000D02*
X246320000Y-73600000D01*
X248980000Y-76200000D02*
X248980000Y-73600000D01*
X248980000Y-73600000D02*
X246320000Y-73600000D01*
%TO.C,J1.2*%
X248980000Y-91500000D02*
X247650000Y-91500000D01*
X248980000Y-90170000D02*
X248980000Y-91500000D01*
X248980000Y-88900000D02*
X246320000Y-88900000D01*
X246320000Y-88900000D02*
X246320000Y-86300000D01*
X248980000Y-88900000D02*
X248980000Y-86300000D01*
X248980000Y-86300000D02*
X246320000Y-86300000D01*
%TO.C,J1.1*%
X248980000Y-66100000D02*
X247650000Y-66100000D01*
X248980000Y-64770000D02*
X248980000Y-66100000D01*
X248980000Y-63500000D02*
X246320000Y-63500000D01*
X246320000Y-63500000D02*
X246320000Y-60900000D01*
X248980000Y-63500000D02*
X248980000Y-60900000D01*
X248980000Y-60900000D02*
X246320000Y-60900000D01*
D10*
%TO.C,R8*%
X145930000Y-41910000D02*
X145930000Y-44450000D01*
X145930000Y-44450000D02*
X156090000Y-44450000D01*
X156090000Y-44450000D02*
X156090000Y-41910000D01*
X156090000Y-41910000D02*
X145930000Y-41910000D01*
X157240000Y-43180000D02*
X156090000Y-43180000D01*
X144780000Y-43180000D02*
X145930000Y-43180000D01*
%TO.C,R4*%
X156330000Y-107950000D02*
X156330000Y-105410000D01*
X156330000Y-105410000D02*
X146170000Y-105410000D01*
X146170000Y-105410000D02*
X146170000Y-107950000D01*
X146170000Y-107950000D02*
X156330000Y-107950000D01*
X145020000Y-106680000D02*
X146170000Y-106680000D01*
X157480000Y-106680000D02*
X156330000Y-106680000D01*
%TO.C,D2*%
X151130000Y-48262540D02*
X150114000Y-48262540D01*
X155956000Y-48262540D02*
X157226000Y-48262540D01*
X155702000Y-49532540D02*
X155702000Y-46992540D01*
X155448000Y-49532540D02*
X155448000Y-46992540D01*
X155194000Y-49532540D02*
X155194000Y-46992540D01*
X155956000Y-49532540D02*
X155956000Y-46992540D01*
X154940000Y-49532540D02*
X156210000Y-46992540D01*
X156210000Y-49532540D02*
X154940000Y-46992540D01*
X154940000Y-49532540D02*
X154940000Y-46992540D01*
X155575000Y-49532540D02*
X155575000Y-46992540D01*
X156210000Y-46992540D02*
X156210000Y-49532540D01*
X156210000Y-49532540D02*
X151130000Y-49532540D01*
X151130000Y-49532540D02*
X151130000Y-46992540D01*
X151130000Y-46992540D02*
X156210000Y-46992540D01*
%TO.C,D1*%
X156210000Y-111760000D02*
X157226000Y-111760000D01*
X151384000Y-111760000D02*
X150114000Y-111760000D01*
X151638000Y-110490000D02*
X151638000Y-113030000D01*
X151892000Y-110490000D02*
X151892000Y-113030000D01*
X152146000Y-110490000D02*
X152146000Y-113030000D01*
X151384000Y-110490000D02*
X151384000Y-113030000D01*
X152400000Y-110490000D02*
X151130000Y-113030000D01*
X151130000Y-110490000D02*
X152400000Y-113030000D01*
X152400000Y-110490000D02*
X152400000Y-113030000D01*
X151765000Y-110490000D02*
X151765000Y-113030000D01*
X151130000Y-113030000D02*
X151130000Y-110490000D01*
X151130000Y-110490000D02*
X156210000Y-110490000D01*
X156210000Y-110490000D02*
X156210000Y-113030000D01*
X156210000Y-113030000D02*
X151130000Y-113030000D01*
%TO.C,REF\002A\002A*%
X196930000Y-92200000D02*
X196930000Y-60200000D01*
X199930000Y-83700000D02*
X199930000Y-68700000D01*
X199930000Y-68700000D02*
X200930000Y-68700000D01*
X199930000Y-83700000D02*
X200930000Y-83700000D01*
X197680000Y-77950000D02*
X198180000Y-77950000D01*
X198680000Y-77950000D02*
X199180000Y-77950000D01*
X197680000Y-74450000D02*
X198180000Y-74450000D01*
X198680000Y-74450000D02*
X199180000Y-74450000D01*
X199680000Y-74450000D02*
X199930000Y-74450000D01*
X199680000Y-77950000D02*
X199930000Y-77950000D01*
X197180000Y-74450000D02*
X196930000Y-74450000D01*
X197180000Y-77950000D02*
X196930000Y-77950000D01*
X210930000Y-92200000D02*
X210930000Y-83700000D01*
X208930000Y-92200000D02*
X210930000Y-92200000D01*
X208930000Y-86700000D02*
X208930000Y-92200000D01*
X206930000Y-86700000D02*
X208930000Y-86700000D01*
X206930000Y-92200000D02*
X206930000Y-86700000D01*
X204930000Y-92200000D02*
X206930000Y-92200000D01*
X204930000Y-86700000D02*
X204930000Y-92200000D01*
X202930000Y-86700000D02*
X204930000Y-86700000D01*
X202930000Y-92200000D02*
X202930000Y-86700000D01*
X200930000Y-92200000D02*
X202930000Y-92200000D01*
X200930000Y-86700000D02*
X200930000Y-92200000D01*
X198930000Y-86700000D02*
X200930000Y-86700000D01*
X198930000Y-92200000D02*
X198930000Y-86700000D01*
X196930000Y-92200000D02*
X198930000Y-92200000D01*
X210930000Y-60200000D02*
X210930000Y-68700000D01*
X208930000Y-60200000D02*
X210930000Y-60200000D01*
X208930000Y-65700000D02*
X208930000Y-60200000D01*
X206930000Y-65700000D02*
X208930000Y-65700000D01*
X206930000Y-60200000D02*
X206930000Y-65700000D01*
X204930000Y-60200000D02*
X206930000Y-60200000D01*
X204930000Y-65700000D02*
X204930000Y-60200000D01*
X202930000Y-65700000D02*
X204930000Y-65700000D01*
X202930000Y-60200000D02*
X202930000Y-65700000D01*
X200930000Y-60200000D02*
X202930000Y-60200000D01*
X200930000Y-65700000D02*
X200930000Y-60200000D01*
X198930000Y-65700000D02*
X200930000Y-65700000D01*
X198930000Y-60200000D02*
X198930000Y-65700000D01*
X196930000Y-60200000D02*
X198930000Y-60200000D01*
X203430000Y-83700000D02*
X210930000Y-83700000D01*
X210930000Y-68700000D02*
X203430000Y-68700000D01*
D14*
%TO.C,J5*%
X88840000Y-87690000D02*
X88840000Y-86360000D01*
X90170000Y-87690000D02*
X88840000Y-87690000D01*
X91440000Y-87690000D02*
X91440000Y-85030000D01*
X91440000Y-85030000D02*
X94040000Y-85030000D01*
X91440000Y-87690000D02*
X94040000Y-87690000D01*
X94040000Y-87690000D02*
X94040000Y-85030000D01*
%TO.C,J3*%
X24070000Y-73600000D02*
X25400000Y-73600000D01*
X24070000Y-74930000D02*
X24070000Y-73600000D01*
X24070000Y-76200000D02*
X26730000Y-76200000D01*
X26730000Y-76200000D02*
X26730000Y-78800000D01*
X24070000Y-76200000D02*
X24070000Y-78800000D01*
X24070000Y-78800000D02*
X26730000Y-78800000D01*
%TO.C,J2*%
X88840000Y-24190000D02*
X88840000Y-22860000D01*
X90170000Y-24190000D02*
X88840000Y-24190000D01*
X91440000Y-24190000D02*
X91440000Y-21530000D01*
X91440000Y-21530000D02*
X94040000Y-21530000D01*
X91440000Y-24190000D02*
X94040000Y-24190000D01*
X94040000Y-24190000D02*
X94040000Y-21530000D01*
%TO.C,Q6*%
X137741000Y-55150000D02*
X137741000Y-56660000D01*
X134040000Y-55150000D02*
X134040000Y-56660000D01*
X130770000Y-56660000D02*
X141010000Y-56660000D01*
X141010000Y-55150000D02*
X141010000Y-59791000D01*
X130770000Y-55150000D02*
X130770000Y-59791000D01*
X130770000Y-59791000D02*
X141010000Y-59791000D01*
X130770000Y-55150000D02*
X141010000Y-55150000D01*
%TO.C,Q4*%
X137741000Y-28480000D02*
X137741000Y-29990000D01*
X134040000Y-28480000D02*
X134040000Y-29990000D01*
X130770000Y-29990000D02*
X141010000Y-29990000D01*
X141010000Y-28480000D02*
X141010000Y-33121000D01*
X130770000Y-28480000D02*
X130770000Y-33121000D01*
X130770000Y-33121000D02*
X141010000Y-33121000D01*
X130770000Y-28480000D02*
X141010000Y-28480000D01*
%TO.C,Q3*%
X137741000Y-118650000D02*
X137741000Y-120160000D01*
X134040000Y-118650000D02*
X134040000Y-120160000D01*
X130770000Y-120160000D02*
X141010000Y-120160000D01*
X141010000Y-118650000D02*
X141010000Y-123291000D01*
X130770000Y-118650000D02*
X130770000Y-123291000D01*
X130770000Y-123291000D02*
X141010000Y-123291000D01*
X130770000Y-118650000D02*
X141010000Y-118650000D01*
%TO.C,Q1*%
X137741000Y-91980000D02*
X137741000Y-93490000D01*
X134040000Y-91980000D02*
X134040000Y-93490000D01*
X130770000Y-93490000D02*
X141010000Y-93490000D01*
X141010000Y-91980000D02*
X141010000Y-96621000D01*
X130770000Y-91980000D02*
X130770000Y-96621000D01*
X130770000Y-96621000D02*
X141010000Y-96621000D01*
X130770000Y-91980000D02*
X141010000Y-91980000D01*
D10*
%TO.C,P1*%
X40827960Y-110510320D02*
X40827960Y-118008400D01*
X60330100Y-118008400D02*
X60330100Y-110510320D01*
X40827960Y-118008400D02*
X60330100Y-118008400D01*
X54729400Y-110510320D02*
X54477900Y-110510320D01*
X44627800Y-110510320D02*
X44378880Y-110510320D01*
X42029380Y-110510320D02*
X40827960Y-110510320D01*
X43021344Y-116960960D02*
G75*
G03X43021344Y-116960960I-740844J0D01*
G01*
X42704368Y-116960960D02*
G75*
G03X42704368Y-116960960I-423868J0D01*
G01*
X52070000Y-110490000D02*
X46990000Y-110490000D01*
X57269400Y-110510320D02*
X57017900Y-110510320D01*
X59563000Y-110490000D02*
X60325000Y-110490000D01*
D14*
%TO.C,U1*%
X105680000Y-100270000D02*
X104430000Y-100270000D01*
X104430000Y-100270000D02*
X104430000Y-110550000D01*
X104430000Y-110550000D02*
X108930000Y-110550000D01*
X108930000Y-110550000D02*
X108930000Y-100270000D01*
X108930000Y-100270000D02*
X107680000Y-100270000D01*
X107680000Y-100270000D02*
G75*
G02X105680000Y-100270000I-1000000J0D01*
G01*
D10*
%TO.C,P4*%
X37465000Y-43180000D02*
X66675000Y-43180000D01*
X37465000Y-22860000D02*
X66675000Y-22860000D01*
X36195000Y-41910000D02*
X36195000Y-24130000D01*
X67945000Y-41910000D02*
X67945000Y-24130000D01*
X36195000Y-41910000D02*
G75*
G03X37465000Y-43180000I1270000J0D01*
G01*
X37465000Y-22860000D02*
G75*
G03X36195000Y-24130000I0J-1270000D01*
G01*
X66675000Y-43180000D02*
G75*
G03X67945000Y-41910000I0J1270000D01*
G01*
X67945000Y-24130000D02*
G75*
G03X66675000Y-22860000I-1270000J0D01*
G01*
%TO.C,C34*%
X37457500Y-60960000D02*
G75*
G03X37457500Y-60960000I-3187500J0D01*
G01*
X36520000Y-60960000D02*
G75*
G03X36520000Y-60960000I-1000000J0D01*
G01*
X37285000Y-60048000D02*
X37285000Y-61872000D01*
X37145000Y-59673000D02*
X37145000Y-62247000D01*
X37005000Y-59397000D02*
X37005000Y-62523000D01*
X36865000Y-59174000D02*
X36865000Y-62746000D01*
X36725000Y-58986000D02*
X36725000Y-62934000D01*
X36585000Y-58824000D02*
X36585000Y-63096000D01*
X36445000Y-61340000D02*
X36445000Y-63239000D01*
X36445000Y-58681000D02*
X36445000Y-60580000D01*
X36305000Y-61579000D02*
X36305000Y-63364000D01*
X36305000Y-58556000D02*
X36305000Y-60341000D01*
X36165000Y-61724000D02*
X36165000Y-63476000D01*
X36165000Y-58444000D02*
X36165000Y-60196000D01*
X36025000Y-61823000D02*
X36025000Y-63576000D01*
X36025000Y-58344000D02*
X36025000Y-60097000D01*
X35885000Y-61891000D02*
X35885000Y-63664000D01*
X35885000Y-58256000D02*
X35885000Y-60029000D01*
X35745000Y-61934000D02*
X35745000Y-63743000D01*
X35745000Y-58177000D02*
X35745000Y-59986000D01*
X35605000Y-61956000D02*
X35605000Y-63813000D01*
X35605000Y-58107000D02*
X35605000Y-59964000D01*
X35465000Y-61958000D02*
X35465000Y-63875000D01*
X35465000Y-58045000D02*
X35465000Y-59962000D01*
X35325000Y-61941000D02*
X35325000Y-63928000D01*
X35325000Y-57992000D02*
X35325000Y-59979000D01*
X35185000Y-61902000D02*
X35185000Y-63974000D01*
X35185000Y-57946000D02*
X35185000Y-60018000D01*
X35045000Y-61840000D02*
X35045000Y-64013000D01*
X35045000Y-57907000D02*
X35045000Y-60080000D01*
X34905000Y-61749000D02*
X34905000Y-64045000D01*
X34905000Y-57875000D02*
X34905000Y-60171000D01*
X34765000Y-61616000D02*
X34765000Y-64071000D01*
X34765000Y-57849000D02*
X34765000Y-60304000D01*
X34625000Y-61406000D02*
X34625000Y-64090000D01*
X34625000Y-57830000D02*
X34625000Y-60514000D01*
X34485000Y-57817000D02*
X34485000Y-64103000D01*
X34345000Y-57811000D02*
X34345000Y-64109000D01*
D14*
%TO.C,U3*%
X105680000Y-111700000D02*
X104430000Y-111700000D01*
X104430000Y-111700000D02*
X104430000Y-121980000D01*
X104430000Y-121980000D02*
X108930000Y-121980000D01*
X108930000Y-121980000D02*
X108930000Y-111700000D01*
X108930000Y-111700000D02*
X107680000Y-111700000D01*
X107680000Y-111700000D02*
G75*
G02X105680000Y-111700000I-1000000J0D01*
G01*
%TO.C,U6*%
X87900000Y-36770000D02*
X86650000Y-36770000D01*
X86650000Y-36770000D02*
X86650000Y-47050000D01*
X86650000Y-47050000D02*
X91150000Y-47050000D01*
X91150000Y-47050000D02*
X91150000Y-36770000D01*
X91150000Y-36770000D02*
X89900000Y-36770000D01*
X89900000Y-36770000D02*
G75*
G02X87900000Y-36770000I-1000000J0D01*
G01*
D10*
%TO.C,REF\002A\002A*%
X143390000Y-102980000D02*
X143390000Y-95480000D01*
X128390000Y-95480000D02*
X128390000Y-102980000D01*
X151890000Y-88980000D02*
X151890000Y-90980000D01*
X151890000Y-90980000D02*
X146390000Y-90980000D01*
X146390000Y-90980000D02*
X146390000Y-92980000D01*
X146390000Y-92980000D02*
X151890000Y-92980000D01*
X151890000Y-92980000D02*
X151890000Y-94980000D01*
X151890000Y-94980000D02*
X146390000Y-94980000D01*
X146390000Y-94980000D02*
X146390000Y-96980000D01*
X146390000Y-96980000D02*
X151890000Y-96980000D01*
X151890000Y-96980000D02*
X151890000Y-98980000D01*
X151890000Y-98980000D02*
X146390000Y-98980000D01*
X146390000Y-98980000D02*
X146390000Y-100980000D01*
X146390000Y-100980000D02*
X151890000Y-100980000D01*
X151890000Y-100980000D02*
X151890000Y-102980000D01*
X151890000Y-102980000D02*
X143390000Y-102980000D01*
X119890000Y-88980000D02*
X119890000Y-90980000D01*
X119890000Y-90980000D02*
X125390000Y-90980000D01*
X125390000Y-90980000D02*
X125390000Y-92980000D01*
X125390000Y-92980000D02*
X119890000Y-92980000D01*
X119890000Y-92980000D02*
X119890000Y-94980000D01*
X119890000Y-94980000D02*
X125390000Y-94980000D01*
X125390000Y-94980000D02*
X125390000Y-96980000D01*
X125390000Y-96980000D02*
X119890000Y-96980000D01*
X119890000Y-96980000D02*
X119890000Y-98980000D01*
X119890000Y-98980000D02*
X125390000Y-98980000D01*
X125390000Y-98980000D02*
X125390000Y-100980000D01*
X125390000Y-100980000D02*
X119890000Y-100980000D01*
X119890000Y-100980000D02*
X119890000Y-102980000D01*
X119890000Y-102980000D02*
X128390000Y-102980000D01*
X134140000Y-89230000D02*
X134140000Y-88980000D01*
X137640000Y-89230000D02*
X137640000Y-88980000D01*
X134140000Y-91730000D02*
X134140000Y-91980000D01*
X137640000Y-91730000D02*
X137640000Y-91980000D01*
X137640000Y-90730000D02*
X137640000Y-91230000D01*
X137640000Y-89730000D02*
X137640000Y-90230000D01*
X134140000Y-90730000D02*
X134140000Y-91230000D01*
X134140000Y-89730000D02*
X134140000Y-90230000D01*
X128390000Y-91980000D02*
X128390000Y-92980000D01*
X143390000Y-91980000D02*
X143390000Y-92980000D01*
X128390000Y-91980000D02*
X143390000Y-91980000D01*
X119890000Y-88980000D02*
X151890000Y-88980000D01*
D15*
%TO.C,U8*%
X67231260Y-55537100D02*
X67231260Y-61297820D01*
X67232578Y-55535542D02*
G75*
G03X67236340Y-61302900I-1192578J-2884458D01*
G01*
%TO.C,U4*%
X67231260Y-119037100D02*
X67231260Y-124797820D01*
X67232578Y-119035542D02*
G75*
G03X67236340Y-124802900I-1192578J-2884458D01*
G01*
D10*
%TO.C,R9*%
X200152000Y-115570000D02*
X200152000Y-110236000D01*
X200152000Y-115570000D02*
X200152000Y-120904000D01*
X201295000Y-120904000D02*
X200152000Y-120904000D01*
X201295000Y-110236000D02*
X201295000Y-120904000D01*
X200152000Y-110236000D02*
X201295000Y-110236000D01*
X204978000Y-120904000D02*
X201295000Y-120904000D01*
X204978000Y-110236000D02*
X204978000Y-120904000D01*
X201295000Y-110236000D02*
X204978000Y-110236000D01*
X200152000Y-114046000D02*
X201295000Y-114046000D01*
X200152000Y-117094000D02*
X201295000Y-117094000D01*
%TO.C,R7*%
X86360000Y-29210000D02*
X83820000Y-29210000D01*
X86360000Y-24130000D02*
X86360000Y-29210000D01*
X83820000Y-24130000D02*
X86360000Y-24130000D01*
X83820000Y-29210000D02*
X83820000Y-24130000D01*
%TO.C,R6*%
X91440000Y-49530000D02*
X91440000Y-52070000D01*
X86360000Y-49530000D02*
X91440000Y-49530000D01*
X86360000Y-52070000D02*
X86360000Y-49530000D01*
X91440000Y-52070000D02*
X86360000Y-52070000D01*
%TO.C,R5*%
X200152000Y-76200000D02*
X200152000Y-70866000D01*
X200152000Y-76200000D02*
X200152000Y-81534000D01*
X201295000Y-81534000D02*
X200152000Y-81534000D01*
X201295000Y-70866000D02*
X201295000Y-81534000D01*
X200152000Y-70866000D02*
X201295000Y-70866000D01*
X204978000Y-81534000D02*
X201295000Y-81534000D01*
X204978000Y-70866000D02*
X204978000Y-81534000D01*
X201295000Y-70866000D02*
X204978000Y-70866000D01*
X200152000Y-74676000D02*
X201295000Y-74676000D01*
X200152000Y-77724000D02*
X201295000Y-77724000D01*
%TO.C,R3*%
X86360000Y-92710000D02*
X83820000Y-92710000D01*
X86360000Y-87630000D02*
X86360000Y-92710000D01*
X83820000Y-87630000D02*
X86360000Y-87630000D01*
X83820000Y-92710000D02*
X83820000Y-87630000D01*
%TO.C,R2*%
X91440000Y-113030000D02*
X91440000Y-115570000D01*
X86360000Y-113030000D02*
X91440000Y-113030000D01*
X86360000Y-115570000D02*
X86360000Y-113030000D01*
X91440000Y-115570000D02*
X86360000Y-115570000D01*
%TO.C,R1*%
X200152000Y-36830000D02*
X200152000Y-31496000D01*
X200152000Y-36830000D02*
X200152000Y-42164000D01*
X201295000Y-42164000D02*
X200152000Y-42164000D01*
X201295000Y-31496000D02*
X201295000Y-42164000D01*
X200152000Y-31496000D02*
X201295000Y-31496000D01*
X204978000Y-42164000D02*
X201295000Y-42164000D01*
X204978000Y-31496000D02*
X204978000Y-42164000D01*
X201295000Y-31496000D02*
X204978000Y-31496000D01*
X200152000Y-35306000D02*
X201295000Y-35306000D01*
X200152000Y-38354000D02*
X201295000Y-38354000D01*
D16*
%TO.C,Q5*%
X171958000Y-107950000D02*
X171958000Y-113284000D01*
X171958000Y-107950000D02*
X171958000Y-102616000D01*
X170815000Y-102616000D02*
X171958000Y-102616000D01*
X170815000Y-113284000D02*
X170815000Y-102616000D01*
X171958000Y-113284000D02*
X170815000Y-113284000D01*
X167132000Y-102616000D02*
X170815000Y-102616000D01*
X167132000Y-113284000D02*
X167132000Y-102616000D01*
X170815000Y-113284000D02*
X167132000Y-113284000D01*
X171958000Y-109474000D02*
X170815000Y-109474000D01*
X171958000Y-106426000D02*
X170815000Y-106426000D01*
%TO.C,Q2*%
X171958000Y-44450000D02*
X171958000Y-49784000D01*
X171958000Y-44450000D02*
X171958000Y-39116000D01*
X170815000Y-39116000D02*
X171958000Y-39116000D01*
X170815000Y-49784000D02*
X170815000Y-39116000D01*
X171958000Y-49784000D02*
X170815000Y-49784000D01*
X167132000Y-39116000D02*
X170815000Y-39116000D01*
X167132000Y-49784000D02*
X167132000Y-39116000D01*
X170815000Y-49784000D02*
X167132000Y-49784000D01*
X171958000Y-45974000D02*
X170815000Y-45974000D01*
X171958000Y-42926000D02*
X170815000Y-42926000D01*
D10*
%TO.C,P3*%
X40817800Y-47010320D02*
X40817800Y-54508400D01*
X60319940Y-54508400D02*
X60319940Y-47010320D01*
X40817800Y-54508400D02*
X60319940Y-54508400D01*
X54719240Y-47010320D02*
X54467740Y-47010320D01*
X44617640Y-47010320D02*
X44368720Y-47010320D01*
X42019220Y-47010320D02*
X40817800Y-47010320D01*
X43011184Y-53460960D02*
G75*
G03X43011184Y-53460960I-740844J0D01*
G01*
X42694208Y-53460960D02*
G75*
G03X42694208Y-53460960I-423868J0D01*
G01*
X52059840Y-46990000D02*
X46979840Y-46990000D01*
X57259240Y-47010320D02*
X57007740Y-47010320D01*
X59552840Y-46990000D02*
X60314840Y-46990000D01*
%TO.C,P2*%
X37465000Y-106680000D02*
X66675000Y-106680000D01*
X37465000Y-86360000D02*
X66675000Y-86360000D01*
X36195000Y-105410000D02*
X36195000Y-87630000D01*
X67945000Y-105410000D02*
X67945000Y-87630000D01*
X36195000Y-105410000D02*
G75*
G03X37465000Y-106680000I1270000J0D01*
G01*
X37465000Y-86360000D02*
G75*
G03X36195000Y-87630000I0J-1270000D01*
G01*
X66675000Y-106680000D02*
G75*
G03X67945000Y-105410000I0J1270000D01*
G01*
X67945000Y-87630000D02*
G75*
G03X66675000Y-86360000I-1270000J0D01*
G01*
%TO.C,C38*%
X37457500Y-50800000D02*
G75*
G03X37457500Y-50800000I-3187500J0D01*
G01*
X36520000Y-50800000D02*
G75*
G03X36520000Y-50800000I-1000000J0D01*
G01*
X37285000Y-49888000D02*
X37285000Y-51712000D01*
X37145000Y-49513000D02*
X37145000Y-52087000D01*
X37005000Y-49237000D02*
X37005000Y-52363000D01*
X36865000Y-49014000D02*
X36865000Y-52586000D01*
X36725000Y-48826000D02*
X36725000Y-52774000D01*
X36585000Y-48664000D02*
X36585000Y-52936000D01*
X36445000Y-51180000D02*
X36445000Y-53079000D01*
X36445000Y-48521000D02*
X36445000Y-50420000D01*
X36305000Y-51419000D02*
X36305000Y-53204000D01*
X36305000Y-48396000D02*
X36305000Y-50181000D01*
X36165000Y-51564000D02*
X36165000Y-53316000D01*
X36165000Y-48284000D02*
X36165000Y-50036000D01*
X36025000Y-51663000D02*
X36025000Y-53416000D01*
X36025000Y-48184000D02*
X36025000Y-49937000D01*
X35885000Y-51731000D02*
X35885000Y-53504000D01*
X35885000Y-48096000D02*
X35885000Y-49869000D01*
X35745000Y-51774000D02*
X35745000Y-53583000D01*
X35745000Y-48017000D02*
X35745000Y-49826000D01*
X35605000Y-51796000D02*
X35605000Y-53653000D01*
X35605000Y-47947000D02*
X35605000Y-49804000D01*
X35465000Y-51798000D02*
X35465000Y-53715000D01*
X35465000Y-47885000D02*
X35465000Y-49802000D01*
X35325000Y-51781000D02*
X35325000Y-53768000D01*
X35325000Y-47832000D02*
X35325000Y-49819000D01*
X35185000Y-51742000D02*
X35185000Y-53814000D01*
X35185000Y-47786000D02*
X35185000Y-49858000D01*
X35045000Y-51680000D02*
X35045000Y-53853000D01*
X35045000Y-47747000D02*
X35045000Y-49920000D01*
X34905000Y-51589000D02*
X34905000Y-53885000D01*
X34905000Y-47715000D02*
X34905000Y-50011000D01*
X34765000Y-51456000D02*
X34765000Y-53911000D01*
X34765000Y-47689000D02*
X34765000Y-50144000D01*
X34625000Y-51246000D02*
X34625000Y-53930000D01*
X34625000Y-47670000D02*
X34625000Y-50354000D01*
X34485000Y-47657000D02*
X34485000Y-53943000D01*
X34345000Y-47651000D02*
X34345000Y-53949000D01*
%TO.C,C37*%
X77490000Y-61170000D02*
X77490000Y-58170000D01*
X79990000Y-58170000D02*
X79990000Y-61170000D01*
%TO.C,C30*%
X78117500Y-39350000D02*
G75*
G03X78117500Y-39350000I-3187500J0D01*
G01*
X75930000Y-40600000D02*
G75*
G03X75930000Y-40600000I-1000000J0D01*
G01*
X75842000Y-42365000D02*
X74018000Y-42365000D01*
X76217000Y-42225000D02*
X73643000Y-42225000D01*
X76493000Y-42085000D02*
X73367000Y-42085000D01*
X76716000Y-41945000D02*
X73144000Y-41945000D01*
X76904000Y-41805000D02*
X72956000Y-41805000D01*
X77066000Y-41665000D02*
X72794000Y-41665000D01*
X74550000Y-41525000D02*
X72651000Y-41525000D01*
X77209000Y-41525000D02*
X75310000Y-41525000D01*
X74311000Y-41385000D02*
X72526000Y-41385000D01*
X77334000Y-41385000D02*
X75549000Y-41385000D01*
X74166000Y-41245000D02*
X72414000Y-41245000D01*
X77446000Y-41245000D02*
X75694000Y-41245000D01*
X74067000Y-41105000D02*
X72314000Y-41105000D01*
X77546000Y-41105000D02*
X75793000Y-41105000D01*
X73999000Y-40965000D02*
X72226000Y-40965000D01*
X77634000Y-40965000D02*
X75861000Y-40965000D01*
X73956000Y-40825000D02*
X72147000Y-40825000D01*
X77713000Y-40825000D02*
X75904000Y-40825000D01*
X73934000Y-40685000D02*
X72077000Y-40685000D01*
X77783000Y-40685000D02*
X75926000Y-40685000D01*
X73932000Y-40545000D02*
X72015000Y-40545000D01*
X77845000Y-40545000D02*
X75928000Y-40545000D01*
X73949000Y-40405000D02*
X71962000Y-40405000D01*
X77898000Y-40405000D02*
X75911000Y-40405000D01*
X73988000Y-40265000D02*
X71916000Y-40265000D01*
X77944000Y-40265000D02*
X75872000Y-40265000D01*
X74050000Y-40125000D02*
X71877000Y-40125000D01*
X77983000Y-40125000D02*
X75810000Y-40125000D01*
X74141000Y-39985000D02*
X71845000Y-39985000D01*
X78015000Y-39985000D02*
X75719000Y-39985000D01*
X74274000Y-39845000D02*
X71819000Y-39845000D01*
X78041000Y-39845000D02*
X75586000Y-39845000D01*
X74484000Y-39705000D02*
X71800000Y-39705000D01*
X78060000Y-39705000D02*
X75376000Y-39705000D01*
X78073000Y-39565000D02*
X71787000Y-39565000D01*
X78079000Y-39425000D02*
X71781000Y-39425000D01*
%TO.C,C27*%
X47617500Y-60960000D02*
G75*
G03X47617500Y-60960000I-3187500J0D01*
G01*
X46680000Y-60960000D02*
G75*
G03X46680000Y-60960000I-1000000J0D01*
G01*
X47445000Y-60048000D02*
X47445000Y-61872000D01*
X47305000Y-59673000D02*
X47305000Y-62247000D01*
X47165000Y-59397000D02*
X47165000Y-62523000D01*
X47025000Y-59174000D02*
X47025000Y-62746000D01*
X46885000Y-58986000D02*
X46885000Y-62934000D01*
X46745000Y-58824000D02*
X46745000Y-63096000D01*
X46605000Y-61340000D02*
X46605000Y-63239000D01*
X46605000Y-58681000D02*
X46605000Y-60580000D01*
X46465000Y-61579000D02*
X46465000Y-63364000D01*
X46465000Y-58556000D02*
X46465000Y-60341000D01*
X46325000Y-61724000D02*
X46325000Y-63476000D01*
X46325000Y-58444000D02*
X46325000Y-60196000D01*
X46185000Y-61823000D02*
X46185000Y-63576000D01*
X46185000Y-58344000D02*
X46185000Y-60097000D01*
X46045000Y-61891000D02*
X46045000Y-63664000D01*
X46045000Y-58256000D02*
X46045000Y-60029000D01*
X45905000Y-61934000D02*
X45905000Y-63743000D01*
X45905000Y-58177000D02*
X45905000Y-59986000D01*
X45765000Y-61956000D02*
X45765000Y-63813000D01*
X45765000Y-58107000D02*
X45765000Y-59964000D01*
X45625000Y-61958000D02*
X45625000Y-63875000D01*
X45625000Y-58045000D02*
X45625000Y-59962000D01*
X45485000Y-61941000D02*
X45485000Y-63928000D01*
X45485000Y-57992000D02*
X45485000Y-59979000D01*
X45345000Y-61902000D02*
X45345000Y-63974000D01*
X45345000Y-57946000D02*
X45345000Y-60018000D01*
X45205000Y-61840000D02*
X45205000Y-64013000D01*
X45205000Y-57907000D02*
X45205000Y-60080000D01*
X45065000Y-61749000D02*
X45065000Y-64045000D01*
X45065000Y-57875000D02*
X45065000Y-60171000D01*
X44925000Y-61616000D02*
X44925000Y-64071000D01*
X44925000Y-57849000D02*
X44925000Y-60304000D01*
X44785000Y-61406000D02*
X44785000Y-64090000D01*
X44785000Y-57830000D02*
X44785000Y-60514000D01*
X44645000Y-57817000D02*
X44645000Y-64103000D01*
X44505000Y-57811000D02*
X44505000Y-64109000D01*
%TO.C,C26*%
X60357500Y-60960000D02*
G75*
G03X60357500Y-60960000I-3187500J0D01*
G01*
X56920000Y-60960000D02*
G75*
G03X56920000Y-60960000I-1000000J0D01*
G01*
X54155000Y-61872000D02*
X54155000Y-60048000D01*
X54295000Y-62247000D02*
X54295000Y-59673000D01*
X54435000Y-62523000D02*
X54435000Y-59397000D01*
X54575000Y-62746000D02*
X54575000Y-59174000D01*
X54715000Y-62934000D02*
X54715000Y-58986000D01*
X54855000Y-63096000D02*
X54855000Y-58824000D01*
X54995000Y-60580000D02*
X54995000Y-58681000D01*
X54995000Y-63239000D02*
X54995000Y-61340000D01*
X55135000Y-60341000D02*
X55135000Y-58556000D01*
X55135000Y-63364000D02*
X55135000Y-61579000D01*
X55275000Y-60196000D02*
X55275000Y-58444000D01*
X55275000Y-63476000D02*
X55275000Y-61724000D01*
X55415000Y-60097000D02*
X55415000Y-58344000D01*
X55415000Y-63576000D02*
X55415000Y-61823000D01*
X55555000Y-60029000D02*
X55555000Y-58256000D01*
X55555000Y-63664000D02*
X55555000Y-61891000D01*
X55695000Y-59986000D02*
X55695000Y-58177000D01*
X55695000Y-63743000D02*
X55695000Y-61934000D01*
X55835000Y-59964000D02*
X55835000Y-58107000D01*
X55835000Y-63813000D02*
X55835000Y-61956000D01*
X55975000Y-59962000D02*
X55975000Y-58045000D01*
X55975000Y-63875000D02*
X55975000Y-61958000D01*
X56115000Y-59979000D02*
X56115000Y-57992000D01*
X56115000Y-63928000D02*
X56115000Y-61941000D01*
X56255000Y-60018000D02*
X56255000Y-57946000D01*
X56255000Y-63974000D02*
X56255000Y-61902000D01*
X56395000Y-60080000D02*
X56395000Y-57907000D01*
X56395000Y-64013000D02*
X56395000Y-61840000D01*
X56535000Y-60171000D02*
X56535000Y-57875000D01*
X56535000Y-64045000D02*
X56535000Y-61749000D01*
X56675000Y-60304000D02*
X56675000Y-57849000D01*
X56675000Y-64071000D02*
X56675000Y-61616000D01*
X56815000Y-60514000D02*
X56815000Y-57830000D01*
X56815000Y-64090000D02*
X56815000Y-61406000D01*
X56955000Y-64103000D02*
X56955000Y-57817000D01*
X57095000Y-64109000D02*
X57095000Y-57811000D01*
%TO.C,C22*%
X78117500Y-26650000D02*
G75*
G03X78117500Y-26650000I-3187500J0D01*
G01*
X75930000Y-27900000D02*
G75*
G03X75930000Y-27900000I-1000000J0D01*
G01*
X75842000Y-29665000D02*
X74018000Y-29665000D01*
X76217000Y-29525000D02*
X73643000Y-29525000D01*
X76493000Y-29385000D02*
X73367000Y-29385000D01*
X76716000Y-29245000D02*
X73144000Y-29245000D01*
X76904000Y-29105000D02*
X72956000Y-29105000D01*
X77066000Y-28965000D02*
X72794000Y-28965000D01*
X74550000Y-28825000D02*
X72651000Y-28825000D01*
X77209000Y-28825000D02*
X75310000Y-28825000D01*
X74311000Y-28685000D02*
X72526000Y-28685000D01*
X77334000Y-28685000D02*
X75549000Y-28685000D01*
X74166000Y-28545000D02*
X72414000Y-28545000D01*
X77446000Y-28545000D02*
X75694000Y-28545000D01*
X74067000Y-28405000D02*
X72314000Y-28405000D01*
X77546000Y-28405000D02*
X75793000Y-28405000D01*
X73999000Y-28265000D02*
X72226000Y-28265000D01*
X77634000Y-28265000D02*
X75861000Y-28265000D01*
X73956000Y-28125000D02*
X72147000Y-28125000D01*
X77713000Y-28125000D02*
X75904000Y-28125000D01*
X73934000Y-27985000D02*
X72077000Y-27985000D01*
X77783000Y-27985000D02*
X75926000Y-27985000D01*
X73932000Y-27845000D02*
X72015000Y-27845000D01*
X77845000Y-27845000D02*
X75928000Y-27845000D01*
X73949000Y-27705000D02*
X71962000Y-27705000D01*
X77898000Y-27705000D02*
X75911000Y-27705000D01*
X73988000Y-27565000D02*
X71916000Y-27565000D01*
X77944000Y-27565000D02*
X75872000Y-27565000D01*
X74050000Y-27425000D02*
X71877000Y-27425000D01*
X77983000Y-27425000D02*
X75810000Y-27425000D01*
X74141000Y-27285000D02*
X71845000Y-27285000D01*
X78015000Y-27285000D02*
X75719000Y-27285000D01*
X74274000Y-27145000D02*
X71819000Y-27145000D01*
X78041000Y-27145000D02*
X75586000Y-27145000D01*
X74484000Y-27005000D02*
X71800000Y-27005000D01*
X78060000Y-27005000D02*
X75376000Y-27005000D01*
X78073000Y-26865000D02*
X71787000Y-26865000D01*
X78079000Y-26725000D02*
X71781000Y-26725000D01*
%TO.C,C19*%
X37457500Y-114300000D02*
G75*
G03X37457500Y-114300000I-3187500J0D01*
G01*
X36520000Y-114300000D02*
G75*
G03X36520000Y-114300000I-1000000J0D01*
G01*
X37285000Y-113388000D02*
X37285000Y-115212000D01*
X37145000Y-113013000D02*
X37145000Y-115587000D01*
X37005000Y-112737000D02*
X37005000Y-115863000D01*
X36865000Y-112514000D02*
X36865000Y-116086000D01*
X36725000Y-112326000D02*
X36725000Y-116274000D01*
X36585000Y-112164000D02*
X36585000Y-116436000D01*
X36445000Y-114680000D02*
X36445000Y-116579000D01*
X36445000Y-112021000D02*
X36445000Y-113920000D01*
X36305000Y-114919000D02*
X36305000Y-116704000D01*
X36305000Y-111896000D02*
X36305000Y-113681000D01*
X36165000Y-115064000D02*
X36165000Y-116816000D01*
X36165000Y-111784000D02*
X36165000Y-113536000D01*
X36025000Y-115163000D02*
X36025000Y-116916000D01*
X36025000Y-111684000D02*
X36025000Y-113437000D01*
X35885000Y-115231000D02*
X35885000Y-117004000D01*
X35885000Y-111596000D02*
X35885000Y-113369000D01*
X35745000Y-115274000D02*
X35745000Y-117083000D01*
X35745000Y-111517000D02*
X35745000Y-113326000D01*
X35605000Y-115296000D02*
X35605000Y-117153000D01*
X35605000Y-111447000D02*
X35605000Y-113304000D01*
X35465000Y-115298000D02*
X35465000Y-117215000D01*
X35465000Y-111385000D02*
X35465000Y-113302000D01*
X35325000Y-115281000D02*
X35325000Y-117268000D01*
X35325000Y-111332000D02*
X35325000Y-113319000D01*
X35185000Y-115242000D02*
X35185000Y-117314000D01*
X35185000Y-111286000D02*
X35185000Y-113358000D01*
X35045000Y-115180000D02*
X35045000Y-117353000D01*
X35045000Y-111247000D02*
X35045000Y-113420000D01*
X34905000Y-115089000D02*
X34905000Y-117385000D01*
X34905000Y-111215000D02*
X34905000Y-113511000D01*
X34765000Y-114956000D02*
X34765000Y-117411000D01*
X34765000Y-111189000D02*
X34765000Y-113644000D01*
X34625000Y-114746000D02*
X34625000Y-117430000D01*
X34625000Y-111170000D02*
X34625000Y-113854000D01*
X34485000Y-111157000D02*
X34485000Y-117443000D01*
X34345000Y-111151000D02*
X34345000Y-117449000D01*
%TO.C,C18*%
X77490000Y-124670000D02*
X77490000Y-121670000D01*
X79990000Y-121670000D02*
X79990000Y-124670000D01*
%TO.C,C15*%
X37457500Y-124460000D02*
G75*
G03X37457500Y-124460000I-3187500J0D01*
G01*
X36520000Y-124460000D02*
G75*
G03X36520000Y-124460000I-1000000J0D01*
G01*
X37285000Y-123548000D02*
X37285000Y-125372000D01*
X37145000Y-123173000D02*
X37145000Y-125747000D01*
X37005000Y-122897000D02*
X37005000Y-126023000D01*
X36865000Y-122674000D02*
X36865000Y-126246000D01*
X36725000Y-122486000D02*
X36725000Y-126434000D01*
X36585000Y-122324000D02*
X36585000Y-126596000D01*
X36445000Y-124840000D02*
X36445000Y-126739000D01*
X36445000Y-122181000D02*
X36445000Y-124080000D01*
X36305000Y-125079000D02*
X36305000Y-126864000D01*
X36305000Y-122056000D02*
X36305000Y-123841000D01*
X36165000Y-125224000D02*
X36165000Y-126976000D01*
X36165000Y-121944000D02*
X36165000Y-123696000D01*
X36025000Y-125323000D02*
X36025000Y-127076000D01*
X36025000Y-121844000D02*
X36025000Y-123597000D01*
X35885000Y-125391000D02*
X35885000Y-127164000D01*
X35885000Y-121756000D02*
X35885000Y-123529000D01*
X35745000Y-125434000D02*
X35745000Y-127243000D01*
X35745000Y-121677000D02*
X35745000Y-123486000D01*
X35605000Y-125456000D02*
X35605000Y-127313000D01*
X35605000Y-121607000D02*
X35605000Y-123464000D01*
X35465000Y-125458000D02*
X35465000Y-127375000D01*
X35465000Y-121545000D02*
X35465000Y-123462000D01*
X35325000Y-125441000D02*
X35325000Y-127428000D01*
X35325000Y-121492000D02*
X35325000Y-123479000D01*
X35185000Y-125402000D02*
X35185000Y-127474000D01*
X35185000Y-121446000D02*
X35185000Y-123518000D01*
X35045000Y-125340000D02*
X35045000Y-127513000D01*
X35045000Y-121407000D02*
X35045000Y-123580000D01*
X34905000Y-125249000D02*
X34905000Y-127545000D01*
X34905000Y-121375000D02*
X34905000Y-123671000D01*
X34765000Y-125116000D02*
X34765000Y-127571000D01*
X34765000Y-121349000D02*
X34765000Y-123804000D01*
X34625000Y-124906000D02*
X34625000Y-127590000D01*
X34625000Y-121330000D02*
X34625000Y-124014000D01*
X34485000Y-121317000D02*
X34485000Y-127603000D01*
X34345000Y-121311000D02*
X34345000Y-127609000D01*
%TO.C,C11*%
X78117500Y-102850000D02*
G75*
G03X78117500Y-102850000I-3187500J0D01*
G01*
X75930000Y-104100000D02*
G75*
G03X75930000Y-104100000I-1000000J0D01*
G01*
X75842000Y-105865000D02*
X74018000Y-105865000D01*
X76217000Y-105725000D02*
X73643000Y-105725000D01*
X76493000Y-105585000D02*
X73367000Y-105585000D01*
X76716000Y-105445000D02*
X73144000Y-105445000D01*
X76904000Y-105305000D02*
X72956000Y-105305000D01*
X77066000Y-105165000D02*
X72794000Y-105165000D01*
X74550000Y-105025000D02*
X72651000Y-105025000D01*
X77209000Y-105025000D02*
X75310000Y-105025000D01*
X74311000Y-104885000D02*
X72526000Y-104885000D01*
X77334000Y-104885000D02*
X75549000Y-104885000D01*
X74166000Y-104745000D02*
X72414000Y-104745000D01*
X77446000Y-104745000D02*
X75694000Y-104745000D01*
X74067000Y-104605000D02*
X72314000Y-104605000D01*
X77546000Y-104605000D02*
X75793000Y-104605000D01*
X73999000Y-104465000D02*
X72226000Y-104465000D01*
X77634000Y-104465000D02*
X75861000Y-104465000D01*
X73956000Y-104325000D02*
X72147000Y-104325000D01*
X77713000Y-104325000D02*
X75904000Y-104325000D01*
X73934000Y-104185000D02*
X72077000Y-104185000D01*
X77783000Y-104185000D02*
X75926000Y-104185000D01*
X73932000Y-104045000D02*
X72015000Y-104045000D01*
X77845000Y-104045000D02*
X75928000Y-104045000D01*
X73949000Y-103905000D02*
X71962000Y-103905000D01*
X77898000Y-103905000D02*
X75911000Y-103905000D01*
X73988000Y-103765000D02*
X71916000Y-103765000D01*
X77944000Y-103765000D02*
X75872000Y-103765000D01*
X74050000Y-103625000D02*
X71877000Y-103625000D01*
X77983000Y-103625000D02*
X75810000Y-103625000D01*
X74141000Y-103485000D02*
X71845000Y-103485000D01*
X78015000Y-103485000D02*
X75719000Y-103485000D01*
X74274000Y-103345000D02*
X71819000Y-103345000D01*
X78041000Y-103345000D02*
X75586000Y-103345000D01*
X74484000Y-103205000D02*
X71800000Y-103205000D01*
X78060000Y-103205000D02*
X75376000Y-103205000D01*
X78073000Y-103065000D02*
X71787000Y-103065000D01*
X78079000Y-102925000D02*
X71781000Y-102925000D01*
%TO.C,C9*%
X47617500Y-124460000D02*
G75*
G03X47617500Y-124460000I-3187500J0D01*
G01*
X46680000Y-124460000D02*
G75*
G03X46680000Y-124460000I-1000000J0D01*
G01*
X47445000Y-123548000D02*
X47445000Y-125372000D01*
X47305000Y-123173000D02*
X47305000Y-125747000D01*
X47165000Y-122897000D02*
X47165000Y-126023000D01*
X47025000Y-122674000D02*
X47025000Y-126246000D01*
X46885000Y-122486000D02*
X46885000Y-126434000D01*
X46745000Y-122324000D02*
X46745000Y-126596000D01*
X46605000Y-124840000D02*
X46605000Y-126739000D01*
X46605000Y-122181000D02*
X46605000Y-124080000D01*
X46465000Y-125079000D02*
X46465000Y-126864000D01*
X46465000Y-122056000D02*
X46465000Y-123841000D01*
X46325000Y-125224000D02*
X46325000Y-126976000D01*
X46325000Y-121944000D02*
X46325000Y-123696000D01*
X46185000Y-125323000D02*
X46185000Y-127076000D01*
X46185000Y-121844000D02*
X46185000Y-123597000D01*
X46045000Y-125391000D02*
X46045000Y-127164000D01*
X46045000Y-121756000D02*
X46045000Y-123529000D01*
X45905000Y-125434000D02*
X45905000Y-127243000D01*
X45905000Y-121677000D02*
X45905000Y-123486000D01*
X45765000Y-125456000D02*
X45765000Y-127313000D01*
X45765000Y-121607000D02*
X45765000Y-123464000D01*
X45625000Y-125458000D02*
X45625000Y-127375000D01*
X45625000Y-121545000D02*
X45625000Y-123462000D01*
X45485000Y-125441000D02*
X45485000Y-127428000D01*
X45485000Y-121492000D02*
X45485000Y-123479000D01*
X45345000Y-125402000D02*
X45345000Y-127474000D01*
X45345000Y-121446000D02*
X45345000Y-123518000D01*
X45205000Y-125340000D02*
X45205000Y-127513000D01*
X45205000Y-121407000D02*
X45205000Y-123580000D01*
X45065000Y-125249000D02*
X45065000Y-127545000D01*
X45065000Y-121375000D02*
X45065000Y-123671000D01*
X44925000Y-125116000D02*
X44925000Y-127571000D01*
X44925000Y-121349000D02*
X44925000Y-123804000D01*
X44785000Y-124906000D02*
X44785000Y-127590000D01*
X44785000Y-121330000D02*
X44785000Y-124014000D01*
X44645000Y-121317000D02*
X44645000Y-127603000D01*
X44505000Y-121311000D02*
X44505000Y-127609000D01*
%TO.C,C8*%
X60357500Y-124460000D02*
G75*
G03X60357500Y-124460000I-3187500J0D01*
G01*
X56920000Y-124460000D02*
G75*
G03X56920000Y-124460000I-1000000J0D01*
G01*
X54155000Y-125372000D02*
X54155000Y-123548000D01*
X54295000Y-125747000D02*
X54295000Y-123173000D01*
X54435000Y-126023000D02*
X54435000Y-122897000D01*
X54575000Y-126246000D02*
X54575000Y-122674000D01*
X54715000Y-126434000D02*
X54715000Y-122486000D01*
X54855000Y-126596000D02*
X54855000Y-122324000D01*
X54995000Y-124080000D02*
X54995000Y-122181000D01*
X54995000Y-126739000D02*
X54995000Y-124840000D01*
X55135000Y-123841000D02*
X55135000Y-122056000D01*
X55135000Y-126864000D02*
X55135000Y-125079000D01*
X55275000Y-123696000D02*
X55275000Y-121944000D01*
X55275000Y-126976000D02*
X55275000Y-125224000D01*
X55415000Y-123597000D02*
X55415000Y-121844000D01*
X55415000Y-127076000D02*
X55415000Y-125323000D01*
X55555000Y-123529000D02*
X55555000Y-121756000D01*
X55555000Y-127164000D02*
X55555000Y-125391000D01*
X55695000Y-123486000D02*
X55695000Y-121677000D01*
X55695000Y-127243000D02*
X55695000Y-125434000D01*
X55835000Y-123464000D02*
X55835000Y-121607000D01*
X55835000Y-127313000D02*
X55835000Y-125456000D01*
X55975000Y-123462000D02*
X55975000Y-121545000D01*
X55975000Y-127375000D02*
X55975000Y-125458000D01*
X56115000Y-123479000D02*
X56115000Y-121492000D01*
X56115000Y-127428000D02*
X56115000Y-125441000D01*
X56255000Y-123518000D02*
X56255000Y-121446000D01*
X56255000Y-127474000D02*
X56255000Y-125402000D01*
X56395000Y-123580000D02*
X56395000Y-121407000D01*
X56395000Y-127513000D02*
X56395000Y-125340000D01*
X56535000Y-123671000D02*
X56535000Y-121375000D01*
X56535000Y-127545000D02*
X56535000Y-125249000D01*
X56675000Y-123804000D02*
X56675000Y-121349000D01*
X56675000Y-127571000D02*
X56675000Y-125116000D01*
X56815000Y-124014000D02*
X56815000Y-121330000D01*
X56815000Y-127590000D02*
X56815000Y-124906000D01*
X56955000Y-127603000D02*
X56955000Y-121317000D01*
X57095000Y-127609000D02*
X57095000Y-121311000D01*
%TO.C,C3*%
X78117500Y-90150000D02*
G75*
G03X78117500Y-90150000I-3187500J0D01*
G01*
X75930000Y-91400000D02*
G75*
G03X75930000Y-91400000I-1000000J0D01*
G01*
X75842000Y-93165000D02*
X74018000Y-93165000D01*
X76217000Y-93025000D02*
X73643000Y-93025000D01*
X76493000Y-92885000D02*
X73367000Y-92885000D01*
X76716000Y-92745000D02*
X73144000Y-92745000D01*
X76904000Y-92605000D02*
X72956000Y-92605000D01*
X77066000Y-92465000D02*
X72794000Y-92465000D01*
X74550000Y-92325000D02*
X72651000Y-92325000D01*
X77209000Y-92325000D02*
X75310000Y-92325000D01*
X74311000Y-92185000D02*
X72526000Y-92185000D01*
X77334000Y-92185000D02*
X75549000Y-92185000D01*
X74166000Y-92045000D02*
X72414000Y-92045000D01*
X77446000Y-92045000D02*
X75694000Y-92045000D01*
X74067000Y-91905000D02*
X72314000Y-91905000D01*
X77546000Y-91905000D02*
X75793000Y-91905000D01*
X73999000Y-91765000D02*
X72226000Y-91765000D01*
X77634000Y-91765000D02*
X75861000Y-91765000D01*
X73956000Y-91625000D02*
X72147000Y-91625000D01*
X77713000Y-91625000D02*
X75904000Y-91625000D01*
X73934000Y-91485000D02*
X72077000Y-91485000D01*
X77783000Y-91485000D02*
X75926000Y-91485000D01*
X73932000Y-91345000D02*
X72015000Y-91345000D01*
X77845000Y-91345000D02*
X75928000Y-91345000D01*
X73949000Y-91205000D02*
X71962000Y-91205000D01*
X77898000Y-91205000D02*
X75911000Y-91205000D01*
X73988000Y-91065000D02*
X71916000Y-91065000D01*
X77944000Y-91065000D02*
X75872000Y-91065000D01*
X74050000Y-90925000D02*
X71877000Y-90925000D01*
X77983000Y-90925000D02*
X75810000Y-90925000D01*
X74141000Y-90785000D02*
X71845000Y-90785000D01*
X78015000Y-90785000D02*
X75719000Y-90785000D01*
X74274000Y-90645000D02*
X71819000Y-90645000D01*
X78041000Y-90645000D02*
X75586000Y-90645000D01*
X74484000Y-90505000D02*
X71800000Y-90505000D01*
X78060000Y-90505000D02*
X75376000Y-90505000D01*
X78073000Y-90365000D02*
X71787000Y-90365000D01*
X78079000Y-90225000D02*
X71781000Y-90225000D01*
%TO.C,C36*%
X68790000Y-49550000D02*
X65790000Y-49550000D01*
X65790000Y-47050000D02*
X68790000Y-47050000D01*
%TO.C,C35*%
X71140000Y-34540000D02*
X71140000Y-31540000D01*
X73640000Y-31540000D02*
X73640000Y-34540000D01*
%TO.C,C33*%
X101620000Y-64980000D02*
X101620000Y-61980000D01*
X104120000Y-61980000D02*
X104120000Y-64980000D01*
%TO.C,C32*%
X96540000Y-64980000D02*
X96540000Y-61980000D01*
X99040000Y-61980000D02*
X99040000Y-64980000D01*
%TO.C,C31*%
X106700000Y-65020000D02*
X106700000Y-62020000D01*
X109200000Y-62020000D02*
X109200000Y-65020000D01*
X109855000Y-60365000D02*
X108585000Y-60365000D01*
X109220000Y-61000000D02*
X109220000Y-59730000D01*
%TO.C,C29*%
X242560000Y-101140000D02*
X242560000Y-107140000D01*
X224560000Y-101140000D02*
X242560000Y-101140000D01*
X224560000Y-107140000D02*
X224560000Y-101140000D01*
X242560000Y-107140000D02*
X224560000Y-107140000D01*
%TO.C,C28*%
X99080000Y-33230000D02*
X99080000Y-30230000D01*
X101580000Y-30230000D02*
X101580000Y-33230000D01*
%TO.C,C25*%
X114320000Y-33230000D02*
X114320000Y-30230000D01*
X116820000Y-30230000D02*
X116820000Y-33230000D01*
%TO.C,C24*%
X109240000Y-33230000D02*
X109240000Y-30230000D01*
X111740000Y-30230000D02*
X111740000Y-33230000D01*
%TO.C,C23*%
X104160000Y-33230000D02*
X104160000Y-30230000D01*
X106660000Y-30230000D02*
X106660000Y-33230000D01*
X107315000Y-28575000D02*
X106045000Y-28575000D01*
X106680000Y-29210000D02*
X106680000Y-27940000D01*
%TO.C,C21*%
X111780000Y-64980000D02*
X111780000Y-61980000D01*
X114280000Y-61980000D02*
X114280000Y-64980000D01*
%TO.C,C20*%
X93960000Y-30230000D02*
X93960000Y-33230000D01*
X91460000Y-33230000D02*
X91460000Y-30230000D01*
%TO.C,C17*%
X68790000Y-113010000D02*
X65790000Y-113010000D01*
X65790000Y-110510000D02*
X68790000Y-110510000D01*
%TO.C,C16*%
X71140000Y-98000000D02*
X71140000Y-95000000D01*
X73640000Y-95000000D02*
X73640000Y-98000000D01*
%TO.C,C14*%
X111780000Y-128520000D02*
X111780000Y-125520000D01*
X114280000Y-125520000D02*
X114280000Y-128520000D01*
%TO.C,C13*%
X96540000Y-128480000D02*
X96540000Y-125480000D01*
X99040000Y-125480000D02*
X99040000Y-128480000D01*
%TO.C,C12*%
X106700000Y-128520000D02*
X106700000Y-125520000D01*
X109200000Y-125520000D02*
X109200000Y-128520000D01*
X109855000Y-123865000D02*
X108585000Y-123865000D01*
X109220000Y-124500000D02*
X109220000Y-123230000D01*
%TO.C,C10*%
X109240000Y-92920000D02*
X109240000Y-89920000D01*
X111740000Y-89920000D02*
X111740000Y-92920000D01*
%TO.C,C7*%
X104160000Y-92920000D02*
X104160000Y-89920000D01*
X106660000Y-89920000D02*
X106660000Y-92920000D01*
%TO.C,C6*%
X224560000Y-51260000D02*
X224560000Y-45260000D01*
X242560000Y-51260000D02*
X224560000Y-51260000D01*
X242560000Y-45260000D02*
X242560000Y-51260000D01*
X224560000Y-45260000D02*
X242560000Y-45260000D01*
%TO.C,C5*%
X114320000Y-92960000D02*
X114320000Y-89960000D01*
X116820000Y-89960000D02*
X116820000Y-92960000D01*
%TO.C,C4*%
X99080000Y-92920000D02*
X99080000Y-89920000D01*
X101580000Y-89920000D02*
X101580000Y-92920000D01*
X102235000Y-88265000D02*
X100965000Y-88265000D01*
X101600000Y-88900000D02*
X101600000Y-87630000D01*
%TO.C,C2*%
X101620000Y-128480000D02*
X101620000Y-125480000D01*
X104120000Y-125480000D02*
X104120000Y-128480000D01*
%TO.C,C1*%
X93960000Y-93770000D02*
X93960000Y-96770000D01*
X91460000Y-96770000D02*
X91460000Y-93770000D01*
D14*
%TO.C,U7*%
X105680000Y-48200000D02*
X104430000Y-48200000D01*
X104430000Y-48200000D02*
X104430000Y-58480000D01*
X104430000Y-58480000D02*
X108930000Y-58480000D01*
X108930000Y-58480000D02*
X108930000Y-48200000D01*
X108930000Y-48200000D02*
X107680000Y-48200000D01*
X107680000Y-48200000D02*
G75*
G02X105680000Y-48200000I-1000000J0D01*
G01*
%TO.C,U5*%
X105680000Y-36770000D02*
X104430000Y-36770000D01*
X104430000Y-36770000D02*
X104430000Y-47050000D01*
X104430000Y-47050000D02*
X108930000Y-47050000D01*
X108930000Y-47050000D02*
X108930000Y-36770000D01*
X108930000Y-36770000D02*
X107680000Y-36770000D01*
X107680000Y-36770000D02*
G75*
G02X105680000Y-36770000I-1000000J0D01*
G01*
%TO.C,U2*%
X87900000Y-100270000D02*
X86650000Y-100270000D01*
X86650000Y-100270000D02*
X86650000Y-110550000D01*
X86650000Y-110550000D02*
X91150000Y-110550000D01*
X91150000Y-110550000D02*
X91150000Y-100270000D01*
X91150000Y-100270000D02*
X89900000Y-100270000D01*
X89900000Y-100270000D02*
G75*
G02X87900000Y-100270000I-1000000J0D01*
G01*
%TO.C,RTUNE1*%
X226070000Y-81085000D02*
X226070000Y-71315000D01*
X231140000Y-81085000D02*
X231140000Y-71315000D01*
X226070000Y-81085000D02*
X231140000Y-81085000D01*
X226070000Y-71315000D02*
X231140000Y-71315000D01*
D10*
%TO.C,REF\002A\002A*%
X184450000Y-113950000D02*
X184450000Y-128950000D01*
X184450000Y-86950000D02*
X184450000Y-101950000D01*
X159450000Y-120450000D02*
X159450000Y-128950000D01*
X159450000Y-95450000D02*
X159450000Y-86950000D01*
X168950000Y-120450000D02*
X159450000Y-120450000D01*
X168950000Y-95450000D02*
X159450000Y-95450000D01*
X172800000Y-113950000D02*
X184450000Y-113950000D01*
X172800000Y-101950000D02*
X184450000Y-101950000D01*
X172800000Y-101950000D02*
X172800000Y-113950000D01*
X171450000Y-97950000D02*
X171450000Y-117950000D01*
X184450000Y-128950000D02*
X159450000Y-128950000D01*
X159450000Y-86950000D02*
X184450000Y-86950000D01*
X172800000Y-109700000D02*
X171450000Y-109700000D01*
X172800000Y-106200000D02*
X171450000Y-106200000D01*
X143390000Y-66150000D02*
X143390000Y-58650000D01*
X128390000Y-58650000D02*
X128390000Y-66150000D01*
X151890000Y-52150000D02*
X151890000Y-54150000D01*
X151890000Y-54150000D02*
X146390000Y-54150000D01*
X146390000Y-54150000D02*
X146390000Y-56150000D01*
X146390000Y-56150000D02*
X151890000Y-56150000D01*
X151890000Y-56150000D02*
X151890000Y-58150000D01*
X151890000Y-58150000D02*
X146390000Y-58150000D01*
X146390000Y-58150000D02*
X146390000Y-60150000D01*
X146390000Y-60150000D02*
X151890000Y-60150000D01*
X151890000Y-60150000D02*
X151890000Y-62150000D01*
X151890000Y-62150000D02*
X146390000Y-62150000D01*
X146390000Y-62150000D02*
X146390000Y-64150000D01*
X146390000Y-64150000D02*
X151890000Y-64150000D01*
X151890000Y-64150000D02*
X151890000Y-66150000D01*
X151890000Y-66150000D02*
X143390000Y-66150000D01*
X119890000Y-52150000D02*
X119890000Y-54150000D01*
X119890000Y-54150000D02*
X125390000Y-54150000D01*
X125390000Y-54150000D02*
X125390000Y-56150000D01*
X125390000Y-56150000D02*
X119890000Y-56150000D01*
X119890000Y-56150000D02*
X119890000Y-58150000D01*
X119890000Y-58150000D02*
X125390000Y-58150000D01*
X125390000Y-58150000D02*
X125390000Y-60150000D01*
X125390000Y-60150000D02*
X119890000Y-60150000D01*
X119890000Y-60150000D02*
X119890000Y-62150000D01*
X119890000Y-62150000D02*
X125390000Y-62150000D01*
X125390000Y-62150000D02*
X125390000Y-64150000D01*
X125390000Y-64150000D02*
X119890000Y-64150000D01*
X119890000Y-64150000D02*
X119890000Y-66150000D01*
X119890000Y-66150000D02*
X128390000Y-66150000D01*
X134140000Y-52400000D02*
X134140000Y-52150000D01*
X137640000Y-52400000D02*
X137640000Y-52150000D01*
X134140000Y-54900000D02*
X134140000Y-55150000D01*
X137640000Y-54900000D02*
X137640000Y-55150000D01*
X137640000Y-53900000D02*
X137640000Y-54400000D01*
X137640000Y-52900000D02*
X137640000Y-53400000D01*
X134140000Y-53900000D02*
X134140000Y-54400000D01*
X134140000Y-52900000D02*
X134140000Y-53400000D01*
X128390000Y-55150000D02*
X128390000Y-56150000D01*
X143390000Y-55150000D02*
X143390000Y-56150000D01*
X128390000Y-55150000D02*
X143390000Y-55150000D01*
X119890000Y-52150000D02*
X151890000Y-52150000D01*
X143390000Y-39480000D02*
X143390000Y-31980000D01*
X128390000Y-31980000D02*
X128390000Y-39480000D01*
X151890000Y-25480000D02*
X151890000Y-27480000D01*
X151890000Y-27480000D02*
X146390000Y-27480000D01*
X146390000Y-27480000D02*
X146390000Y-29480000D01*
X146390000Y-29480000D02*
X151890000Y-29480000D01*
X151890000Y-29480000D02*
X151890000Y-31480000D01*
X151890000Y-31480000D02*
X146390000Y-31480000D01*
X146390000Y-31480000D02*
X146390000Y-33480000D01*
X146390000Y-33480000D02*
X151890000Y-33480000D01*
X151890000Y-33480000D02*
X151890000Y-35480000D01*
X151890000Y-35480000D02*
X146390000Y-35480000D01*
X146390000Y-35480000D02*
X146390000Y-37480000D01*
X146390000Y-37480000D02*
X151890000Y-37480000D01*
X151890000Y-37480000D02*
X151890000Y-39480000D01*
X151890000Y-39480000D02*
X143390000Y-39480000D01*
X119890000Y-25480000D02*
X119890000Y-27480000D01*
X119890000Y-27480000D02*
X125390000Y-27480000D01*
X125390000Y-27480000D02*
X125390000Y-29480000D01*
X125390000Y-29480000D02*
X119890000Y-29480000D01*
X119890000Y-29480000D02*
X119890000Y-31480000D01*
X119890000Y-31480000D02*
X125390000Y-31480000D01*
X125390000Y-31480000D02*
X125390000Y-33480000D01*
X125390000Y-33480000D02*
X119890000Y-33480000D01*
X119890000Y-33480000D02*
X119890000Y-35480000D01*
X119890000Y-35480000D02*
X125390000Y-35480000D01*
X125390000Y-35480000D02*
X125390000Y-37480000D01*
X125390000Y-37480000D02*
X119890000Y-37480000D01*
X119890000Y-37480000D02*
X119890000Y-39480000D01*
X119890000Y-39480000D02*
X128390000Y-39480000D01*
X134140000Y-25730000D02*
X134140000Y-25480000D01*
X137640000Y-25730000D02*
X137640000Y-25480000D01*
X134140000Y-28230000D02*
X134140000Y-28480000D01*
X137640000Y-28230000D02*
X137640000Y-28480000D01*
X137640000Y-27230000D02*
X137640000Y-27730000D01*
X137640000Y-26230000D02*
X137640000Y-26730000D01*
X134140000Y-27230000D02*
X134140000Y-27730000D01*
X134140000Y-26230000D02*
X134140000Y-26730000D01*
X128390000Y-28480000D02*
X128390000Y-29480000D01*
X143390000Y-28480000D02*
X143390000Y-29480000D01*
X128390000Y-28480000D02*
X143390000Y-28480000D01*
X119890000Y-25480000D02*
X151890000Y-25480000D01*
X143390000Y-129650000D02*
X143390000Y-122150000D01*
X128390000Y-122150000D02*
X128390000Y-129650000D01*
X151890000Y-115650000D02*
X151890000Y-117650000D01*
X151890000Y-117650000D02*
X146390000Y-117650000D01*
X146390000Y-117650000D02*
X146390000Y-119650000D01*
X146390000Y-119650000D02*
X151890000Y-119650000D01*
X151890000Y-119650000D02*
X151890000Y-121650000D01*
X151890000Y-121650000D02*
X146390000Y-121650000D01*
X146390000Y-121650000D02*
X146390000Y-123650000D01*
X146390000Y-123650000D02*
X151890000Y-123650000D01*
X151890000Y-123650000D02*
X151890000Y-125650000D01*
X151890000Y-125650000D02*
X146390000Y-125650000D01*
X146390000Y-125650000D02*
X146390000Y-127650000D01*
X146390000Y-127650000D02*
X151890000Y-127650000D01*
X151890000Y-127650000D02*
X151890000Y-129650000D01*
X151890000Y-129650000D02*
X143390000Y-129650000D01*
X119890000Y-115650000D02*
X119890000Y-117650000D01*
X119890000Y-117650000D02*
X125390000Y-117650000D01*
X125390000Y-117650000D02*
X125390000Y-119650000D01*
X125390000Y-119650000D02*
X119890000Y-119650000D01*
X119890000Y-119650000D02*
X119890000Y-121650000D01*
X119890000Y-121650000D02*
X125390000Y-121650000D01*
X125390000Y-121650000D02*
X125390000Y-123650000D01*
X125390000Y-123650000D02*
X119890000Y-123650000D01*
X119890000Y-123650000D02*
X119890000Y-125650000D01*
X119890000Y-125650000D02*
X125390000Y-125650000D01*
X125390000Y-125650000D02*
X125390000Y-127650000D01*
X125390000Y-127650000D02*
X119890000Y-127650000D01*
X119890000Y-127650000D02*
X119890000Y-129650000D01*
X119890000Y-129650000D02*
X128390000Y-129650000D01*
X134140000Y-115900000D02*
X134140000Y-115650000D01*
X137640000Y-115900000D02*
X137640000Y-115650000D01*
X134140000Y-118400000D02*
X134140000Y-118650000D01*
X137640000Y-118400000D02*
X137640000Y-118650000D01*
X137640000Y-117400000D02*
X137640000Y-117900000D01*
X137640000Y-116400000D02*
X137640000Y-116900000D01*
X134140000Y-117400000D02*
X134140000Y-117900000D01*
X134140000Y-116400000D02*
X134140000Y-116900000D01*
X128390000Y-118650000D02*
X128390000Y-119650000D01*
X143390000Y-118650000D02*
X143390000Y-119650000D01*
X128390000Y-118650000D02*
X143390000Y-118650000D01*
X119890000Y-115650000D02*
X151890000Y-115650000D01*
X184450000Y-50450000D02*
X184450000Y-65450000D01*
X184450000Y-23450000D02*
X184450000Y-38450000D01*
X159450000Y-56950000D02*
X159450000Y-65450000D01*
X159450000Y-31950000D02*
X159450000Y-23450000D01*
X168950000Y-56950000D02*
X159450000Y-56950000D01*
X168950000Y-31950000D02*
X159450000Y-31950000D01*
X172800000Y-50450000D02*
X184450000Y-50450000D01*
X172800000Y-38450000D02*
X184450000Y-38450000D01*
X172800000Y-38450000D02*
X172800000Y-50450000D01*
X171450000Y-34450000D02*
X171450000Y-54450000D01*
X184450000Y-65450000D02*
X159450000Y-65450000D01*
X159450000Y-23450000D02*
X184450000Y-23450000D01*
X172800000Y-46200000D02*
X171450000Y-46200000D01*
X172800000Y-42700000D02*
X171450000Y-42700000D01*
X210930000Y-108070000D02*
X203430000Y-108070000D01*
X203430000Y-123070000D02*
X210930000Y-123070000D01*
X196930000Y-99570000D02*
X198930000Y-99570000D01*
X198930000Y-99570000D02*
X198930000Y-105070000D01*
X198930000Y-105070000D02*
X200930000Y-105070000D01*
X200930000Y-105070000D02*
X200930000Y-99570000D01*
X200930000Y-99570000D02*
X202930000Y-99570000D01*
X202930000Y-99570000D02*
X202930000Y-105070000D01*
X202930000Y-105070000D02*
X204930000Y-105070000D01*
X204930000Y-105070000D02*
X204930000Y-99570000D01*
X204930000Y-99570000D02*
X206930000Y-99570000D01*
X206930000Y-99570000D02*
X206930000Y-105070000D01*
X206930000Y-105070000D02*
X208930000Y-105070000D01*
X208930000Y-105070000D02*
X208930000Y-99570000D01*
X208930000Y-99570000D02*
X210930000Y-99570000D01*
X210930000Y-99570000D02*
X210930000Y-108070000D01*
X196930000Y-131570000D02*
X198930000Y-131570000D01*
X198930000Y-131570000D02*
X198930000Y-126070000D01*
X198930000Y-126070000D02*
X200930000Y-126070000D01*
X200930000Y-126070000D02*
X200930000Y-131570000D01*
X200930000Y-131570000D02*
X202930000Y-131570000D01*
X202930000Y-131570000D02*
X202930000Y-126070000D01*
X202930000Y-126070000D02*
X204930000Y-126070000D01*
X204930000Y-126070000D02*
X204930000Y-131570000D01*
X204930000Y-131570000D02*
X206930000Y-131570000D01*
X206930000Y-131570000D02*
X206930000Y-126070000D01*
X206930000Y-126070000D02*
X208930000Y-126070000D01*
X208930000Y-126070000D02*
X208930000Y-131570000D01*
X208930000Y-131570000D02*
X210930000Y-131570000D01*
X210930000Y-131570000D02*
X210930000Y-123070000D01*
X197180000Y-117320000D02*
X196930000Y-117320000D01*
X197180000Y-113820000D02*
X196930000Y-113820000D01*
X199680000Y-117320000D02*
X199930000Y-117320000D01*
X199680000Y-113820000D02*
X199930000Y-113820000D01*
X198680000Y-113820000D02*
X199180000Y-113820000D01*
X197680000Y-113820000D02*
X198180000Y-113820000D01*
X198680000Y-117320000D02*
X199180000Y-117320000D01*
X197680000Y-117320000D02*
X198180000Y-117320000D01*
X199930000Y-123070000D02*
X200930000Y-123070000D01*
X199930000Y-108070000D02*
X200930000Y-108070000D01*
X199930000Y-123070000D02*
X199930000Y-108070000D01*
X196930000Y-131570000D02*
X196930000Y-99570000D01*
X210930000Y-29330000D02*
X203430000Y-29330000D01*
X203430000Y-44330000D02*
X210930000Y-44330000D01*
X196930000Y-20830000D02*
X198930000Y-20830000D01*
X198930000Y-20830000D02*
X198930000Y-26330000D01*
X198930000Y-26330000D02*
X200930000Y-26330000D01*
X200930000Y-26330000D02*
X200930000Y-20830000D01*
X200930000Y-20830000D02*
X202930000Y-20830000D01*
X202930000Y-20830000D02*
X202930000Y-26330000D01*
X202930000Y-26330000D02*
X204930000Y-26330000D01*
X204930000Y-26330000D02*
X204930000Y-20830000D01*
X204930000Y-20830000D02*
X206930000Y-20830000D01*
X206930000Y-20830000D02*
X206930000Y-26330000D01*
X206930000Y-26330000D02*
X208930000Y-26330000D01*
X208930000Y-26330000D02*
X208930000Y-20830000D01*
X208930000Y-20830000D02*
X210930000Y-20830000D01*
X210930000Y-20830000D02*
X210930000Y-29330000D01*
X196930000Y-52830000D02*
X198930000Y-52830000D01*
X198930000Y-52830000D02*
X198930000Y-47330000D01*
X198930000Y-47330000D02*
X200930000Y-47330000D01*
X200930000Y-47330000D02*
X200930000Y-52830000D01*
X200930000Y-52830000D02*
X202930000Y-52830000D01*
X202930000Y-52830000D02*
X202930000Y-47330000D01*
X202930000Y-47330000D02*
X204930000Y-47330000D01*
X204930000Y-47330000D02*
X204930000Y-52830000D01*
X204930000Y-52830000D02*
X206930000Y-52830000D01*
X206930000Y-52830000D02*
X206930000Y-47330000D01*
X206930000Y-47330000D02*
X208930000Y-47330000D01*
X208930000Y-47330000D02*
X208930000Y-52830000D01*
X208930000Y-52830000D02*
X210930000Y-52830000D01*
X210930000Y-52830000D02*
X210930000Y-44330000D01*
X197180000Y-38580000D02*
X196930000Y-38580000D01*
X197180000Y-35080000D02*
X196930000Y-35080000D01*
X199680000Y-38580000D02*
X199930000Y-38580000D01*
X199680000Y-35080000D02*
X199930000Y-35080000D01*
X198680000Y-35080000D02*
X199180000Y-35080000D01*
X197680000Y-35080000D02*
X198180000Y-35080000D01*
X198680000Y-38580000D02*
X199180000Y-38580000D01*
X197680000Y-38580000D02*
X198180000Y-38580000D01*
X199930000Y-44330000D02*
X200930000Y-44330000D01*
X199930000Y-29330000D02*
X200930000Y-29330000D01*
X199930000Y-44330000D02*
X199930000Y-29330000D01*
X196930000Y-52830000D02*
X196930000Y-20830000D01*
%TD*%
%TO.C,J4*%
X247316666Y-79252380D02*
X247316666Y-79966666D01*
X247269047Y-80109523D01*
X247173809Y-80204761D01*
X247030952Y-80252380D01*
X246935714Y-80252380D01*
X248221428Y-79585714D02*
X248221428Y-80252380D01*
X247983333Y-79204761D02*
X247745238Y-79919047D01*
X248364285Y-79919047D01*
%TO.C,J1.2*%
X246602380Y-91952380D02*
X246602380Y-92666666D01*
X246554761Y-92809523D01*
X246459523Y-92904761D01*
X246316666Y-92952380D01*
X246221428Y-92952380D01*
X247602380Y-92952380D02*
X247030952Y-92952380D01*
X247316666Y-92952380D02*
X247316666Y-91952380D01*
X247221428Y-92095238D01*
X247126190Y-92190476D01*
X247030952Y-92238095D01*
X248030952Y-92857142D02*
X248078571Y-92904761D01*
X248030952Y-92952380D01*
X247983333Y-92904761D01*
X248030952Y-92857142D01*
X248030952Y-92952380D01*
X248459523Y-92047619D02*
X248507142Y-92000000D01*
X248602380Y-91952380D01*
X248840476Y-91952380D01*
X248935714Y-92000000D01*
X248983333Y-92047619D01*
X249030952Y-92142857D01*
X249030952Y-92238095D01*
X248983333Y-92380952D01*
X248411904Y-92952380D01*
X249030952Y-92952380D01*
%TO.C,J1.1*%
X246602380Y-66552380D02*
X246602380Y-67266666D01*
X246554761Y-67409523D01*
X246459523Y-67504761D01*
X246316666Y-67552380D01*
X246221428Y-67552380D01*
X247602380Y-67552380D02*
X247030952Y-67552380D01*
X247316666Y-67552380D02*
X247316666Y-66552380D01*
X247221428Y-66695238D01*
X247126190Y-66790476D01*
X247030952Y-66838095D01*
X248030952Y-67457142D02*
X248078571Y-67504761D01*
X248030952Y-67552380D01*
X247983333Y-67504761D01*
X248030952Y-67457142D01*
X248030952Y-67552380D01*
X249030952Y-67552380D02*
X248459523Y-67552380D01*
X248745238Y-67552380D02*
X248745238Y-66552380D01*
X248650000Y-66695238D01*
X248554761Y-66790476D01*
X248459523Y-66838095D01*
%TO.C,R8*%
X150963333Y-43632380D02*
X150630000Y-43156190D01*
X150391904Y-43632380D02*
X150391904Y-42632380D01*
X150772857Y-42632380D01*
X150868095Y-42680000D01*
X150915714Y-42727619D01*
X150963333Y-42822857D01*
X150963333Y-42965714D01*
X150915714Y-43060952D01*
X150868095Y-43108571D01*
X150772857Y-43156190D01*
X150391904Y-43156190D01*
X151534761Y-43060952D02*
X151439523Y-43013333D01*
X151391904Y-42965714D01*
X151344285Y-42870476D01*
X151344285Y-42822857D01*
X151391904Y-42727619D01*
X151439523Y-42680000D01*
X151534761Y-42632380D01*
X151725238Y-42632380D01*
X151820476Y-42680000D01*
X151868095Y-42727619D01*
X151915714Y-42822857D01*
X151915714Y-42870476D01*
X151868095Y-42965714D01*
X151820476Y-43013333D01*
X151725238Y-43060952D01*
X151534761Y-43060952D01*
X151439523Y-43108571D01*
X151391904Y-43156190D01*
X151344285Y-43251428D01*
X151344285Y-43441904D01*
X151391904Y-43537142D01*
X151439523Y-43584761D01*
X151534761Y-43632380D01*
X151725238Y-43632380D01*
X151820476Y-43584761D01*
X151868095Y-43537142D01*
X151915714Y-43441904D01*
X151915714Y-43251428D01*
X151868095Y-43156190D01*
X151820476Y-43108571D01*
X151725238Y-43060952D01*
%TO.C,R4*%
X150963333Y-104592380D02*
X150630000Y-104116190D01*
X150391904Y-104592380D02*
X150391904Y-103592380D01*
X150772857Y-103592380D01*
X150868095Y-103640000D01*
X150915714Y-103687619D01*
X150963333Y-103782857D01*
X150963333Y-103925714D01*
X150915714Y-104020952D01*
X150868095Y-104068571D01*
X150772857Y-104116190D01*
X150391904Y-104116190D01*
X151820476Y-103925714D02*
X151820476Y-104592380D01*
X151582380Y-103544761D02*
X151344285Y-104259047D01*
X151963333Y-104259047D01*
%TO.C,D2*%
X152624564Y-48712380D02*
X152624564Y-47712380D01*
X152862660Y-47712380D01*
X153005517Y-47760000D01*
X153100755Y-47855238D01*
X153148374Y-47950476D01*
X153195993Y-48140952D01*
X153195993Y-48283809D01*
X153148374Y-48474285D01*
X153100755Y-48569523D01*
X153005517Y-48664761D01*
X152862660Y-48712380D01*
X152624564Y-48712380D01*
X153576945Y-47807619D02*
X153624564Y-47760000D01*
X153719802Y-47712380D01*
X153957898Y-47712380D01*
X154053136Y-47760000D01*
X154100755Y-47807619D01*
X154148374Y-47902857D01*
X154148374Y-47998095D01*
X154100755Y-48140952D01*
X153529326Y-48712380D01*
X154148374Y-48712380D01*
X149765238Y-51204761D02*
X149908095Y-51252380D01*
X150146190Y-51252380D01*
X150241428Y-51204761D01*
X150289047Y-51157142D01*
X150336666Y-51061904D01*
X150336666Y-50966666D01*
X150289047Y-50871428D01*
X150241428Y-50823809D01*
X150146190Y-50776190D01*
X149955714Y-50728571D01*
X149860476Y-50680952D01*
X149812857Y-50633333D01*
X149765238Y-50538095D01*
X149765238Y-50442857D01*
X149812857Y-50347619D01*
X149860476Y-50300000D01*
X149955714Y-50252380D01*
X150193809Y-50252380D01*
X150336666Y-50300000D01*
X150622380Y-50252380D02*
X151193809Y-50252380D01*
X150908095Y-51252380D02*
X150908095Y-50252380D01*
X151384285Y-50252380D02*
X151955714Y-50252380D01*
X151670000Y-51252380D02*
X151670000Y-50252380D01*
X152289047Y-51252380D02*
X152289047Y-50252380D01*
X152289047Y-50728571D02*
X152860476Y-50728571D01*
X152860476Y-51252380D02*
X152860476Y-50252380D01*
X153860476Y-51252380D02*
X153289047Y-51252380D01*
X153574761Y-51252380D02*
X153574761Y-50252380D01*
X153479523Y-50395238D01*
X153384285Y-50490476D01*
X153289047Y-50538095D01*
X154479523Y-50252380D02*
X154574761Y-50252380D01*
X154670000Y-50300000D01*
X154717619Y-50347619D01*
X154765238Y-50442857D01*
X154812857Y-50633333D01*
X154812857Y-50871428D01*
X154765238Y-51061904D01*
X154717619Y-51157142D01*
X154670000Y-51204761D01*
X154574761Y-51252380D01*
X154479523Y-51252380D01*
X154384285Y-51204761D01*
X154336666Y-51157142D01*
X154289047Y-51061904D01*
X154241428Y-50871428D01*
X154241428Y-50633333D01*
X154289047Y-50442857D01*
X154336666Y-50347619D01*
X154384285Y-50300000D01*
X154479523Y-50252380D01*
X155193809Y-50347619D02*
X155241428Y-50300000D01*
X155336666Y-50252380D01*
X155574761Y-50252380D01*
X155670000Y-50300000D01*
X155717619Y-50347619D01*
X155765238Y-50442857D01*
X155765238Y-50538095D01*
X155717619Y-50680952D01*
X155146190Y-51252380D01*
X155765238Y-51252380D01*
X156765238Y-51252380D02*
X156431904Y-50776190D01*
X156193809Y-51252380D02*
X156193809Y-50252380D01*
X156574761Y-50252380D01*
X156670000Y-50300000D01*
X156717619Y-50347619D01*
X156765238Y-50442857D01*
X156765238Y-50585714D01*
X156717619Y-50680952D01*
X156670000Y-50728571D01*
X156574761Y-50776190D01*
X156193809Y-50776190D01*
X157670000Y-51252380D02*
X157193809Y-51252380D01*
X157193809Y-50252380D01*
%TO.C,D1*%
X153239244Y-112212380D02*
X153239244Y-111212380D01*
X153477340Y-111212380D01*
X153620197Y-111260000D01*
X153715435Y-111355238D01*
X153763054Y-111450476D01*
X153810673Y-111640952D01*
X153810673Y-111783809D01*
X153763054Y-111974285D01*
X153715435Y-112069523D01*
X153620197Y-112164761D01*
X153477340Y-112212380D01*
X153239244Y-112212380D01*
X154763054Y-112212380D02*
X154191625Y-112212380D01*
X154477340Y-112212380D02*
X154477340Y-111212380D01*
X154382101Y-111355238D01*
X154286863Y-111450476D01*
X154191625Y-111498095D01*
X149765238Y-114704761D02*
X149908095Y-114752380D01*
X150146190Y-114752380D01*
X150241428Y-114704761D01*
X150289047Y-114657142D01*
X150336666Y-114561904D01*
X150336666Y-114466666D01*
X150289047Y-114371428D01*
X150241428Y-114323809D01*
X150146190Y-114276190D01*
X149955714Y-114228571D01*
X149860476Y-114180952D01*
X149812857Y-114133333D01*
X149765238Y-114038095D01*
X149765238Y-113942857D01*
X149812857Y-113847619D01*
X149860476Y-113800000D01*
X149955714Y-113752380D01*
X150193809Y-113752380D01*
X150336666Y-113800000D01*
X150622380Y-113752380D02*
X151193809Y-113752380D01*
X150908095Y-114752380D02*
X150908095Y-113752380D01*
X151384285Y-113752380D02*
X151955714Y-113752380D01*
X151670000Y-114752380D02*
X151670000Y-113752380D01*
X152289047Y-114752380D02*
X152289047Y-113752380D01*
X152289047Y-114228571D02*
X152860476Y-114228571D01*
X152860476Y-114752380D02*
X152860476Y-113752380D01*
X153860476Y-114752380D02*
X153289047Y-114752380D01*
X153574761Y-114752380D02*
X153574761Y-113752380D01*
X153479523Y-113895238D01*
X153384285Y-113990476D01*
X153289047Y-114038095D01*
X154479523Y-113752380D02*
X154574761Y-113752380D01*
X154670000Y-113800000D01*
X154717619Y-113847619D01*
X154765238Y-113942857D01*
X154812857Y-114133333D01*
X154812857Y-114371428D01*
X154765238Y-114561904D01*
X154717619Y-114657142D01*
X154670000Y-114704761D01*
X154574761Y-114752380D01*
X154479523Y-114752380D01*
X154384285Y-114704761D01*
X154336666Y-114657142D01*
X154289047Y-114561904D01*
X154241428Y-114371428D01*
X154241428Y-114133333D01*
X154289047Y-113942857D01*
X154336666Y-113847619D01*
X154384285Y-113800000D01*
X154479523Y-113752380D01*
X155193809Y-113847619D02*
X155241428Y-113800000D01*
X155336666Y-113752380D01*
X155574761Y-113752380D01*
X155670000Y-113800000D01*
X155717619Y-113847619D01*
X155765238Y-113942857D01*
X155765238Y-114038095D01*
X155717619Y-114180952D01*
X155146190Y-114752380D01*
X155765238Y-114752380D01*
X156765238Y-114752380D02*
X156431904Y-114276190D01*
X156193809Y-114752380D02*
X156193809Y-113752380D01*
X156574761Y-113752380D01*
X156670000Y-113800000D01*
X156717619Y-113847619D01*
X156765238Y-113942857D01*
X156765238Y-114085714D01*
X156717619Y-114180952D01*
X156670000Y-114228571D01*
X156574761Y-114276190D01*
X156193809Y-114276190D01*
X157670000Y-114752380D02*
X157193809Y-114752380D01*
X157193809Y-113752380D01*
%TO.C,J5*%
X87292380Y-86693333D02*
X88006666Y-86693333D01*
X88149523Y-86740952D01*
X88244761Y-86836190D01*
X88292380Y-86979047D01*
X88292380Y-87074285D01*
X87292380Y-85740952D02*
X87292380Y-86217142D01*
X87768571Y-86264761D01*
X87720952Y-86217142D01*
X87673333Y-86121904D01*
X87673333Y-85883809D01*
X87720952Y-85788571D01*
X87768571Y-85740952D01*
X87863809Y-85693333D01*
X88101904Y-85693333D01*
X88197142Y-85740952D01*
X88244761Y-85788571D01*
X88292380Y-85883809D01*
X88292380Y-86121904D01*
X88244761Y-86217142D01*
X88197142Y-86264761D01*
%TO.C,J3*%
X25066666Y-72052380D02*
X25066666Y-72766666D01*
X25019047Y-72909523D01*
X24923809Y-73004761D01*
X24780952Y-73052380D01*
X24685714Y-73052380D01*
X25447619Y-72052380D02*
X26066666Y-72052380D01*
X25733333Y-72433333D01*
X25876190Y-72433333D01*
X25971428Y-72480952D01*
X26019047Y-72528571D01*
X26066666Y-72623809D01*
X26066666Y-72861904D01*
X26019047Y-72957142D01*
X25971428Y-73004761D01*
X25876190Y-73052380D01*
X25590476Y-73052380D01*
X25495238Y-73004761D01*
X25447619Y-72957142D01*
%TO.C,J2*%
X87292380Y-23193333D02*
X88006666Y-23193333D01*
X88149523Y-23240952D01*
X88244761Y-23336190D01*
X88292380Y-23479047D01*
X88292380Y-23574285D01*
X87387619Y-22764761D02*
X87340000Y-22717142D01*
X87292380Y-22621904D01*
X87292380Y-22383809D01*
X87340000Y-22288571D01*
X87387619Y-22240952D01*
X87482857Y-22193333D01*
X87578095Y-22193333D01*
X87720952Y-22240952D01*
X88292380Y-22812380D01*
X88292380Y-22193333D01*
%TO.C,Q6*%
X135794761Y-54697619D02*
X135699523Y-54650000D01*
X135604285Y-54554761D01*
X135461428Y-54411904D01*
X135366190Y-54364285D01*
X135270952Y-54364285D01*
X135318571Y-54602380D02*
X135223333Y-54554761D01*
X135128095Y-54459523D01*
X135080476Y-54269047D01*
X135080476Y-53935714D01*
X135128095Y-53745238D01*
X135223333Y-53650000D01*
X135318571Y-53602380D01*
X135509047Y-53602380D01*
X135604285Y-53650000D01*
X135699523Y-53745238D01*
X135747142Y-53935714D01*
X135747142Y-54269047D01*
X135699523Y-54459523D01*
X135604285Y-54554761D01*
X135509047Y-54602380D01*
X135318571Y-54602380D01*
X136604285Y-53602380D02*
X136413809Y-53602380D01*
X136318571Y-53650000D01*
X136270952Y-53697619D01*
X136175714Y-53840476D01*
X136128095Y-54030952D01*
X136128095Y-54411904D01*
X136175714Y-54507142D01*
X136223333Y-54554761D01*
X136318571Y-54602380D01*
X136509047Y-54602380D01*
X136604285Y-54554761D01*
X136651904Y-54507142D01*
X136699523Y-54411904D01*
X136699523Y-54173809D01*
X136651904Y-54078571D01*
X136604285Y-54030952D01*
X136509047Y-53983333D01*
X136318571Y-53983333D01*
X136223333Y-54030952D01*
X136175714Y-54078571D01*
X136128095Y-54173809D01*
%TO.C,Q4*%
X135794761Y-28027619D02*
X135699523Y-27980000D01*
X135604285Y-27884761D01*
X135461428Y-27741904D01*
X135366190Y-27694285D01*
X135270952Y-27694285D01*
X135318571Y-27932380D02*
X135223333Y-27884761D01*
X135128095Y-27789523D01*
X135080476Y-27599047D01*
X135080476Y-27265714D01*
X135128095Y-27075238D01*
X135223333Y-26980000D01*
X135318571Y-26932380D01*
X135509047Y-26932380D01*
X135604285Y-26980000D01*
X135699523Y-27075238D01*
X135747142Y-27265714D01*
X135747142Y-27599047D01*
X135699523Y-27789523D01*
X135604285Y-27884761D01*
X135509047Y-27932380D01*
X135318571Y-27932380D01*
X136604285Y-27265714D02*
X136604285Y-27932380D01*
X136366190Y-26884761D02*
X136128095Y-27599047D01*
X136747142Y-27599047D01*
%TO.C,Q3*%
X135794761Y-118197619D02*
X135699523Y-118150000D01*
X135604285Y-118054761D01*
X135461428Y-117911904D01*
X135366190Y-117864285D01*
X135270952Y-117864285D01*
X135318571Y-118102380D02*
X135223333Y-118054761D01*
X135128095Y-117959523D01*
X135080476Y-117769047D01*
X135080476Y-117435714D01*
X135128095Y-117245238D01*
X135223333Y-117150000D01*
X135318571Y-117102380D01*
X135509047Y-117102380D01*
X135604285Y-117150000D01*
X135699523Y-117245238D01*
X135747142Y-117435714D01*
X135747142Y-117769047D01*
X135699523Y-117959523D01*
X135604285Y-118054761D01*
X135509047Y-118102380D01*
X135318571Y-118102380D01*
X136080476Y-117102380D02*
X136699523Y-117102380D01*
X136366190Y-117483333D01*
X136509047Y-117483333D01*
X136604285Y-117530952D01*
X136651904Y-117578571D01*
X136699523Y-117673809D01*
X136699523Y-117911904D01*
X136651904Y-118007142D01*
X136604285Y-118054761D01*
X136509047Y-118102380D01*
X136223333Y-118102380D01*
X136128095Y-118054761D01*
X136080476Y-118007142D01*
%TO.C,Q1*%
X135794761Y-91527619D02*
X135699523Y-91480000D01*
X135604285Y-91384761D01*
X135461428Y-91241904D01*
X135366190Y-91194285D01*
X135270952Y-91194285D01*
X135318571Y-91432380D02*
X135223333Y-91384761D01*
X135128095Y-91289523D01*
X135080476Y-91099047D01*
X135080476Y-90765714D01*
X135128095Y-90575238D01*
X135223333Y-90480000D01*
X135318571Y-90432380D01*
X135509047Y-90432380D01*
X135604285Y-90480000D01*
X135699523Y-90575238D01*
X135747142Y-90765714D01*
X135747142Y-91099047D01*
X135699523Y-91289523D01*
X135604285Y-91384761D01*
X135509047Y-91432380D01*
X135318571Y-91432380D01*
X136699523Y-91432380D02*
X136128095Y-91432380D01*
X136413809Y-91432380D02*
X136413809Y-90432380D01*
X136318571Y-90575238D01*
X136223333Y-90670476D01*
X136128095Y-90718095D01*
%TO.C,P1*%
X41171904Y-108402380D02*
X41171904Y-107402380D01*
X41552857Y-107402380D01*
X41648095Y-107450000D01*
X41695714Y-107497619D01*
X41743333Y-107592857D01*
X41743333Y-107735714D01*
X41695714Y-107830952D01*
X41648095Y-107878571D01*
X41552857Y-107926190D01*
X41171904Y-107926190D01*
X42695714Y-108402380D02*
X42124285Y-108402380D01*
X42410000Y-108402380D02*
X42410000Y-107402380D01*
X42314761Y-107545238D01*
X42219523Y-107640476D01*
X42124285Y-107688095D01*
X51816190Y-115022380D02*
X52149523Y-116022380D01*
X52482857Y-115022380D01*
X52959047Y-116022380D02*
X52863809Y-115974761D01*
X52816190Y-115927142D01*
X52768571Y-115831904D01*
X52768571Y-115546190D01*
X52816190Y-115450952D01*
X52863809Y-115403333D01*
X52959047Y-115355714D01*
X53101904Y-115355714D01*
X53197142Y-115403333D01*
X53244761Y-115450952D01*
X53292380Y-115546190D01*
X53292380Y-115831904D01*
X53244761Y-115927142D01*
X53197142Y-115974761D01*
X53101904Y-116022380D01*
X52959047Y-116022380D01*
X54149523Y-115355714D02*
X54149523Y-116022380D01*
X53720952Y-115355714D02*
X53720952Y-115879523D01*
X53768571Y-115974761D01*
X53863809Y-116022380D01*
X54006666Y-116022380D01*
X54101904Y-115974761D01*
X54149523Y-115927142D01*
X54482857Y-115355714D02*
X54863809Y-115355714D01*
X54625714Y-115022380D02*
X54625714Y-115879523D01*
X54673333Y-115974761D01*
X54768571Y-116022380D01*
X54863809Y-116022380D01*
X41865714Y-112012380D02*
X41294285Y-112012380D01*
X41580000Y-112012380D02*
X41580000Y-111012380D01*
X41484761Y-111155238D01*
X41389523Y-111250476D01*
X41294285Y-111298095D01*
X56896190Y-115022380D02*
X57229523Y-116022380D01*
X57562857Y-115022380D01*
X58039047Y-116022380D02*
X57943809Y-115974761D01*
X57896190Y-115927142D01*
X57848571Y-115831904D01*
X57848571Y-115546190D01*
X57896190Y-115450952D01*
X57943809Y-115403333D01*
X58039047Y-115355714D01*
X58181904Y-115355714D01*
X58277142Y-115403333D01*
X58324761Y-115450952D01*
X58372380Y-115546190D01*
X58372380Y-115831904D01*
X58324761Y-115927142D01*
X58277142Y-115974761D01*
X58181904Y-116022380D01*
X58039047Y-116022380D01*
X59229523Y-115355714D02*
X59229523Y-116022380D01*
X58800952Y-115355714D02*
X58800952Y-115879523D01*
X58848571Y-115974761D01*
X58943809Y-116022380D01*
X59086666Y-116022380D01*
X59181904Y-115974761D01*
X59229523Y-115927142D01*
X59562857Y-115355714D02*
X59943809Y-115355714D01*
X59705714Y-115022380D02*
X59705714Y-115879523D01*
X59753333Y-115974761D01*
X59848571Y-116022380D01*
X59943809Y-116022380D01*
X43656990Y-115562440D02*
X43990323Y-116562440D01*
X44323657Y-115562440D01*
X44656990Y-116562440D02*
X44656990Y-115895774D01*
X44656990Y-115562440D02*
X44609371Y-115610060D01*
X44656990Y-115657679D01*
X44704609Y-115610060D01*
X44656990Y-115562440D01*
X44656990Y-115657679D01*
X45133180Y-115895774D02*
X45133180Y-116562440D01*
X45133180Y-115991012D02*
X45180800Y-115943393D01*
X45276038Y-115895774D01*
X45418895Y-115895774D01*
X45514133Y-115943393D01*
X45561752Y-116038631D01*
X45561752Y-116562440D01*
X56237142Y-116379523D02*
X56284761Y-116427142D01*
X56332380Y-116570000D01*
X56332380Y-116665238D01*
X56284761Y-116808095D01*
X56189523Y-116903333D01*
X56094285Y-116950952D01*
X55903809Y-116998571D01*
X55760952Y-116998571D01*
X55570476Y-116950952D01*
X55475238Y-116903333D01*
X55380000Y-116808095D01*
X55332380Y-116665238D01*
X55332380Y-116570000D01*
X55380000Y-116427142D01*
X55427619Y-116379523D01*
X56332380Y-115808095D02*
X56284761Y-115903333D01*
X56237142Y-115950952D01*
X56141904Y-115998571D01*
X55856190Y-115998571D01*
X55760952Y-115950952D01*
X55713333Y-115903333D01*
X55665714Y-115808095D01*
X55665714Y-115665238D01*
X55713333Y-115570000D01*
X55760952Y-115522380D01*
X55856190Y-115474761D01*
X56141904Y-115474761D01*
X56237142Y-115522380D01*
X56284761Y-115570000D01*
X56332380Y-115665238D01*
X56332380Y-115808095D01*
X56332380Y-115046190D02*
X55665714Y-115046190D01*
X55760952Y-115046190D02*
X55713333Y-114998571D01*
X55665714Y-114903333D01*
X55665714Y-114760476D01*
X55713333Y-114665238D01*
X55808571Y-114617619D01*
X56332380Y-114617619D01*
X55808571Y-114617619D02*
X55713333Y-114570000D01*
X55665714Y-114474761D01*
X55665714Y-114331904D01*
X55713333Y-114236666D01*
X55808571Y-114189047D01*
X56332380Y-114189047D01*
X58039047Y-114371428D02*
X58800952Y-114371428D01*
X58420000Y-114752380D02*
X58420000Y-113990476D01*
X52959047Y-114371428D02*
X53720952Y-114371428D01*
X45597787Y-114431428D02*
X46359692Y-114431428D01*
X42598047Y-114431428D02*
X43359952Y-114431428D01*
X42979000Y-114812380D02*
X42979000Y-114050476D01*
%TO.C,U1*%
X105918095Y-98722380D02*
X105918095Y-99531904D01*
X105965714Y-99627142D01*
X106013333Y-99674761D01*
X106108571Y-99722380D01*
X106299047Y-99722380D01*
X106394285Y-99674761D01*
X106441904Y-99627142D01*
X106489523Y-99531904D01*
X106489523Y-98722380D01*
X107489523Y-99722380D02*
X106918095Y-99722380D01*
X107203809Y-99722380D02*
X107203809Y-98722380D01*
X107108571Y-98865238D01*
X107013333Y-98960476D01*
X106918095Y-99008095D01*
%TO.C,P4*%
X34742380Y-33758095D02*
X33742380Y-33758095D01*
X33742380Y-33377142D01*
X33790000Y-33281904D01*
X33837619Y-33234285D01*
X33932857Y-33186666D01*
X34075714Y-33186666D01*
X34170952Y-33234285D01*
X34218571Y-33281904D01*
X34266190Y-33377142D01*
X34266190Y-33758095D01*
X34075714Y-32329523D02*
X34742380Y-32329523D01*
X33694761Y-32567619D02*
X34409047Y-32805714D01*
X34409047Y-32186666D01*
%TO.C,C34*%
X33627142Y-56917142D02*
X33579523Y-56964761D01*
X33436666Y-57012380D01*
X33341428Y-57012380D01*
X33198571Y-56964761D01*
X33103333Y-56869523D01*
X33055714Y-56774285D01*
X33008095Y-56583809D01*
X33008095Y-56440952D01*
X33055714Y-56250476D01*
X33103333Y-56155238D01*
X33198571Y-56060000D01*
X33341428Y-56012380D01*
X33436666Y-56012380D01*
X33579523Y-56060000D01*
X33627142Y-56107619D01*
X33960476Y-56012380D02*
X34579523Y-56012380D01*
X34246190Y-56393333D01*
X34389047Y-56393333D01*
X34484285Y-56440952D01*
X34531904Y-56488571D01*
X34579523Y-56583809D01*
X34579523Y-56821904D01*
X34531904Y-56917142D01*
X34484285Y-56964761D01*
X34389047Y-57012380D01*
X34103333Y-57012380D01*
X34008095Y-56964761D01*
X33960476Y-56917142D01*
X35436666Y-56345714D02*
X35436666Y-57012380D01*
X35198571Y-55964761D02*
X34960476Y-56679047D01*
X35579523Y-56679047D01*
%TO.C,U3*%
X105918095Y-110152380D02*
X105918095Y-110961904D01*
X105965714Y-111057142D01*
X106013333Y-111104761D01*
X106108571Y-111152380D01*
X106299047Y-111152380D01*
X106394285Y-111104761D01*
X106441904Y-111057142D01*
X106489523Y-110961904D01*
X106489523Y-110152380D01*
X106870476Y-110152380D02*
X107489523Y-110152380D01*
X107156190Y-110533333D01*
X107299047Y-110533333D01*
X107394285Y-110580952D01*
X107441904Y-110628571D01*
X107489523Y-110723809D01*
X107489523Y-110961904D01*
X107441904Y-111057142D01*
X107394285Y-111104761D01*
X107299047Y-111152380D01*
X107013333Y-111152380D01*
X106918095Y-111104761D01*
X106870476Y-111057142D01*
%TO.C,U6*%
X88138095Y-41362380D02*
X88138095Y-42171904D01*
X88185714Y-42267142D01*
X88233333Y-42314761D01*
X88328571Y-42362380D01*
X88519047Y-42362380D01*
X88614285Y-42314761D01*
X88661904Y-42267142D01*
X88709523Y-42171904D01*
X88709523Y-41362380D01*
X89614285Y-41362380D02*
X89423809Y-41362380D01*
X89328571Y-41410000D01*
X89280952Y-41457619D01*
X89185714Y-41600476D01*
X89138095Y-41790952D01*
X89138095Y-42171904D01*
X89185714Y-42267142D01*
X89233333Y-42314761D01*
X89328571Y-42362380D01*
X89519047Y-42362380D01*
X89614285Y-42314761D01*
X89661904Y-42267142D01*
X89709523Y-42171904D01*
X89709523Y-41933809D01*
X89661904Y-41838571D01*
X89614285Y-41790952D01*
X89519047Y-41743333D01*
X89328571Y-41743333D01*
X89233333Y-41790952D01*
X89185714Y-41838571D01*
X89138095Y-41933809D01*
%TO.C,U8*%
D17*
X65205428Y-54210857D02*
X66439142Y-54210857D01*
X66584285Y-54156428D01*
X66656857Y-54102000D01*
X66729428Y-53993142D01*
X66729428Y-53775428D01*
X66656857Y-53666571D01*
X66584285Y-53612142D01*
X66439142Y-53557714D01*
X65205428Y-53557714D01*
X65858571Y-52850142D02*
X65786000Y-52959000D01*
X65713428Y-53013428D01*
X65568285Y-53067857D01*
X65495714Y-53067857D01*
X65350571Y-53013428D01*
X65278000Y-52959000D01*
X65205428Y-52850142D01*
X65205428Y-52632428D01*
X65278000Y-52523571D01*
X65350571Y-52469142D01*
X65495714Y-52414714D01*
X65568285Y-52414714D01*
X65713428Y-52469142D01*
X65786000Y-52523571D01*
X65858571Y-52632428D01*
X65858571Y-52850142D01*
X65931142Y-52959000D01*
X66003714Y-53013428D01*
X66148857Y-53067857D01*
X66439142Y-53067857D01*
X66584285Y-53013428D01*
X66656857Y-52959000D01*
X66729428Y-52850142D01*
X66729428Y-52632428D01*
X66656857Y-52523571D01*
X66584285Y-52469142D01*
X66439142Y-52414714D01*
X66148857Y-52414714D01*
X66003714Y-52469142D01*
X65931142Y-52523571D01*
X65858571Y-52632428D01*
X69269428Y-62121142D02*
X67745428Y-62121142D01*
X68834000Y-61740142D01*
X67745428Y-61359142D01*
X69269428Y-61359142D01*
X69124285Y-60161714D02*
X69196857Y-60216142D01*
X69269428Y-60379428D01*
X69269428Y-60488285D01*
X69196857Y-60651571D01*
X69051714Y-60760428D01*
X68906571Y-60814857D01*
X68616285Y-60869285D01*
X68398571Y-60869285D01*
X68108285Y-60814857D01*
X67963142Y-60760428D01*
X67818000Y-60651571D01*
X67745428Y-60488285D01*
X67745428Y-60379428D01*
X67818000Y-60216142D01*
X67890571Y-60161714D01*
X69269428Y-59671857D02*
X67745428Y-59671857D01*
X67745428Y-59236428D01*
X67818000Y-59127571D01*
X67890571Y-59073142D01*
X68035714Y-59018714D01*
X68253428Y-59018714D01*
X68398571Y-59073142D01*
X68471142Y-59127571D01*
X68543714Y-59236428D01*
X68543714Y-59671857D01*
X69269428Y-57930142D02*
X69269428Y-58583285D01*
X69269428Y-58256714D02*
X67745428Y-58256714D01*
X67963142Y-58365571D01*
X68108285Y-58474428D01*
X68180857Y-58583285D01*
X67745428Y-56896000D02*
X67745428Y-57440285D01*
X68471142Y-57494714D01*
X68398571Y-57440285D01*
X68326000Y-57331428D01*
X68326000Y-57059285D01*
X68398571Y-56950428D01*
X68471142Y-56896000D01*
X68616285Y-56841571D01*
X68979142Y-56841571D01*
X69124285Y-56896000D01*
X69196857Y-56950428D01*
X69269428Y-57059285D01*
X69269428Y-57331428D01*
X69196857Y-57440285D01*
X69124285Y-57494714D01*
X67890571Y-56406142D02*
X67818000Y-56351714D01*
X67745428Y-56242857D01*
X67745428Y-55970714D01*
X67818000Y-55861857D01*
X67890571Y-55807428D01*
X68035714Y-55753000D01*
X68180857Y-55753000D01*
X68398571Y-55807428D01*
X69269428Y-56460571D01*
X69269428Y-55753000D01*
X67745428Y-54718857D02*
X67745428Y-55263142D01*
X68471142Y-55317571D01*
X68398571Y-55263142D01*
X68326000Y-55154285D01*
X68326000Y-54882142D01*
X68398571Y-54773285D01*
X68471142Y-54718857D01*
X68616285Y-54664428D01*
X68979142Y-54664428D01*
X69124285Y-54718857D01*
X69196857Y-54773285D01*
X69269428Y-54882142D01*
X69269428Y-55154285D01*
X69196857Y-55263142D01*
X69124285Y-55317571D01*
%TO.C,U4*%
X65205428Y-117710857D02*
X66439142Y-117710857D01*
X66584285Y-117656428D01*
X66656857Y-117602000D01*
X66729428Y-117493142D01*
X66729428Y-117275428D01*
X66656857Y-117166571D01*
X66584285Y-117112142D01*
X66439142Y-117057714D01*
X65205428Y-117057714D01*
X65713428Y-116023571D02*
X66729428Y-116023571D01*
X65132857Y-116295714D02*
X66221428Y-116567857D01*
X66221428Y-115860285D01*
X69269428Y-125621142D02*
X67745428Y-125621142D01*
X68834000Y-125240142D01*
X67745428Y-124859142D01*
X69269428Y-124859142D01*
X69124285Y-123661714D02*
X69196857Y-123716142D01*
X69269428Y-123879428D01*
X69269428Y-123988285D01*
X69196857Y-124151571D01*
X69051714Y-124260428D01*
X68906571Y-124314857D01*
X68616285Y-124369285D01*
X68398571Y-124369285D01*
X68108285Y-124314857D01*
X67963142Y-124260428D01*
X67818000Y-124151571D01*
X67745428Y-123988285D01*
X67745428Y-123879428D01*
X67818000Y-123716142D01*
X67890571Y-123661714D01*
X69269428Y-123171857D02*
X67745428Y-123171857D01*
X67745428Y-122736428D01*
X67818000Y-122627571D01*
X67890571Y-122573142D01*
X68035714Y-122518714D01*
X68253428Y-122518714D01*
X68398571Y-122573142D01*
X68471142Y-122627571D01*
X68543714Y-122736428D01*
X68543714Y-123171857D01*
X69269428Y-121430142D02*
X69269428Y-122083285D01*
X69269428Y-121756714D02*
X67745428Y-121756714D01*
X67963142Y-121865571D01*
X68108285Y-121974428D01*
X68180857Y-122083285D01*
X67745428Y-120396000D02*
X67745428Y-120940285D01*
X68471142Y-120994714D01*
X68398571Y-120940285D01*
X68326000Y-120831428D01*
X68326000Y-120559285D01*
X68398571Y-120450428D01*
X68471142Y-120396000D01*
X68616285Y-120341571D01*
X68979142Y-120341571D01*
X69124285Y-120396000D01*
X69196857Y-120450428D01*
X69269428Y-120559285D01*
X69269428Y-120831428D01*
X69196857Y-120940285D01*
X69124285Y-120994714D01*
X67890571Y-119906142D02*
X67818000Y-119851714D01*
X67745428Y-119742857D01*
X67745428Y-119470714D01*
X67818000Y-119361857D01*
X67890571Y-119307428D01*
X68035714Y-119253000D01*
X68180857Y-119253000D01*
X68398571Y-119307428D01*
X69269428Y-119960571D01*
X69269428Y-119253000D01*
X67745428Y-118218857D02*
X67745428Y-118763142D01*
X68471142Y-118817571D01*
X68398571Y-118763142D01*
X68326000Y-118654285D01*
X68326000Y-118382142D01*
X68398571Y-118273285D01*
X68471142Y-118218857D01*
X68616285Y-118164428D01*
X68979142Y-118164428D01*
X69124285Y-118218857D01*
X69196857Y-118273285D01*
X69269428Y-118382142D01*
X69269428Y-118654285D01*
X69196857Y-118763142D01*
X69124285Y-118817571D01*
%TO.C,R9*%
D10*
X206700380Y-115736666D02*
X206224190Y-116070000D01*
X206700380Y-116308095D02*
X205700380Y-116308095D01*
X205700380Y-115927142D01*
X205748000Y-115831904D01*
X205795619Y-115784285D01*
X205890857Y-115736666D01*
X206033714Y-115736666D01*
X206128952Y-115784285D01*
X206176571Y-115831904D01*
X206224190Y-115927142D01*
X206224190Y-116308095D01*
X206700380Y-115260476D02*
X206700380Y-115070000D01*
X206652761Y-114974761D01*
X206605142Y-114927142D01*
X206462285Y-114831904D01*
X206271809Y-114784285D01*
X205890857Y-114784285D01*
X205795619Y-114831904D01*
X205748000Y-114879523D01*
X205700380Y-114974761D01*
X205700380Y-115165238D01*
X205748000Y-115260476D01*
X205795619Y-115308095D01*
X205890857Y-115355714D01*
X206128952Y-115355714D01*
X206224190Y-115308095D01*
X206271809Y-115260476D01*
X206319428Y-115165238D01*
X206319428Y-114974761D01*
X206271809Y-114879523D01*
X206224190Y-114831904D01*
X206128952Y-114784285D01*
%TO.C,R7*%
X85542380Y-26836666D02*
X85066190Y-27170000D01*
X85542380Y-27408095D02*
X84542380Y-27408095D01*
X84542380Y-27027142D01*
X84590000Y-26931904D01*
X84637619Y-26884285D01*
X84732857Y-26836666D01*
X84875714Y-26836666D01*
X84970952Y-26884285D01*
X85018571Y-26931904D01*
X85066190Y-27027142D01*
X85066190Y-27408095D01*
X84542380Y-26503333D02*
X84542380Y-25836666D01*
X85542380Y-26265238D01*
%TO.C,R6*%
X88733333Y-51252380D02*
X88400000Y-50776190D01*
X88161904Y-51252380D02*
X88161904Y-50252380D01*
X88542857Y-50252380D01*
X88638095Y-50300000D01*
X88685714Y-50347619D01*
X88733333Y-50442857D01*
X88733333Y-50585714D01*
X88685714Y-50680952D01*
X88638095Y-50728571D01*
X88542857Y-50776190D01*
X88161904Y-50776190D01*
X89590476Y-50252380D02*
X89400000Y-50252380D01*
X89304761Y-50300000D01*
X89257142Y-50347619D01*
X89161904Y-50490476D01*
X89114285Y-50680952D01*
X89114285Y-51061904D01*
X89161904Y-51157142D01*
X89209523Y-51204761D01*
X89304761Y-51252380D01*
X89495238Y-51252380D01*
X89590476Y-51204761D01*
X89638095Y-51157142D01*
X89685714Y-51061904D01*
X89685714Y-50823809D01*
X89638095Y-50728571D01*
X89590476Y-50680952D01*
X89495238Y-50633333D01*
X89304761Y-50633333D01*
X89209523Y-50680952D01*
X89161904Y-50728571D01*
X89114285Y-50823809D01*
%TO.C,R5*%
X206700380Y-76366666D02*
X206224190Y-76700000D01*
X206700380Y-76938095D02*
X205700380Y-76938095D01*
X205700380Y-76557142D01*
X205748000Y-76461904D01*
X205795619Y-76414285D01*
X205890857Y-76366666D01*
X206033714Y-76366666D01*
X206128952Y-76414285D01*
X206176571Y-76461904D01*
X206224190Y-76557142D01*
X206224190Y-76938095D01*
X205700380Y-75461904D02*
X205700380Y-75938095D01*
X206176571Y-75985714D01*
X206128952Y-75938095D01*
X206081333Y-75842857D01*
X206081333Y-75604761D01*
X206128952Y-75509523D01*
X206176571Y-75461904D01*
X206271809Y-75414285D01*
X206509904Y-75414285D01*
X206605142Y-75461904D01*
X206652761Y-75509523D01*
X206700380Y-75604761D01*
X206700380Y-75842857D01*
X206652761Y-75938095D01*
X206605142Y-75985714D01*
%TO.C,R3*%
X85542380Y-90336666D02*
X85066190Y-90670000D01*
X85542380Y-90908095D02*
X84542380Y-90908095D01*
X84542380Y-90527142D01*
X84590000Y-90431904D01*
X84637619Y-90384285D01*
X84732857Y-90336666D01*
X84875714Y-90336666D01*
X84970952Y-90384285D01*
X85018571Y-90431904D01*
X85066190Y-90527142D01*
X85066190Y-90908095D01*
X84542380Y-90003333D02*
X84542380Y-89384285D01*
X84923333Y-89717619D01*
X84923333Y-89574761D01*
X84970952Y-89479523D01*
X85018571Y-89431904D01*
X85113809Y-89384285D01*
X85351904Y-89384285D01*
X85447142Y-89431904D01*
X85494761Y-89479523D01*
X85542380Y-89574761D01*
X85542380Y-89860476D01*
X85494761Y-89955714D01*
X85447142Y-90003333D01*
%TO.C,R2*%
X88733333Y-114752380D02*
X88400000Y-114276190D01*
X88161904Y-114752380D02*
X88161904Y-113752380D01*
X88542857Y-113752380D01*
X88638095Y-113800000D01*
X88685714Y-113847619D01*
X88733333Y-113942857D01*
X88733333Y-114085714D01*
X88685714Y-114180952D01*
X88638095Y-114228571D01*
X88542857Y-114276190D01*
X88161904Y-114276190D01*
X89114285Y-113847619D02*
X89161904Y-113800000D01*
X89257142Y-113752380D01*
X89495238Y-113752380D01*
X89590476Y-113800000D01*
X89638095Y-113847619D01*
X89685714Y-113942857D01*
X89685714Y-114038095D01*
X89638095Y-114180952D01*
X89066666Y-114752380D01*
X89685714Y-114752380D01*
%TO.C,R1*%
X206700380Y-36996666D02*
X206224190Y-37330000D01*
X206700380Y-37568095D02*
X205700380Y-37568095D01*
X205700380Y-37187142D01*
X205748000Y-37091904D01*
X205795619Y-37044285D01*
X205890857Y-36996666D01*
X206033714Y-36996666D01*
X206128952Y-37044285D01*
X206176571Y-37091904D01*
X206224190Y-37187142D01*
X206224190Y-37568095D01*
X206700380Y-36044285D02*
X206700380Y-36615714D01*
X206700380Y-36330000D02*
X205700380Y-36330000D01*
X205843238Y-36425238D01*
X205938476Y-36520476D01*
X205986095Y-36615714D01*
%TO.C,Q5*%
D15*
X165934571Y-111905142D02*
X165862000Y-112050285D01*
X165716857Y-112195428D01*
X165499142Y-112413142D01*
X165426571Y-112558285D01*
X165426571Y-112703428D01*
X165789428Y-112630857D02*
X165716857Y-112776000D01*
X165571714Y-112921142D01*
X165281428Y-112993714D01*
X164773428Y-112993714D01*
X164483142Y-112921142D01*
X164338000Y-112776000D01*
X164265428Y-112630857D01*
X164265428Y-112340571D01*
X164338000Y-112195428D01*
X164483142Y-112050285D01*
X164773428Y-111977714D01*
X165281428Y-111977714D01*
X165571714Y-112050285D01*
X165716857Y-112195428D01*
X165789428Y-112340571D01*
X165789428Y-112630857D01*
X164265428Y-110598857D02*
X164265428Y-111324571D01*
X164991142Y-111397142D01*
X164918571Y-111324571D01*
X164846000Y-111179428D01*
X164846000Y-110816571D01*
X164918571Y-110671428D01*
X164991142Y-110598857D01*
X165136285Y-110526285D01*
X165499142Y-110526285D01*
X165644285Y-110598857D01*
X165716857Y-110671428D01*
X165789428Y-110816571D01*
X165789428Y-111179428D01*
X165716857Y-111324571D01*
X165644285Y-111397142D01*
D18*
X170382534Y-109489965D02*
X170406362Y-109418482D01*
X170406362Y-109299344D01*
X170382534Y-109251689D01*
X170358707Y-109227861D01*
X170311051Y-109204034D01*
X170263396Y-109204034D01*
X170215741Y-109227861D01*
X170191913Y-109251689D01*
X170168086Y-109299344D01*
X170144258Y-109394655D01*
X170120430Y-109442310D01*
X170096603Y-109466138D01*
X170048948Y-109489965D01*
X170001292Y-109489965D01*
X169953637Y-109466138D01*
X169929810Y-109442310D01*
X169905982Y-109394655D01*
X169905982Y-109275517D01*
X169929810Y-109204034D01*
X170406362Y-106938051D02*
X169905982Y-106938051D01*
X169905982Y-106818913D01*
X169929810Y-106747430D01*
X169977465Y-106699775D01*
X170025120Y-106675948D01*
X170120430Y-106652120D01*
X170191913Y-106652120D01*
X170287224Y-106675948D01*
X170334879Y-106699775D01*
X170382534Y-106747430D01*
X170406362Y-106818913D01*
X170406362Y-106938051D01*
X169929810Y-104008948D02*
X169905982Y-104056603D01*
X169905982Y-104128086D01*
X169929810Y-104199569D01*
X169977465Y-104247224D01*
X170025120Y-104271051D01*
X170120430Y-104294879D01*
X170191913Y-104294879D01*
X170287224Y-104271051D01*
X170334879Y-104247224D01*
X170382534Y-104199569D01*
X170406362Y-104128086D01*
X170406362Y-104080430D01*
X170382534Y-104008948D01*
X170358707Y-103985120D01*
X170191913Y-103985120D01*
X170191913Y-104080430D01*
%TO.C,Q2*%
D15*
X165934571Y-48659142D02*
X165862000Y-48804285D01*
X165716857Y-48949428D01*
X165499142Y-49167142D01*
X165426571Y-49312285D01*
X165426571Y-49457428D01*
X165789428Y-49384857D02*
X165716857Y-49530000D01*
X165571714Y-49675142D01*
X165281428Y-49747714D01*
X164773428Y-49747714D01*
X164483142Y-49675142D01*
X164338000Y-49530000D01*
X164265428Y-49384857D01*
X164265428Y-49094571D01*
X164338000Y-48949428D01*
X164483142Y-48804285D01*
X164773428Y-48731714D01*
X165281428Y-48731714D01*
X165571714Y-48804285D01*
X165716857Y-48949428D01*
X165789428Y-49094571D01*
X165789428Y-49384857D01*
X164410571Y-48151142D02*
X164338000Y-48078571D01*
X164265428Y-47933428D01*
X164265428Y-47570571D01*
X164338000Y-47425428D01*
X164410571Y-47352857D01*
X164555714Y-47280285D01*
X164700857Y-47280285D01*
X164918571Y-47352857D01*
X165789428Y-48223714D01*
X165789428Y-47280285D01*
D18*
X170382534Y-45989965D02*
X170406362Y-45918482D01*
X170406362Y-45799344D01*
X170382534Y-45751689D01*
X170358707Y-45727861D01*
X170311051Y-45704034D01*
X170263396Y-45704034D01*
X170215741Y-45727861D01*
X170191913Y-45751689D01*
X170168086Y-45799344D01*
X170144258Y-45894655D01*
X170120430Y-45942310D01*
X170096603Y-45966138D01*
X170048948Y-45989965D01*
X170001292Y-45989965D01*
X169953637Y-45966138D01*
X169929810Y-45942310D01*
X169905982Y-45894655D01*
X169905982Y-45775517D01*
X169929810Y-45704034D01*
X170406362Y-43438051D02*
X169905982Y-43438051D01*
X169905982Y-43318913D01*
X169929810Y-43247430D01*
X169977465Y-43199775D01*
X170025120Y-43175948D01*
X170120430Y-43152120D01*
X170191913Y-43152120D01*
X170287224Y-43175948D01*
X170334879Y-43199775D01*
X170382534Y-43247430D01*
X170406362Y-43318913D01*
X170406362Y-43438051D01*
X169929810Y-40508948D02*
X169905982Y-40556603D01*
X169905982Y-40628086D01*
X169929810Y-40699569D01*
X169977465Y-40747224D01*
X170025120Y-40771051D01*
X170120430Y-40794879D01*
X170191913Y-40794879D01*
X170287224Y-40771051D01*
X170334879Y-40747224D01*
X170382534Y-40699569D01*
X170406362Y-40628086D01*
X170406362Y-40580430D01*
X170382534Y-40508948D01*
X170358707Y-40485120D01*
X170191913Y-40485120D01*
X170191913Y-40580430D01*
%TO.C,P3*%
D10*
X41161744Y-44902380D02*
X41161744Y-43902380D01*
X41542697Y-43902380D01*
X41637935Y-43950000D01*
X41685554Y-43997619D01*
X41733173Y-44092857D01*
X41733173Y-44235714D01*
X41685554Y-44330952D01*
X41637935Y-44378571D01*
X41542697Y-44426190D01*
X41161744Y-44426190D01*
X42066506Y-43902380D02*
X42685554Y-43902380D01*
X42352220Y-44283333D01*
X42495078Y-44283333D01*
X42590316Y-44330952D01*
X42637935Y-44378571D01*
X42685554Y-44473809D01*
X42685554Y-44711904D01*
X42637935Y-44807142D01*
X42590316Y-44854761D01*
X42495078Y-44902380D01*
X42209363Y-44902380D01*
X42114125Y-44854761D01*
X42066506Y-44807142D01*
X51806030Y-51522380D02*
X52139363Y-52522380D01*
X52472697Y-51522380D01*
X52948887Y-52522380D02*
X52853649Y-52474761D01*
X52806030Y-52427142D01*
X52758411Y-52331904D01*
X52758411Y-52046190D01*
X52806030Y-51950952D01*
X52853649Y-51903333D01*
X52948887Y-51855714D01*
X53091744Y-51855714D01*
X53186982Y-51903333D01*
X53234601Y-51950952D01*
X53282220Y-52046190D01*
X53282220Y-52331904D01*
X53234601Y-52427142D01*
X53186982Y-52474761D01*
X53091744Y-52522380D01*
X52948887Y-52522380D01*
X54139363Y-51855714D02*
X54139363Y-52522380D01*
X53710792Y-51855714D02*
X53710792Y-52379523D01*
X53758411Y-52474761D01*
X53853649Y-52522380D01*
X53996506Y-52522380D01*
X54091744Y-52474761D01*
X54139363Y-52427142D01*
X54472697Y-51855714D02*
X54853649Y-51855714D01*
X54615554Y-51522380D02*
X54615554Y-52379523D01*
X54663173Y-52474761D01*
X54758411Y-52522380D01*
X54853649Y-52522380D01*
X41855554Y-48512380D02*
X41284125Y-48512380D01*
X41569840Y-48512380D02*
X41569840Y-47512380D01*
X41474601Y-47655238D01*
X41379363Y-47750476D01*
X41284125Y-47798095D01*
X56886030Y-51522380D02*
X57219363Y-52522380D01*
X57552697Y-51522380D01*
X58028887Y-52522380D02*
X57933649Y-52474761D01*
X57886030Y-52427142D01*
X57838411Y-52331904D01*
X57838411Y-52046190D01*
X57886030Y-51950952D01*
X57933649Y-51903333D01*
X58028887Y-51855714D01*
X58171744Y-51855714D01*
X58266982Y-51903333D01*
X58314601Y-51950952D01*
X58362220Y-52046190D01*
X58362220Y-52331904D01*
X58314601Y-52427142D01*
X58266982Y-52474761D01*
X58171744Y-52522380D01*
X58028887Y-52522380D01*
X59219363Y-51855714D02*
X59219363Y-52522380D01*
X58790792Y-51855714D02*
X58790792Y-52379523D01*
X58838411Y-52474761D01*
X58933649Y-52522380D01*
X59076506Y-52522380D01*
X59171744Y-52474761D01*
X59219363Y-52427142D01*
X59552697Y-51855714D02*
X59933649Y-51855714D01*
X59695554Y-51522380D02*
X59695554Y-52379523D01*
X59743173Y-52474761D01*
X59838411Y-52522380D01*
X59933649Y-52522380D01*
X43646830Y-52062440D02*
X43980163Y-53062440D01*
X44313497Y-52062440D01*
X44646830Y-53062440D02*
X44646830Y-52395774D01*
X44646830Y-52062440D02*
X44599211Y-52110060D01*
X44646830Y-52157679D01*
X44694449Y-52110060D01*
X44646830Y-52062440D01*
X44646830Y-52157679D01*
X45123020Y-52395774D02*
X45123020Y-53062440D01*
X45123020Y-52491012D02*
X45170640Y-52443393D01*
X45265878Y-52395774D01*
X45408735Y-52395774D01*
X45503973Y-52443393D01*
X45551592Y-52538631D01*
X45551592Y-53062440D01*
X56226982Y-52879523D02*
X56274601Y-52927142D01*
X56322220Y-53070000D01*
X56322220Y-53165238D01*
X56274601Y-53308095D01*
X56179363Y-53403333D01*
X56084125Y-53450952D01*
X55893649Y-53498571D01*
X55750792Y-53498571D01*
X55560316Y-53450952D01*
X55465078Y-53403333D01*
X55369840Y-53308095D01*
X55322220Y-53165238D01*
X55322220Y-53070000D01*
X55369840Y-52927142D01*
X55417459Y-52879523D01*
X56322220Y-52308095D02*
X56274601Y-52403333D01*
X56226982Y-52450952D01*
X56131744Y-52498571D01*
X55846030Y-52498571D01*
X55750792Y-52450952D01*
X55703173Y-52403333D01*
X55655554Y-52308095D01*
X55655554Y-52165238D01*
X55703173Y-52070000D01*
X55750792Y-52022380D01*
X55846030Y-51974761D01*
X56131744Y-51974761D01*
X56226982Y-52022380D01*
X56274601Y-52070000D01*
X56322220Y-52165238D01*
X56322220Y-52308095D01*
X56322220Y-51546190D02*
X55655554Y-51546190D01*
X55750792Y-51546190D02*
X55703173Y-51498571D01*
X55655554Y-51403333D01*
X55655554Y-51260476D01*
X55703173Y-51165238D01*
X55798411Y-51117619D01*
X56322220Y-51117619D01*
X55798411Y-51117619D02*
X55703173Y-51070000D01*
X55655554Y-50974761D01*
X55655554Y-50831904D01*
X55703173Y-50736666D01*
X55798411Y-50689047D01*
X56322220Y-50689047D01*
X58028887Y-50871428D02*
X58790792Y-50871428D01*
X58409840Y-51252380D02*
X58409840Y-50490476D01*
X52948887Y-50871428D02*
X53710792Y-50871428D01*
X45587627Y-50931428D02*
X46349532Y-50931428D01*
X42587887Y-50931428D02*
X43349792Y-50931428D01*
X42968840Y-51312380D02*
X42968840Y-50550476D01*
%TO.C,P2*%
X34742380Y-97258095D02*
X33742380Y-97258095D01*
X33742380Y-96877142D01*
X33790000Y-96781904D01*
X33837619Y-96734285D01*
X33932857Y-96686666D01*
X34075714Y-96686666D01*
X34170952Y-96734285D01*
X34218571Y-96781904D01*
X34266190Y-96877142D01*
X34266190Y-97258095D01*
X33837619Y-96305714D02*
X33790000Y-96258095D01*
X33742380Y-96162857D01*
X33742380Y-95924761D01*
X33790000Y-95829523D01*
X33837619Y-95781904D01*
X33932857Y-95734285D01*
X34028095Y-95734285D01*
X34170952Y-95781904D01*
X34742380Y-96353333D01*
X34742380Y-95734285D01*
%TO.C,C38*%
X33627142Y-46757142D02*
X33579523Y-46804761D01*
X33436666Y-46852380D01*
X33341428Y-46852380D01*
X33198571Y-46804761D01*
X33103333Y-46709523D01*
X33055714Y-46614285D01*
X33008095Y-46423809D01*
X33008095Y-46280952D01*
X33055714Y-46090476D01*
X33103333Y-45995238D01*
X33198571Y-45900000D01*
X33341428Y-45852380D01*
X33436666Y-45852380D01*
X33579523Y-45900000D01*
X33627142Y-45947619D01*
X33960476Y-45852380D02*
X34579523Y-45852380D01*
X34246190Y-46233333D01*
X34389047Y-46233333D01*
X34484285Y-46280952D01*
X34531904Y-46328571D01*
X34579523Y-46423809D01*
X34579523Y-46661904D01*
X34531904Y-46757142D01*
X34484285Y-46804761D01*
X34389047Y-46852380D01*
X34103333Y-46852380D01*
X34008095Y-46804761D01*
X33960476Y-46757142D01*
X35150952Y-46280952D02*
X35055714Y-46233333D01*
X35008095Y-46185714D01*
X34960476Y-46090476D01*
X34960476Y-46042857D01*
X35008095Y-45947619D01*
X35055714Y-45900000D01*
X35150952Y-45852380D01*
X35341428Y-45852380D01*
X35436666Y-45900000D01*
X35484285Y-45947619D01*
X35531904Y-46042857D01*
X35531904Y-46090476D01*
X35484285Y-46185714D01*
X35436666Y-46233333D01*
X35341428Y-46280952D01*
X35150952Y-46280952D01*
X35055714Y-46328571D01*
X35008095Y-46376190D01*
X34960476Y-46471428D01*
X34960476Y-46661904D01*
X35008095Y-46757142D01*
X35055714Y-46804761D01*
X35150952Y-46852380D01*
X35341428Y-46852380D01*
X35436666Y-46804761D01*
X35484285Y-46757142D01*
X35531904Y-46661904D01*
X35531904Y-46471428D01*
X35484285Y-46376190D01*
X35436666Y-46328571D01*
X35341428Y-46280952D01*
%TO.C,C37*%
X81597142Y-60312857D02*
X81644761Y-60360476D01*
X81692380Y-60503333D01*
X81692380Y-60598571D01*
X81644761Y-60741428D01*
X81549523Y-60836666D01*
X81454285Y-60884285D01*
X81263809Y-60931904D01*
X81120952Y-60931904D01*
X80930476Y-60884285D01*
X80835238Y-60836666D01*
X80740000Y-60741428D01*
X80692380Y-60598571D01*
X80692380Y-60503333D01*
X80740000Y-60360476D01*
X80787619Y-60312857D01*
X80692380Y-59979523D02*
X80692380Y-59360476D01*
X81073333Y-59693809D01*
X81073333Y-59550952D01*
X81120952Y-59455714D01*
X81168571Y-59408095D01*
X81263809Y-59360476D01*
X81501904Y-59360476D01*
X81597142Y-59408095D01*
X81644761Y-59455714D01*
X81692380Y-59550952D01*
X81692380Y-59836666D01*
X81644761Y-59931904D01*
X81597142Y-59979523D01*
X80692380Y-59027142D02*
X80692380Y-58360476D01*
X81692380Y-58789047D01*
%TO.C,C30*%
X79687142Y-39992857D02*
X79734761Y-40040476D01*
X79782380Y-40183333D01*
X79782380Y-40278571D01*
X79734761Y-40421428D01*
X79639523Y-40516666D01*
X79544285Y-40564285D01*
X79353809Y-40611904D01*
X79210952Y-40611904D01*
X79020476Y-40564285D01*
X78925238Y-40516666D01*
X78830000Y-40421428D01*
X78782380Y-40278571D01*
X78782380Y-40183333D01*
X78830000Y-40040476D01*
X78877619Y-39992857D01*
X78782380Y-39659523D02*
X78782380Y-39040476D01*
X79163333Y-39373809D01*
X79163333Y-39230952D01*
X79210952Y-39135714D01*
X79258571Y-39088095D01*
X79353809Y-39040476D01*
X79591904Y-39040476D01*
X79687142Y-39088095D01*
X79734761Y-39135714D01*
X79782380Y-39230952D01*
X79782380Y-39516666D01*
X79734761Y-39611904D01*
X79687142Y-39659523D01*
X78782380Y-38421428D02*
X78782380Y-38326190D01*
X78830000Y-38230952D01*
X78877619Y-38183333D01*
X78972857Y-38135714D01*
X79163333Y-38088095D01*
X79401428Y-38088095D01*
X79591904Y-38135714D01*
X79687142Y-38183333D01*
X79734761Y-38230952D01*
X79782380Y-38326190D01*
X79782380Y-38421428D01*
X79734761Y-38516666D01*
X79687142Y-38564285D01*
X79591904Y-38611904D01*
X79401428Y-38659523D01*
X79163333Y-38659523D01*
X78972857Y-38611904D01*
X78877619Y-38564285D01*
X78830000Y-38516666D01*
X78782380Y-38421428D01*
%TO.C,C27*%
X43787142Y-56917142D02*
X43739523Y-56964761D01*
X43596666Y-57012380D01*
X43501428Y-57012380D01*
X43358571Y-56964761D01*
X43263333Y-56869523D01*
X43215714Y-56774285D01*
X43168095Y-56583809D01*
X43168095Y-56440952D01*
X43215714Y-56250476D01*
X43263333Y-56155238D01*
X43358571Y-56060000D01*
X43501428Y-56012380D01*
X43596666Y-56012380D01*
X43739523Y-56060000D01*
X43787142Y-56107619D01*
X44168095Y-56107619D02*
X44215714Y-56060000D01*
X44310952Y-56012380D01*
X44549047Y-56012380D01*
X44644285Y-56060000D01*
X44691904Y-56107619D01*
X44739523Y-56202857D01*
X44739523Y-56298095D01*
X44691904Y-56440952D01*
X44120476Y-57012380D01*
X44739523Y-57012380D01*
X45072857Y-56012380D02*
X45739523Y-56012380D01*
X45310952Y-57012380D01*
%TO.C,C26*%
X56527142Y-65717142D02*
X56479523Y-65764761D01*
X56336666Y-65812380D01*
X56241428Y-65812380D01*
X56098571Y-65764761D01*
X56003333Y-65669523D01*
X55955714Y-65574285D01*
X55908095Y-65383809D01*
X55908095Y-65240952D01*
X55955714Y-65050476D01*
X56003333Y-64955238D01*
X56098571Y-64860000D01*
X56241428Y-64812380D01*
X56336666Y-64812380D01*
X56479523Y-64860000D01*
X56527142Y-64907619D01*
X56908095Y-64907619D02*
X56955714Y-64860000D01*
X57050952Y-64812380D01*
X57289047Y-64812380D01*
X57384285Y-64860000D01*
X57431904Y-64907619D01*
X57479523Y-65002857D01*
X57479523Y-65098095D01*
X57431904Y-65240952D01*
X56860476Y-65812380D01*
X57479523Y-65812380D01*
X58336666Y-64812380D02*
X58146190Y-64812380D01*
X58050952Y-64860000D01*
X58003333Y-64907619D01*
X57908095Y-65050476D01*
X57860476Y-65240952D01*
X57860476Y-65621904D01*
X57908095Y-65717142D01*
X57955714Y-65764761D01*
X58050952Y-65812380D01*
X58241428Y-65812380D01*
X58336666Y-65764761D01*
X58384285Y-65717142D01*
X58431904Y-65621904D01*
X58431904Y-65383809D01*
X58384285Y-65288571D01*
X58336666Y-65240952D01*
X58241428Y-65193333D01*
X58050952Y-65193333D01*
X57955714Y-65240952D01*
X57908095Y-65288571D01*
X57860476Y-65383809D01*
%TO.C,C22*%
X79687142Y-27292857D02*
X79734761Y-27340476D01*
X79782380Y-27483333D01*
X79782380Y-27578571D01*
X79734761Y-27721428D01*
X79639523Y-27816666D01*
X79544285Y-27864285D01*
X79353809Y-27911904D01*
X79210952Y-27911904D01*
X79020476Y-27864285D01*
X78925238Y-27816666D01*
X78830000Y-27721428D01*
X78782380Y-27578571D01*
X78782380Y-27483333D01*
X78830000Y-27340476D01*
X78877619Y-27292857D01*
X78877619Y-26911904D02*
X78830000Y-26864285D01*
X78782380Y-26769047D01*
X78782380Y-26530952D01*
X78830000Y-26435714D01*
X78877619Y-26388095D01*
X78972857Y-26340476D01*
X79068095Y-26340476D01*
X79210952Y-26388095D01*
X79782380Y-26959523D01*
X79782380Y-26340476D01*
X78877619Y-25959523D02*
X78830000Y-25911904D01*
X78782380Y-25816666D01*
X78782380Y-25578571D01*
X78830000Y-25483333D01*
X78877619Y-25435714D01*
X78972857Y-25388095D01*
X79068095Y-25388095D01*
X79210952Y-25435714D01*
X79782380Y-26007142D01*
X79782380Y-25388095D01*
%TO.C,C19*%
X33627142Y-110257142D02*
X33579523Y-110304761D01*
X33436666Y-110352380D01*
X33341428Y-110352380D01*
X33198571Y-110304761D01*
X33103333Y-110209523D01*
X33055714Y-110114285D01*
X33008095Y-109923809D01*
X33008095Y-109780952D01*
X33055714Y-109590476D01*
X33103333Y-109495238D01*
X33198571Y-109400000D01*
X33341428Y-109352380D01*
X33436666Y-109352380D01*
X33579523Y-109400000D01*
X33627142Y-109447619D01*
X34579523Y-110352380D02*
X34008095Y-110352380D01*
X34293809Y-110352380D02*
X34293809Y-109352380D01*
X34198571Y-109495238D01*
X34103333Y-109590476D01*
X34008095Y-109638095D01*
X35055714Y-110352380D02*
X35246190Y-110352380D01*
X35341428Y-110304761D01*
X35389047Y-110257142D01*
X35484285Y-110114285D01*
X35531904Y-109923809D01*
X35531904Y-109542857D01*
X35484285Y-109447619D01*
X35436666Y-109400000D01*
X35341428Y-109352380D01*
X35150952Y-109352380D01*
X35055714Y-109400000D01*
X35008095Y-109447619D01*
X34960476Y-109542857D01*
X34960476Y-109780952D01*
X35008095Y-109876190D01*
X35055714Y-109923809D01*
X35150952Y-109971428D01*
X35341428Y-109971428D01*
X35436666Y-109923809D01*
X35484285Y-109876190D01*
X35531904Y-109780952D01*
%TO.C,C18*%
X81597142Y-123812857D02*
X81644761Y-123860476D01*
X81692380Y-124003333D01*
X81692380Y-124098571D01*
X81644761Y-124241428D01*
X81549523Y-124336666D01*
X81454285Y-124384285D01*
X81263809Y-124431904D01*
X81120952Y-124431904D01*
X80930476Y-124384285D01*
X80835238Y-124336666D01*
X80740000Y-124241428D01*
X80692380Y-124098571D01*
X80692380Y-124003333D01*
X80740000Y-123860476D01*
X80787619Y-123812857D01*
X81692380Y-122860476D02*
X81692380Y-123431904D01*
X81692380Y-123146190D02*
X80692380Y-123146190D01*
X80835238Y-123241428D01*
X80930476Y-123336666D01*
X80978095Y-123431904D01*
X81120952Y-122289047D02*
X81073333Y-122384285D01*
X81025714Y-122431904D01*
X80930476Y-122479523D01*
X80882857Y-122479523D01*
X80787619Y-122431904D01*
X80740000Y-122384285D01*
X80692380Y-122289047D01*
X80692380Y-122098571D01*
X80740000Y-122003333D01*
X80787619Y-121955714D01*
X80882857Y-121908095D01*
X80930476Y-121908095D01*
X81025714Y-121955714D01*
X81073333Y-122003333D01*
X81120952Y-122098571D01*
X81120952Y-122289047D01*
X81168571Y-122384285D01*
X81216190Y-122431904D01*
X81311428Y-122479523D01*
X81501904Y-122479523D01*
X81597142Y-122431904D01*
X81644761Y-122384285D01*
X81692380Y-122289047D01*
X81692380Y-122098571D01*
X81644761Y-122003333D01*
X81597142Y-121955714D01*
X81501904Y-121908095D01*
X81311428Y-121908095D01*
X81216190Y-121955714D01*
X81168571Y-122003333D01*
X81120952Y-122098571D01*
%TO.C,C15*%
X33627142Y-120417142D02*
X33579523Y-120464761D01*
X33436666Y-120512380D01*
X33341428Y-120512380D01*
X33198571Y-120464761D01*
X33103333Y-120369523D01*
X33055714Y-120274285D01*
X33008095Y-120083809D01*
X33008095Y-119940952D01*
X33055714Y-119750476D01*
X33103333Y-119655238D01*
X33198571Y-119560000D01*
X33341428Y-119512380D01*
X33436666Y-119512380D01*
X33579523Y-119560000D01*
X33627142Y-119607619D01*
X34579523Y-120512380D02*
X34008095Y-120512380D01*
X34293809Y-120512380D02*
X34293809Y-119512380D01*
X34198571Y-119655238D01*
X34103333Y-119750476D01*
X34008095Y-119798095D01*
X35484285Y-119512380D02*
X35008095Y-119512380D01*
X34960476Y-119988571D01*
X35008095Y-119940952D01*
X35103333Y-119893333D01*
X35341428Y-119893333D01*
X35436666Y-119940952D01*
X35484285Y-119988571D01*
X35531904Y-120083809D01*
X35531904Y-120321904D01*
X35484285Y-120417142D01*
X35436666Y-120464761D01*
X35341428Y-120512380D01*
X35103333Y-120512380D01*
X35008095Y-120464761D01*
X34960476Y-120417142D01*
%TO.C,C11*%
X79687142Y-103492857D02*
X79734761Y-103540476D01*
X79782380Y-103683333D01*
X79782380Y-103778571D01*
X79734761Y-103921428D01*
X79639523Y-104016666D01*
X79544285Y-104064285D01*
X79353809Y-104111904D01*
X79210952Y-104111904D01*
X79020476Y-104064285D01*
X78925238Y-104016666D01*
X78830000Y-103921428D01*
X78782380Y-103778571D01*
X78782380Y-103683333D01*
X78830000Y-103540476D01*
X78877619Y-103492857D01*
X79782380Y-102540476D02*
X79782380Y-103111904D01*
X79782380Y-102826190D02*
X78782380Y-102826190D01*
X78925238Y-102921428D01*
X79020476Y-103016666D01*
X79068095Y-103111904D01*
X79782380Y-101588095D02*
X79782380Y-102159523D01*
X79782380Y-101873809D02*
X78782380Y-101873809D01*
X78925238Y-101969047D01*
X79020476Y-102064285D01*
X79068095Y-102159523D01*
%TO.C,C9*%
X44263333Y-120417142D02*
X44215714Y-120464761D01*
X44072857Y-120512380D01*
X43977619Y-120512380D01*
X43834761Y-120464761D01*
X43739523Y-120369523D01*
X43691904Y-120274285D01*
X43644285Y-120083809D01*
X43644285Y-119940952D01*
X43691904Y-119750476D01*
X43739523Y-119655238D01*
X43834761Y-119560000D01*
X43977619Y-119512380D01*
X44072857Y-119512380D01*
X44215714Y-119560000D01*
X44263333Y-119607619D01*
X44739523Y-120512380D02*
X44930000Y-120512380D01*
X45025238Y-120464761D01*
X45072857Y-120417142D01*
X45168095Y-120274285D01*
X45215714Y-120083809D01*
X45215714Y-119702857D01*
X45168095Y-119607619D01*
X45120476Y-119560000D01*
X45025238Y-119512380D01*
X44834761Y-119512380D01*
X44739523Y-119560000D01*
X44691904Y-119607619D01*
X44644285Y-119702857D01*
X44644285Y-119940952D01*
X44691904Y-120036190D01*
X44739523Y-120083809D01*
X44834761Y-120131428D01*
X45025238Y-120131428D01*
X45120476Y-120083809D01*
X45168095Y-120036190D01*
X45215714Y-119940952D01*
%TO.C,C8*%
X57003333Y-129217142D02*
X56955714Y-129264761D01*
X56812857Y-129312380D01*
X56717619Y-129312380D01*
X56574761Y-129264761D01*
X56479523Y-129169523D01*
X56431904Y-129074285D01*
X56384285Y-128883809D01*
X56384285Y-128740952D01*
X56431904Y-128550476D01*
X56479523Y-128455238D01*
X56574761Y-128360000D01*
X56717619Y-128312380D01*
X56812857Y-128312380D01*
X56955714Y-128360000D01*
X57003333Y-128407619D01*
X57574761Y-128740952D02*
X57479523Y-128693333D01*
X57431904Y-128645714D01*
X57384285Y-128550476D01*
X57384285Y-128502857D01*
X57431904Y-128407619D01*
X57479523Y-128360000D01*
X57574761Y-128312380D01*
X57765238Y-128312380D01*
X57860476Y-128360000D01*
X57908095Y-128407619D01*
X57955714Y-128502857D01*
X57955714Y-128550476D01*
X57908095Y-128645714D01*
X57860476Y-128693333D01*
X57765238Y-128740952D01*
X57574761Y-128740952D01*
X57479523Y-128788571D01*
X57431904Y-128836190D01*
X57384285Y-128931428D01*
X57384285Y-129121904D01*
X57431904Y-129217142D01*
X57479523Y-129264761D01*
X57574761Y-129312380D01*
X57765238Y-129312380D01*
X57860476Y-129264761D01*
X57908095Y-129217142D01*
X57955714Y-129121904D01*
X57955714Y-128931428D01*
X57908095Y-128836190D01*
X57860476Y-128788571D01*
X57765238Y-128740952D01*
%TO.C,C3*%
X79687142Y-90316666D02*
X79734761Y-90364285D01*
X79782380Y-90507142D01*
X79782380Y-90602380D01*
X79734761Y-90745238D01*
X79639523Y-90840476D01*
X79544285Y-90888095D01*
X79353809Y-90935714D01*
X79210952Y-90935714D01*
X79020476Y-90888095D01*
X78925238Y-90840476D01*
X78830000Y-90745238D01*
X78782380Y-90602380D01*
X78782380Y-90507142D01*
X78830000Y-90364285D01*
X78877619Y-90316666D01*
X78782380Y-89983333D02*
X78782380Y-89364285D01*
X79163333Y-89697619D01*
X79163333Y-89554761D01*
X79210952Y-89459523D01*
X79258571Y-89411904D01*
X79353809Y-89364285D01*
X79591904Y-89364285D01*
X79687142Y-89411904D01*
X79734761Y-89459523D01*
X79782380Y-89554761D01*
X79782380Y-89840476D01*
X79734761Y-89935714D01*
X79687142Y-89983333D01*
%TO.C,C36*%
X66667142Y-46077142D02*
X66619523Y-46124761D01*
X66476666Y-46172380D01*
X66381428Y-46172380D01*
X66238571Y-46124761D01*
X66143333Y-46029523D01*
X66095714Y-45934285D01*
X66048095Y-45743809D01*
X66048095Y-45600952D01*
X66095714Y-45410476D01*
X66143333Y-45315238D01*
X66238571Y-45220000D01*
X66381428Y-45172380D01*
X66476666Y-45172380D01*
X66619523Y-45220000D01*
X66667142Y-45267619D01*
X67000476Y-45172380D02*
X67619523Y-45172380D01*
X67286190Y-45553333D01*
X67429047Y-45553333D01*
X67524285Y-45600952D01*
X67571904Y-45648571D01*
X67619523Y-45743809D01*
X67619523Y-45981904D01*
X67571904Y-46077142D01*
X67524285Y-46124761D01*
X67429047Y-46172380D01*
X67143333Y-46172380D01*
X67048095Y-46124761D01*
X67000476Y-46077142D01*
X68476666Y-45172380D02*
X68286190Y-45172380D01*
X68190952Y-45220000D01*
X68143333Y-45267619D01*
X68048095Y-45410476D01*
X68000476Y-45600952D01*
X68000476Y-45981904D01*
X68048095Y-46077142D01*
X68095714Y-46124761D01*
X68190952Y-46172380D01*
X68381428Y-46172380D01*
X68476666Y-46124761D01*
X68524285Y-46077142D01*
X68571904Y-45981904D01*
X68571904Y-45743809D01*
X68524285Y-45648571D01*
X68476666Y-45600952D01*
X68381428Y-45553333D01*
X68190952Y-45553333D01*
X68095714Y-45600952D01*
X68048095Y-45648571D01*
X68000476Y-45743809D01*
%TO.C,C35*%
X75247142Y-33682857D02*
X75294761Y-33730476D01*
X75342380Y-33873333D01*
X75342380Y-33968571D01*
X75294761Y-34111428D01*
X75199523Y-34206666D01*
X75104285Y-34254285D01*
X74913809Y-34301904D01*
X74770952Y-34301904D01*
X74580476Y-34254285D01*
X74485238Y-34206666D01*
X74390000Y-34111428D01*
X74342380Y-33968571D01*
X74342380Y-33873333D01*
X74390000Y-33730476D01*
X74437619Y-33682857D01*
X74342380Y-33349523D02*
X74342380Y-32730476D01*
X74723333Y-33063809D01*
X74723333Y-32920952D01*
X74770952Y-32825714D01*
X74818571Y-32778095D01*
X74913809Y-32730476D01*
X75151904Y-32730476D01*
X75247142Y-32778095D01*
X75294761Y-32825714D01*
X75342380Y-32920952D01*
X75342380Y-33206666D01*
X75294761Y-33301904D01*
X75247142Y-33349523D01*
X74342380Y-31825714D02*
X74342380Y-32301904D01*
X74818571Y-32349523D01*
X74770952Y-32301904D01*
X74723333Y-32206666D01*
X74723333Y-31968571D01*
X74770952Y-31873333D01*
X74818571Y-31825714D01*
X74913809Y-31778095D01*
X75151904Y-31778095D01*
X75247142Y-31825714D01*
X75294761Y-31873333D01*
X75342380Y-31968571D01*
X75342380Y-32206666D01*
X75294761Y-32301904D01*
X75247142Y-32349523D01*
%TO.C,C33*%
X105727142Y-64122857D02*
X105774761Y-64170476D01*
X105822380Y-64313333D01*
X105822380Y-64408571D01*
X105774761Y-64551428D01*
X105679523Y-64646666D01*
X105584285Y-64694285D01*
X105393809Y-64741904D01*
X105250952Y-64741904D01*
X105060476Y-64694285D01*
X104965238Y-64646666D01*
X104870000Y-64551428D01*
X104822380Y-64408571D01*
X104822380Y-64313333D01*
X104870000Y-64170476D01*
X104917619Y-64122857D01*
X104822380Y-63789523D02*
X104822380Y-63170476D01*
X105203333Y-63503809D01*
X105203333Y-63360952D01*
X105250952Y-63265714D01*
X105298571Y-63218095D01*
X105393809Y-63170476D01*
X105631904Y-63170476D01*
X105727142Y-63218095D01*
X105774761Y-63265714D01*
X105822380Y-63360952D01*
X105822380Y-63646666D01*
X105774761Y-63741904D01*
X105727142Y-63789523D01*
X104822380Y-62837142D02*
X104822380Y-62218095D01*
X105203333Y-62551428D01*
X105203333Y-62408571D01*
X105250952Y-62313333D01*
X105298571Y-62265714D01*
X105393809Y-62218095D01*
X105631904Y-62218095D01*
X105727142Y-62265714D01*
X105774761Y-62313333D01*
X105822380Y-62408571D01*
X105822380Y-62694285D01*
X105774761Y-62789523D01*
X105727142Y-62837142D01*
%TO.C,C32*%
X100647142Y-64122857D02*
X100694761Y-64170476D01*
X100742380Y-64313333D01*
X100742380Y-64408571D01*
X100694761Y-64551428D01*
X100599523Y-64646666D01*
X100504285Y-64694285D01*
X100313809Y-64741904D01*
X100170952Y-64741904D01*
X99980476Y-64694285D01*
X99885238Y-64646666D01*
X99790000Y-64551428D01*
X99742380Y-64408571D01*
X99742380Y-64313333D01*
X99790000Y-64170476D01*
X99837619Y-64122857D01*
X99742380Y-63789523D02*
X99742380Y-63170476D01*
X100123333Y-63503809D01*
X100123333Y-63360952D01*
X100170952Y-63265714D01*
X100218571Y-63218095D01*
X100313809Y-63170476D01*
X100551904Y-63170476D01*
X100647142Y-63218095D01*
X100694761Y-63265714D01*
X100742380Y-63360952D01*
X100742380Y-63646666D01*
X100694761Y-63741904D01*
X100647142Y-63789523D01*
X99837619Y-62789523D02*
X99790000Y-62741904D01*
X99742380Y-62646666D01*
X99742380Y-62408571D01*
X99790000Y-62313333D01*
X99837619Y-62265714D01*
X99932857Y-62218095D01*
X100028095Y-62218095D01*
X100170952Y-62265714D01*
X100742380Y-62837142D01*
X100742380Y-62218095D01*
%TO.C,C31*%
X110807142Y-64162857D02*
X110854761Y-64210476D01*
X110902380Y-64353333D01*
X110902380Y-64448571D01*
X110854761Y-64591428D01*
X110759523Y-64686666D01*
X110664285Y-64734285D01*
X110473809Y-64781904D01*
X110330952Y-64781904D01*
X110140476Y-64734285D01*
X110045238Y-64686666D01*
X109950000Y-64591428D01*
X109902380Y-64448571D01*
X109902380Y-64353333D01*
X109950000Y-64210476D01*
X109997619Y-64162857D01*
X109902380Y-63829523D02*
X109902380Y-63210476D01*
X110283333Y-63543809D01*
X110283333Y-63400952D01*
X110330952Y-63305714D01*
X110378571Y-63258095D01*
X110473809Y-63210476D01*
X110711904Y-63210476D01*
X110807142Y-63258095D01*
X110854761Y-63305714D01*
X110902380Y-63400952D01*
X110902380Y-63686666D01*
X110854761Y-63781904D01*
X110807142Y-63829523D01*
X110902380Y-62258095D02*
X110902380Y-62829523D01*
X110902380Y-62543809D02*
X109902380Y-62543809D01*
X110045238Y-62639047D01*
X110140476Y-62734285D01*
X110188095Y-62829523D01*
%TO.C,C29*%
X232917142Y-108747142D02*
X232869523Y-108794761D01*
X232726666Y-108842380D01*
X232631428Y-108842380D01*
X232488571Y-108794761D01*
X232393333Y-108699523D01*
X232345714Y-108604285D01*
X232298095Y-108413809D01*
X232298095Y-108270952D01*
X232345714Y-108080476D01*
X232393333Y-107985238D01*
X232488571Y-107890000D01*
X232631428Y-107842380D01*
X232726666Y-107842380D01*
X232869523Y-107890000D01*
X232917142Y-107937619D01*
X233298095Y-107937619D02*
X233345714Y-107890000D01*
X233440952Y-107842380D01*
X233679047Y-107842380D01*
X233774285Y-107890000D01*
X233821904Y-107937619D01*
X233869523Y-108032857D01*
X233869523Y-108128095D01*
X233821904Y-108270952D01*
X233250476Y-108842380D01*
X233869523Y-108842380D01*
X234345714Y-108842380D02*
X234536190Y-108842380D01*
X234631428Y-108794761D01*
X234679047Y-108747142D01*
X234774285Y-108604285D01*
X234821904Y-108413809D01*
X234821904Y-108032857D01*
X234774285Y-107937619D01*
X234726666Y-107890000D01*
X234631428Y-107842380D01*
X234440952Y-107842380D01*
X234345714Y-107890000D01*
X234298095Y-107937619D01*
X234250476Y-108032857D01*
X234250476Y-108270952D01*
X234298095Y-108366190D01*
X234345714Y-108413809D01*
X234440952Y-108461428D01*
X234631428Y-108461428D01*
X234726666Y-108413809D01*
X234774285Y-108366190D01*
X234821904Y-108270952D01*
%TO.C,C28*%
X103187142Y-32372857D02*
X103234761Y-32420476D01*
X103282380Y-32563333D01*
X103282380Y-32658571D01*
X103234761Y-32801428D01*
X103139523Y-32896666D01*
X103044285Y-32944285D01*
X102853809Y-32991904D01*
X102710952Y-32991904D01*
X102520476Y-32944285D01*
X102425238Y-32896666D01*
X102330000Y-32801428D01*
X102282380Y-32658571D01*
X102282380Y-32563333D01*
X102330000Y-32420476D01*
X102377619Y-32372857D01*
X102377619Y-31991904D02*
X102330000Y-31944285D01*
X102282380Y-31849047D01*
X102282380Y-31610952D01*
X102330000Y-31515714D01*
X102377619Y-31468095D01*
X102472857Y-31420476D01*
X102568095Y-31420476D01*
X102710952Y-31468095D01*
X103282380Y-32039523D01*
X103282380Y-31420476D01*
X102710952Y-30849047D02*
X102663333Y-30944285D01*
X102615714Y-30991904D01*
X102520476Y-31039523D01*
X102472857Y-31039523D01*
X102377619Y-30991904D01*
X102330000Y-30944285D01*
X102282380Y-30849047D01*
X102282380Y-30658571D01*
X102330000Y-30563333D01*
X102377619Y-30515714D01*
X102472857Y-30468095D01*
X102520476Y-30468095D01*
X102615714Y-30515714D01*
X102663333Y-30563333D01*
X102710952Y-30658571D01*
X102710952Y-30849047D01*
X102758571Y-30944285D01*
X102806190Y-30991904D01*
X102901428Y-31039523D01*
X103091904Y-31039523D01*
X103187142Y-30991904D01*
X103234761Y-30944285D01*
X103282380Y-30849047D01*
X103282380Y-30658571D01*
X103234761Y-30563333D01*
X103187142Y-30515714D01*
X103091904Y-30468095D01*
X102901428Y-30468095D01*
X102806190Y-30515714D01*
X102758571Y-30563333D01*
X102710952Y-30658571D01*
%TO.C,C25*%
X118427142Y-32372857D02*
X118474761Y-32420476D01*
X118522380Y-32563333D01*
X118522380Y-32658571D01*
X118474761Y-32801428D01*
X118379523Y-32896666D01*
X118284285Y-32944285D01*
X118093809Y-32991904D01*
X117950952Y-32991904D01*
X117760476Y-32944285D01*
X117665238Y-32896666D01*
X117570000Y-32801428D01*
X117522380Y-32658571D01*
X117522380Y-32563333D01*
X117570000Y-32420476D01*
X117617619Y-32372857D01*
X117617619Y-31991904D02*
X117570000Y-31944285D01*
X117522380Y-31849047D01*
X117522380Y-31610952D01*
X117570000Y-31515714D01*
X117617619Y-31468095D01*
X117712857Y-31420476D01*
X117808095Y-31420476D01*
X117950952Y-31468095D01*
X118522380Y-32039523D01*
X118522380Y-31420476D01*
X117522380Y-30515714D02*
X117522380Y-30991904D01*
X117998571Y-31039523D01*
X117950952Y-30991904D01*
X117903333Y-30896666D01*
X117903333Y-30658571D01*
X117950952Y-30563333D01*
X117998571Y-30515714D01*
X118093809Y-30468095D01*
X118331904Y-30468095D01*
X118427142Y-30515714D01*
X118474761Y-30563333D01*
X118522380Y-30658571D01*
X118522380Y-30896666D01*
X118474761Y-30991904D01*
X118427142Y-31039523D01*
%TO.C,C24*%
X113347142Y-32372857D02*
X113394761Y-32420476D01*
X113442380Y-32563333D01*
X113442380Y-32658571D01*
X113394761Y-32801428D01*
X113299523Y-32896666D01*
X113204285Y-32944285D01*
X113013809Y-32991904D01*
X112870952Y-32991904D01*
X112680476Y-32944285D01*
X112585238Y-32896666D01*
X112490000Y-32801428D01*
X112442380Y-32658571D01*
X112442380Y-32563333D01*
X112490000Y-32420476D01*
X112537619Y-32372857D01*
X112537619Y-31991904D02*
X112490000Y-31944285D01*
X112442380Y-31849047D01*
X112442380Y-31610952D01*
X112490000Y-31515714D01*
X112537619Y-31468095D01*
X112632857Y-31420476D01*
X112728095Y-31420476D01*
X112870952Y-31468095D01*
X113442380Y-32039523D01*
X113442380Y-31420476D01*
X112775714Y-30563333D02*
X113442380Y-30563333D01*
X112394761Y-30801428D02*
X113109047Y-31039523D01*
X113109047Y-30420476D01*
%TO.C,C23*%
X108267142Y-32372857D02*
X108314761Y-32420476D01*
X108362380Y-32563333D01*
X108362380Y-32658571D01*
X108314761Y-32801428D01*
X108219523Y-32896666D01*
X108124285Y-32944285D01*
X107933809Y-32991904D01*
X107790952Y-32991904D01*
X107600476Y-32944285D01*
X107505238Y-32896666D01*
X107410000Y-32801428D01*
X107362380Y-32658571D01*
X107362380Y-32563333D01*
X107410000Y-32420476D01*
X107457619Y-32372857D01*
X107457619Y-31991904D02*
X107410000Y-31944285D01*
X107362380Y-31849047D01*
X107362380Y-31610952D01*
X107410000Y-31515714D01*
X107457619Y-31468095D01*
X107552857Y-31420476D01*
X107648095Y-31420476D01*
X107790952Y-31468095D01*
X108362380Y-32039523D01*
X108362380Y-31420476D01*
X107362380Y-31087142D02*
X107362380Y-30468095D01*
X107743333Y-30801428D01*
X107743333Y-30658571D01*
X107790952Y-30563333D01*
X107838571Y-30515714D01*
X107933809Y-30468095D01*
X108171904Y-30468095D01*
X108267142Y-30515714D01*
X108314761Y-30563333D01*
X108362380Y-30658571D01*
X108362380Y-30944285D01*
X108314761Y-31039523D01*
X108267142Y-31087142D01*
%TO.C,C21*%
X115887142Y-64122857D02*
X115934761Y-64170476D01*
X115982380Y-64313333D01*
X115982380Y-64408571D01*
X115934761Y-64551428D01*
X115839523Y-64646666D01*
X115744285Y-64694285D01*
X115553809Y-64741904D01*
X115410952Y-64741904D01*
X115220476Y-64694285D01*
X115125238Y-64646666D01*
X115030000Y-64551428D01*
X114982380Y-64408571D01*
X114982380Y-64313333D01*
X115030000Y-64170476D01*
X115077619Y-64122857D01*
X115077619Y-63741904D02*
X115030000Y-63694285D01*
X114982380Y-63599047D01*
X114982380Y-63360952D01*
X115030000Y-63265714D01*
X115077619Y-63218095D01*
X115172857Y-63170476D01*
X115268095Y-63170476D01*
X115410952Y-63218095D01*
X115982380Y-63789523D01*
X115982380Y-63170476D01*
X115982380Y-62218095D02*
X115982380Y-62789523D01*
X115982380Y-62503809D02*
X114982380Y-62503809D01*
X115125238Y-62599047D01*
X115220476Y-62694285D01*
X115268095Y-62789523D01*
%TO.C,C20*%
X90567142Y-32372857D02*
X90614761Y-32420476D01*
X90662380Y-32563333D01*
X90662380Y-32658571D01*
X90614761Y-32801428D01*
X90519523Y-32896666D01*
X90424285Y-32944285D01*
X90233809Y-32991904D01*
X90090952Y-32991904D01*
X89900476Y-32944285D01*
X89805238Y-32896666D01*
X89710000Y-32801428D01*
X89662380Y-32658571D01*
X89662380Y-32563333D01*
X89710000Y-32420476D01*
X89757619Y-32372857D01*
X89757619Y-31991904D02*
X89710000Y-31944285D01*
X89662380Y-31849047D01*
X89662380Y-31610952D01*
X89710000Y-31515714D01*
X89757619Y-31468095D01*
X89852857Y-31420476D01*
X89948095Y-31420476D01*
X90090952Y-31468095D01*
X90662380Y-32039523D01*
X90662380Y-31420476D01*
X89662380Y-30801428D02*
X89662380Y-30706190D01*
X89710000Y-30610952D01*
X89757619Y-30563333D01*
X89852857Y-30515714D01*
X90043333Y-30468095D01*
X90281428Y-30468095D01*
X90471904Y-30515714D01*
X90567142Y-30563333D01*
X90614761Y-30610952D01*
X90662380Y-30706190D01*
X90662380Y-30801428D01*
X90614761Y-30896666D01*
X90567142Y-30944285D01*
X90471904Y-30991904D01*
X90281428Y-31039523D01*
X90043333Y-31039523D01*
X89852857Y-30991904D01*
X89757619Y-30944285D01*
X89710000Y-30896666D01*
X89662380Y-30801428D01*
%TO.C,C17*%
X66647142Y-109617142D02*
X66599523Y-109664761D01*
X66456666Y-109712380D01*
X66361428Y-109712380D01*
X66218571Y-109664761D01*
X66123333Y-109569523D01*
X66075714Y-109474285D01*
X66028095Y-109283809D01*
X66028095Y-109140952D01*
X66075714Y-108950476D01*
X66123333Y-108855238D01*
X66218571Y-108760000D01*
X66361428Y-108712380D01*
X66456666Y-108712380D01*
X66599523Y-108760000D01*
X66647142Y-108807619D01*
X67599523Y-109712380D02*
X67028095Y-109712380D01*
X67313809Y-109712380D02*
X67313809Y-108712380D01*
X67218571Y-108855238D01*
X67123333Y-108950476D01*
X67028095Y-108998095D01*
X67932857Y-108712380D02*
X68599523Y-108712380D01*
X68170952Y-109712380D01*
%TO.C,C16*%
X75247142Y-97142857D02*
X75294761Y-97190476D01*
X75342380Y-97333333D01*
X75342380Y-97428571D01*
X75294761Y-97571428D01*
X75199523Y-97666666D01*
X75104285Y-97714285D01*
X74913809Y-97761904D01*
X74770952Y-97761904D01*
X74580476Y-97714285D01*
X74485238Y-97666666D01*
X74390000Y-97571428D01*
X74342380Y-97428571D01*
X74342380Y-97333333D01*
X74390000Y-97190476D01*
X74437619Y-97142857D01*
X75342380Y-96190476D02*
X75342380Y-96761904D01*
X75342380Y-96476190D02*
X74342380Y-96476190D01*
X74485238Y-96571428D01*
X74580476Y-96666666D01*
X74628095Y-96761904D01*
X74342380Y-95333333D02*
X74342380Y-95523809D01*
X74390000Y-95619047D01*
X74437619Y-95666666D01*
X74580476Y-95761904D01*
X74770952Y-95809523D01*
X75151904Y-95809523D01*
X75247142Y-95761904D01*
X75294761Y-95714285D01*
X75342380Y-95619047D01*
X75342380Y-95428571D01*
X75294761Y-95333333D01*
X75247142Y-95285714D01*
X75151904Y-95238095D01*
X74913809Y-95238095D01*
X74818571Y-95285714D01*
X74770952Y-95333333D01*
X74723333Y-95428571D01*
X74723333Y-95619047D01*
X74770952Y-95714285D01*
X74818571Y-95761904D01*
X74913809Y-95809523D01*
%TO.C,C14*%
X115887142Y-127662857D02*
X115934761Y-127710476D01*
X115982380Y-127853333D01*
X115982380Y-127948571D01*
X115934761Y-128091428D01*
X115839523Y-128186666D01*
X115744285Y-128234285D01*
X115553809Y-128281904D01*
X115410952Y-128281904D01*
X115220476Y-128234285D01*
X115125238Y-128186666D01*
X115030000Y-128091428D01*
X114982380Y-127948571D01*
X114982380Y-127853333D01*
X115030000Y-127710476D01*
X115077619Y-127662857D01*
X115982380Y-126710476D02*
X115982380Y-127281904D01*
X115982380Y-126996190D02*
X114982380Y-126996190D01*
X115125238Y-127091428D01*
X115220476Y-127186666D01*
X115268095Y-127281904D01*
X115315714Y-125853333D02*
X115982380Y-125853333D01*
X114934761Y-126091428D02*
X115649047Y-126329523D01*
X115649047Y-125710476D01*
%TO.C,C13*%
X100647142Y-127622857D02*
X100694761Y-127670476D01*
X100742380Y-127813333D01*
X100742380Y-127908571D01*
X100694761Y-128051428D01*
X100599523Y-128146666D01*
X100504285Y-128194285D01*
X100313809Y-128241904D01*
X100170952Y-128241904D01*
X99980476Y-128194285D01*
X99885238Y-128146666D01*
X99790000Y-128051428D01*
X99742380Y-127908571D01*
X99742380Y-127813333D01*
X99790000Y-127670476D01*
X99837619Y-127622857D01*
X100742380Y-126670476D02*
X100742380Y-127241904D01*
X100742380Y-126956190D02*
X99742380Y-126956190D01*
X99885238Y-127051428D01*
X99980476Y-127146666D01*
X100028095Y-127241904D01*
X99742380Y-126337142D02*
X99742380Y-125718095D01*
X100123333Y-126051428D01*
X100123333Y-125908571D01*
X100170952Y-125813333D01*
X100218571Y-125765714D01*
X100313809Y-125718095D01*
X100551904Y-125718095D01*
X100647142Y-125765714D01*
X100694761Y-125813333D01*
X100742380Y-125908571D01*
X100742380Y-126194285D01*
X100694761Y-126289523D01*
X100647142Y-126337142D01*
%TO.C,C12*%
X110807142Y-127662857D02*
X110854761Y-127710476D01*
X110902380Y-127853333D01*
X110902380Y-127948571D01*
X110854761Y-128091428D01*
X110759523Y-128186666D01*
X110664285Y-128234285D01*
X110473809Y-128281904D01*
X110330952Y-128281904D01*
X110140476Y-128234285D01*
X110045238Y-128186666D01*
X109950000Y-128091428D01*
X109902380Y-127948571D01*
X109902380Y-127853333D01*
X109950000Y-127710476D01*
X109997619Y-127662857D01*
X110902380Y-126710476D02*
X110902380Y-127281904D01*
X110902380Y-126996190D02*
X109902380Y-126996190D01*
X110045238Y-127091428D01*
X110140476Y-127186666D01*
X110188095Y-127281904D01*
X109997619Y-126329523D02*
X109950000Y-126281904D01*
X109902380Y-126186666D01*
X109902380Y-125948571D01*
X109950000Y-125853333D01*
X109997619Y-125805714D01*
X110092857Y-125758095D01*
X110188095Y-125758095D01*
X110330952Y-125805714D01*
X110902380Y-126377142D01*
X110902380Y-125758095D01*
%TO.C,C10*%
X113347142Y-92062857D02*
X113394761Y-92110476D01*
X113442380Y-92253333D01*
X113442380Y-92348571D01*
X113394761Y-92491428D01*
X113299523Y-92586666D01*
X113204285Y-92634285D01*
X113013809Y-92681904D01*
X112870952Y-92681904D01*
X112680476Y-92634285D01*
X112585238Y-92586666D01*
X112490000Y-92491428D01*
X112442380Y-92348571D01*
X112442380Y-92253333D01*
X112490000Y-92110476D01*
X112537619Y-92062857D01*
X113442380Y-91110476D02*
X113442380Y-91681904D01*
X113442380Y-91396190D02*
X112442380Y-91396190D01*
X112585238Y-91491428D01*
X112680476Y-91586666D01*
X112728095Y-91681904D01*
X112442380Y-90491428D02*
X112442380Y-90396190D01*
X112490000Y-90300952D01*
X112537619Y-90253333D01*
X112632857Y-90205714D01*
X112823333Y-90158095D01*
X113061428Y-90158095D01*
X113251904Y-90205714D01*
X113347142Y-90253333D01*
X113394761Y-90300952D01*
X113442380Y-90396190D01*
X113442380Y-90491428D01*
X113394761Y-90586666D01*
X113347142Y-90634285D01*
X113251904Y-90681904D01*
X113061428Y-90729523D01*
X112823333Y-90729523D01*
X112632857Y-90681904D01*
X112537619Y-90634285D01*
X112490000Y-90586666D01*
X112442380Y-90491428D01*
%TO.C,C7*%
X108267142Y-91586666D02*
X108314761Y-91634285D01*
X108362380Y-91777142D01*
X108362380Y-91872380D01*
X108314761Y-92015238D01*
X108219523Y-92110476D01*
X108124285Y-92158095D01*
X107933809Y-92205714D01*
X107790952Y-92205714D01*
X107600476Y-92158095D01*
X107505238Y-92110476D01*
X107410000Y-92015238D01*
X107362380Y-91872380D01*
X107362380Y-91777142D01*
X107410000Y-91634285D01*
X107457619Y-91586666D01*
X107362380Y-91253333D02*
X107362380Y-90586666D01*
X108362380Y-91015238D01*
%TO.C,C6*%
X233393333Y-44367142D02*
X233345714Y-44414761D01*
X233202857Y-44462380D01*
X233107619Y-44462380D01*
X232964761Y-44414761D01*
X232869523Y-44319523D01*
X232821904Y-44224285D01*
X232774285Y-44033809D01*
X232774285Y-43890952D01*
X232821904Y-43700476D01*
X232869523Y-43605238D01*
X232964761Y-43510000D01*
X233107619Y-43462380D01*
X233202857Y-43462380D01*
X233345714Y-43510000D01*
X233393333Y-43557619D01*
X234250476Y-43462380D02*
X234060000Y-43462380D01*
X233964761Y-43510000D01*
X233917142Y-43557619D01*
X233821904Y-43700476D01*
X233774285Y-43890952D01*
X233774285Y-44271904D01*
X233821904Y-44367142D01*
X233869523Y-44414761D01*
X233964761Y-44462380D01*
X234155238Y-44462380D01*
X234250476Y-44414761D01*
X234298095Y-44367142D01*
X234345714Y-44271904D01*
X234345714Y-44033809D01*
X234298095Y-43938571D01*
X234250476Y-43890952D01*
X234155238Y-43843333D01*
X233964761Y-43843333D01*
X233869523Y-43890952D01*
X233821904Y-43938571D01*
X233774285Y-44033809D01*
%TO.C,C5*%
X118427142Y-91626666D02*
X118474761Y-91674285D01*
X118522380Y-91817142D01*
X118522380Y-91912380D01*
X118474761Y-92055238D01*
X118379523Y-92150476D01*
X118284285Y-92198095D01*
X118093809Y-92245714D01*
X117950952Y-92245714D01*
X117760476Y-92198095D01*
X117665238Y-92150476D01*
X117570000Y-92055238D01*
X117522380Y-91912380D01*
X117522380Y-91817142D01*
X117570000Y-91674285D01*
X117617619Y-91626666D01*
X117522380Y-90721904D02*
X117522380Y-91198095D01*
X117998571Y-91245714D01*
X117950952Y-91198095D01*
X117903333Y-91102857D01*
X117903333Y-90864761D01*
X117950952Y-90769523D01*
X117998571Y-90721904D01*
X118093809Y-90674285D01*
X118331904Y-90674285D01*
X118427142Y-90721904D01*
X118474761Y-90769523D01*
X118522380Y-90864761D01*
X118522380Y-91102857D01*
X118474761Y-91198095D01*
X118427142Y-91245714D01*
%TO.C,C4*%
X103187142Y-91586666D02*
X103234761Y-91634285D01*
X103282380Y-91777142D01*
X103282380Y-91872380D01*
X103234761Y-92015238D01*
X103139523Y-92110476D01*
X103044285Y-92158095D01*
X102853809Y-92205714D01*
X102710952Y-92205714D01*
X102520476Y-92158095D01*
X102425238Y-92110476D01*
X102330000Y-92015238D01*
X102282380Y-91872380D01*
X102282380Y-91777142D01*
X102330000Y-91634285D01*
X102377619Y-91586666D01*
X102615714Y-90729523D02*
X103282380Y-90729523D01*
X102234761Y-90967619D02*
X102949047Y-91205714D01*
X102949047Y-90586666D01*
%TO.C,C2*%
X105727142Y-127146666D02*
X105774761Y-127194285D01*
X105822380Y-127337142D01*
X105822380Y-127432380D01*
X105774761Y-127575238D01*
X105679523Y-127670476D01*
X105584285Y-127718095D01*
X105393809Y-127765714D01*
X105250952Y-127765714D01*
X105060476Y-127718095D01*
X104965238Y-127670476D01*
X104870000Y-127575238D01*
X104822380Y-127432380D01*
X104822380Y-127337142D01*
X104870000Y-127194285D01*
X104917619Y-127146666D01*
X104917619Y-126765714D02*
X104870000Y-126718095D01*
X104822380Y-126622857D01*
X104822380Y-126384761D01*
X104870000Y-126289523D01*
X104917619Y-126241904D01*
X105012857Y-126194285D01*
X105108095Y-126194285D01*
X105250952Y-126241904D01*
X105822380Y-126813333D01*
X105822380Y-126194285D01*
%TO.C,C1*%
X90567142Y-95436666D02*
X90614761Y-95484285D01*
X90662380Y-95627142D01*
X90662380Y-95722380D01*
X90614761Y-95865238D01*
X90519523Y-95960476D01*
X90424285Y-96008095D01*
X90233809Y-96055714D01*
X90090952Y-96055714D01*
X89900476Y-96008095D01*
X89805238Y-95960476D01*
X89710000Y-95865238D01*
X89662380Y-95722380D01*
X89662380Y-95627142D01*
X89710000Y-95484285D01*
X89757619Y-95436666D01*
X90662380Y-94484285D02*
X90662380Y-95055714D01*
X90662380Y-94770000D02*
X89662380Y-94770000D01*
X89805238Y-94865238D01*
X89900476Y-94960476D01*
X89948095Y-95055714D01*
%TO.C,U7*%
X105918095Y-52792380D02*
X105918095Y-53601904D01*
X105965714Y-53697142D01*
X106013333Y-53744761D01*
X106108571Y-53792380D01*
X106299047Y-53792380D01*
X106394285Y-53744761D01*
X106441904Y-53697142D01*
X106489523Y-53601904D01*
X106489523Y-52792380D01*
X106870476Y-52792380D02*
X107537142Y-52792380D01*
X107108571Y-53792380D01*
%TO.C,U5*%
X105918095Y-41362380D02*
X105918095Y-42171904D01*
X105965714Y-42267142D01*
X106013333Y-42314761D01*
X106108571Y-42362380D01*
X106299047Y-42362380D01*
X106394285Y-42314761D01*
X106441904Y-42267142D01*
X106489523Y-42171904D01*
X106489523Y-41362380D01*
X107441904Y-41362380D02*
X106965714Y-41362380D01*
X106918095Y-41838571D01*
X106965714Y-41790952D01*
X107060952Y-41743333D01*
X107299047Y-41743333D01*
X107394285Y-41790952D01*
X107441904Y-41838571D01*
X107489523Y-41933809D01*
X107489523Y-42171904D01*
X107441904Y-42267142D01*
X107394285Y-42314761D01*
X107299047Y-42362380D01*
X107060952Y-42362380D01*
X106965714Y-42314761D01*
X106918095Y-42267142D01*
%TO.C,U2*%
X88138095Y-104862380D02*
X88138095Y-105671904D01*
X88185714Y-105767142D01*
X88233333Y-105814761D01*
X88328571Y-105862380D01*
X88519047Y-105862380D01*
X88614285Y-105814761D01*
X88661904Y-105767142D01*
X88709523Y-105671904D01*
X88709523Y-104862380D01*
X89138095Y-104957619D02*
X89185714Y-104910000D01*
X89280952Y-104862380D01*
X89519047Y-104862380D01*
X89614285Y-104910000D01*
X89661904Y-104957619D01*
X89709523Y-105052857D01*
X89709523Y-105148095D01*
X89661904Y-105290952D01*
X89090476Y-105862380D01*
X89709523Y-105862380D01*
%TO.C,RTUNE1*%
X225392380Y-78247619D02*
X224916190Y-78580952D01*
X225392380Y-78819047D02*
X224392380Y-78819047D01*
X224392380Y-78438095D01*
X224440000Y-78342857D01*
X224487619Y-78295238D01*
X224582857Y-78247619D01*
X224725714Y-78247619D01*
X224820952Y-78295238D01*
X224868571Y-78342857D01*
X224916190Y-78438095D01*
X224916190Y-78819047D01*
X224392380Y-77961904D02*
X224392380Y-77390476D01*
X225392380Y-77676190D02*
X224392380Y-77676190D01*
X224392380Y-77057142D02*
X225201904Y-77057142D01*
X225297142Y-77009523D01*
X225344761Y-76961904D01*
X225392380Y-76866666D01*
X225392380Y-76676190D01*
X225344761Y-76580952D01*
X225297142Y-76533333D01*
X225201904Y-76485714D01*
X224392380Y-76485714D01*
X225392380Y-76009523D02*
X224392380Y-76009523D01*
X225392380Y-75438095D01*
X224392380Y-75438095D01*
X224868571Y-74961904D02*
X224868571Y-74628571D01*
X225392380Y-74485714D02*
X225392380Y-74961904D01*
X224392380Y-74961904D01*
X224392380Y-74485714D01*
X225392380Y-73533333D02*
X225392380Y-74104761D01*
X225392380Y-73819047D02*
X224392380Y-73819047D01*
X224535238Y-73914285D01*
X224630476Y-74009523D01*
X224678095Y-74104761D01*
%TD*%
M02*
