%TF.GenerationSoftware,KiCad,Pcbnew,5.1.5+dfsg1-2+b1*%
%TF.CreationDate,2020-09-24T09:47:26-05:00*%
%TF.ProjectId,HV-pulse-generator,48562d70-756c-4736-952d-67656e657261,2.0.0*%
%TF.SameCoordinates,Original*%
%TF.FileFunction,Legend,Bot*%
%TF.FilePolarity,Positive*%
%FSLAX46Y46*%
G04 Gerber Fmt 4.6, Leading zero omitted, Abs format (unit mm)*
G04 Created by KiCad (PCBNEW 5.1.5+dfsg1-2+b1) date 2020-09-24 09:47:26*
%MOMM*%
%LPD*%
G04 APERTURE LIST*
%ADD10C,0.150000*%
%ADD11C,0.762000*%
%TA.AperFunction,Profile*%
%ADD12C,0.150000*%
%TD*%
G04 APERTURE END LIST*
D10*
X222521428Y-26597619D02*
X222521428Y-27597619D01*
X222521428Y-27121428D02*
X223092857Y-27121428D01*
X223092857Y-26597619D02*
X223092857Y-27597619D01*
X223569047Y-26597619D02*
X223569047Y-27597619D01*
X224569047Y-27550000D02*
X224473809Y-27597619D01*
X224330952Y-27597619D01*
X224188095Y-27550000D01*
X224092857Y-27454761D01*
X224045238Y-27359523D01*
X223997619Y-27169047D01*
X223997619Y-27026190D01*
X224045238Y-26835714D01*
X224092857Y-26740476D01*
X224188095Y-26645238D01*
X224330952Y-26597619D01*
X224426190Y-26597619D01*
X224569047Y-26645238D01*
X224616666Y-26692857D01*
X224616666Y-27026190D01*
X224426190Y-27026190D01*
X225045238Y-26597619D02*
X225045238Y-27597619D01*
X225045238Y-27121428D02*
X225616666Y-27121428D01*
X225616666Y-26597619D02*
X225616666Y-27597619D01*
X226711904Y-27597619D02*
X227045238Y-26597619D01*
X227378571Y-27597619D01*
X227902380Y-27597619D02*
X228092857Y-27597619D01*
X228188095Y-27550000D01*
X228283333Y-27454761D01*
X228330952Y-27264285D01*
X228330952Y-26930952D01*
X228283333Y-26740476D01*
X228188095Y-26645238D01*
X228092857Y-26597619D01*
X227902380Y-26597619D01*
X227807142Y-26645238D01*
X227711904Y-26740476D01*
X227664285Y-26930952D01*
X227664285Y-27264285D01*
X227711904Y-27454761D01*
X227807142Y-27550000D01*
X227902380Y-27597619D01*
X229235714Y-26597619D02*
X228759523Y-26597619D01*
X228759523Y-27597619D01*
X229426190Y-27597619D02*
X229997619Y-27597619D01*
X229711904Y-26597619D02*
X229711904Y-27597619D01*
X230283333Y-26883333D02*
X230759523Y-26883333D01*
X230188095Y-26597619D02*
X230521428Y-27597619D01*
X230854761Y-26597619D01*
X231711904Y-27550000D02*
X231616666Y-27597619D01*
X231473809Y-27597619D01*
X231330952Y-27550000D01*
X231235714Y-27454761D01*
X231188095Y-27359523D01*
X231140476Y-27169047D01*
X231140476Y-27026190D01*
X231188095Y-26835714D01*
X231235714Y-26740476D01*
X231330952Y-26645238D01*
X231473809Y-26597619D01*
X231569047Y-26597619D01*
X231711904Y-26645238D01*
X231759523Y-26692857D01*
X231759523Y-27026190D01*
X231569047Y-27026190D01*
X232188095Y-27121428D02*
X232521428Y-27121428D01*
X232664285Y-26597619D02*
X232188095Y-26597619D01*
X232188095Y-27597619D01*
X232664285Y-27597619D01*
X233854761Y-26597619D02*
X233854761Y-27597619D01*
X234235714Y-27597619D01*
X234330952Y-27550000D01*
X234378571Y-27502380D01*
X234426190Y-27407142D01*
X234426190Y-27264285D01*
X234378571Y-27169047D01*
X234330952Y-27121428D01*
X234235714Y-27073809D01*
X233854761Y-27073809D01*
X234854761Y-27597619D02*
X234854761Y-26788095D01*
X234902380Y-26692857D01*
X234950000Y-26645238D01*
X235045238Y-26597619D01*
X235235714Y-26597619D01*
X235330952Y-26645238D01*
X235378571Y-26692857D01*
X235426190Y-26788095D01*
X235426190Y-27597619D01*
X236378571Y-26597619D02*
X235902380Y-26597619D01*
X235902380Y-27597619D01*
X236664285Y-26645238D02*
X236807142Y-26597619D01*
X237045238Y-26597619D01*
X237140476Y-26645238D01*
X237188095Y-26692857D01*
X237235714Y-26788095D01*
X237235714Y-26883333D01*
X237188095Y-26978571D01*
X237140476Y-27026190D01*
X237045238Y-27073809D01*
X236854761Y-27121428D01*
X236759523Y-27169047D01*
X236711904Y-27216666D01*
X236664285Y-27311904D01*
X236664285Y-27407142D01*
X236711904Y-27502380D01*
X236759523Y-27550000D01*
X236854761Y-27597619D01*
X237092857Y-27597619D01*
X237235714Y-27550000D01*
X237664285Y-27121428D02*
X237997619Y-27121428D01*
X238140476Y-26597619D02*
X237664285Y-26597619D01*
X237664285Y-27597619D01*
X238140476Y-27597619D01*
X239854761Y-27550000D02*
X239759523Y-27597619D01*
X239616666Y-27597619D01*
X239473809Y-27550000D01*
X239378571Y-27454761D01*
X239330952Y-27359523D01*
X239283333Y-27169047D01*
X239283333Y-27026190D01*
X239330952Y-26835714D01*
X239378571Y-26740476D01*
X239473809Y-26645238D01*
X239616666Y-26597619D01*
X239711904Y-26597619D01*
X239854761Y-26645238D01*
X239902380Y-26692857D01*
X239902380Y-27026190D01*
X239711904Y-27026190D01*
X240330952Y-27121428D02*
X240664285Y-27121428D01*
X240807142Y-26597619D02*
X240330952Y-26597619D01*
X240330952Y-27597619D01*
X240807142Y-27597619D01*
X241235714Y-26597619D02*
X241235714Y-27597619D01*
X241807142Y-26597619D01*
X241807142Y-27597619D01*
X242283333Y-27121428D02*
X242616666Y-27121428D01*
X242759523Y-26597619D02*
X242283333Y-26597619D01*
X242283333Y-27597619D01*
X242759523Y-27597619D01*
X243759523Y-26597619D02*
X243426190Y-27073809D01*
X243188095Y-26597619D02*
X243188095Y-27597619D01*
X243569047Y-27597619D01*
X243664285Y-27550000D01*
X243711904Y-27502380D01*
X243759523Y-27407142D01*
X243759523Y-27264285D01*
X243711904Y-27169047D01*
X243664285Y-27121428D01*
X243569047Y-27073809D01*
X243188095Y-27073809D01*
X244140476Y-26883333D02*
X244616666Y-26883333D01*
X244045238Y-26597619D02*
X244378571Y-27597619D01*
X244711904Y-26597619D01*
X244902380Y-27597619D02*
X245473809Y-27597619D01*
X245188095Y-26597619D02*
X245188095Y-27597619D01*
X245997619Y-27597619D02*
X246188095Y-27597619D01*
X246283333Y-27550000D01*
X246378571Y-27454761D01*
X246426190Y-27264285D01*
X246426190Y-26930952D01*
X246378571Y-26740476D01*
X246283333Y-26645238D01*
X246188095Y-26597619D01*
X245997619Y-26597619D01*
X245902380Y-26645238D01*
X245807142Y-26740476D01*
X245759523Y-26930952D01*
X245759523Y-27264285D01*
X245807142Y-27454761D01*
X245902380Y-27550000D01*
X245997619Y-27597619D01*
X247426190Y-26597619D02*
X247092857Y-27073809D01*
X246854761Y-26597619D02*
X246854761Y-27597619D01*
X247235714Y-27597619D01*
X247330952Y-27550000D01*
X247378571Y-27502380D01*
X247426190Y-27407142D01*
X247426190Y-27264285D01*
X247378571Y-27169047D01*
X247330952Y-27121428D01*
X247235714Y-27073809D01*
X246854761Y-27073809D01*
X229616666Y-25947619D02*
X229950000Y-24947619D01*
X230283333Y-25947619D01*
X230616666Y-25471428D02*
X230950000Y-25471428D01*
X231092857Y-24947619D02*
X230616666Y-24947619D01*
X230616666Y-25947619D01*
X231092857Y-25947619D01*
X232092857Y-24947619D02*
X231759523Y-25423809D01*
X231521428Y-24947619D02*
X231521428Y-25947619D01*
X231902380Y-25947619D01*
X231997619Y-25900000D01*
X232045238Y-25852380D01*
X232092857Y-25757142D01*
X232092857Y-25614285D01*
X232045238Y-25519047D01*
X231997619Y-25471428D01*
X231902380Y-25423809D01*
X231521428Y-25423809D01*
X232473809Y-24995238D02*
X232616666Y-24947619D01*
X232854761Y-24947619D01*
X232950000Y-24995238D01*
X232997619Y-25042857D01*
X233045238Y-25138095D01*
X233045238Y-25233333D01*
X232997619Y-25328571D01*
X232950000Y-25376190D01*
X232854761Y-25423809D01*
X232664285Y-25471428D01*
X232569047Y-25519047D01*
X232521428Y-25566666D01*
X232473809Y-25661904D01*
X232473809Y-25757142D01*
X232521428Y-25852380D01*
X232569047Y-25900000D01*
X232664285Y-25947619D01*
X232902380Y-25947619D01*
X233045238Y-25900000D01*
X233473809Y-24947619D02*
X233473809Y-25947619D01*
X234140476Y-25947619D02*
X234330952Y-25947619D01*
X234426190Y-25900000D01*
X234521428Y-25804761D01*
X234569047Y-25614285D01*
X234569047Y-25280952D01*
X234521428Y-25090476D01*
X234426190Y-24995238D01*
X234330952Y-24947619D01*
X234140476Y-24947619D01*
X234045238Y-24995238D01*
X233950000Y-25090476D01*
X233902380Y-25280952D01*
X233902380Y-25614285D01*
X233950000Y-25804761D01*
X234045238Y-25900000D01*
X234140476Y-25947619D01*
X234997619Y-24947619D02*
X234997619Y-25947619D01*
X235569047Y-24947619D01*
X235569047Y-25947619D01*
X236759523Y-25852380D02*
X236807142Y-25900000D01*
X236902380Y-25947619D01*
X237140476Y-25947619D01*
X237235714Y-25900000D01*
X237283333Y-25852380D01*
X237330952Y-25757142D01*
X237330952Y-25661904D01*
X237283333Y-25519047D01*
X236711904Y-24947619D01*
X237330952Y-24947619D01*
X237759523Y-25042857D02*
X237807142Y-24995238D01*
X237759523Y-24947619D01*
X237711904Y-24995238D01*
X237759523Y-25042857D01*
X237759523Y-24947619D01*
X238426190Y-25947619D02*
X238521428Y-25947619D01*
X238616666Y-25900000D01*
X238664285Y-25852380D01*
X238711904Y-25757142D01*
X238759523Y-25566666D01*
X238759523Y-25328571D01*
X238711904Y-25138095D01*
X238664285Y-25042857D01*
X238616666Y-24995238D01*
X238521428Y-24947619D01*
X238426190Y-24947619D01*
X238330952Y-24995238D01*
X238283333Y-25042857D01*
X238235714Y-25138095D01*
X238188095Y-25328571D01*
X238188095Y-25566666D01*
X238235714Y-25757142D01*
X238283333Y-25852380D01*
X238330952Y-25900000D01*
X238426190Y-25947619D01*
X239188095Y-25042857D02*
X239235714Y-24995238D01*
X239188095Y-24947619D01*
X239140476Y-24995238D01*
X239188095Y-25042857D01*
X239188095Y-24947619D01*
X239854761Y-25947619D02*
X239950000Y-25947619D01*
X240045238Y-25900000D01*
X240092857Y-25852380D01*
X240140476Y-25757142D01*
X240188095Y-25566666D01*
X240188095Y-25328571D01*
X240140476Y-25138095D01*
X240092857Y-25042857D01*
X240045238Y-24995238D01*
X239950000Y-24947619D01*
X239854761Y-24947619D01*
X239759523Y-24995238D01*
X239711904Y-25042857D01*
X239664285Y-25138095D01*
X239616666Y-25328571D01*
X239616666Y-25566666D01*
X239664285Y-25757142D01*
X239711904Y-25852380D01*
X239759523Y-25900000D01*
X239854761Y-25947619D01*
X228569047Y-23345238D02*
X228711904Y-23297619D01*
X228950000Y-23297619D01*
X229045238Y-23345238D01*
X229092857Y-23392857D01*
X229140476Y-23488095D01*
X229140476Y-23583333D01*
X229092857Y-23678571D01*
X229045238Y-23726190D01*
X228950000Y-23773809D01*
X228759523Y-23821428D01*
X228664285Y-23869047D01*
X228616666Y-23916666D01*
X228569047Y-24011904D01*
X228569047Y-24107142D01*
X228616666Y-24202380D01*
X228664285Y-24250000D01*
X228759523Y-24297619D01*
X228997619Y-24297619D01*
X229140476Y-24250000D01*
X229569047Y-23821428D02*
X229902380Y-23821428D01*
X230045238Y-23297619D02*
X229569047Y-23297619D01*
X229569047Y-24297619D01*
X230045238Y-24297619D01*
X230473809Y-23297619D02*
X230473809Y-24297619D01*
X230854761Y-24297619D01*
X230950000Y-24250000D01*
X230997619Y-24202380D01*
X231045238Y-24107142D01*
X231045238Y-23964285D01*
X230997619Y-23869047D01*
X230950000Y-23821428D01*
X230854761Y-23773809D01*
X230473809Y-23773809D01*
X231330952Y-24297619D02*
X231902380Y-24297619D01*
X231616666Y-23297619D02*
X231616666Y-24297619D01*
X232235714Y-23821428D02*
X232569047Y-23821428D01*
X232711904Y-23297619D02*
X232235714Y-23297619D01*
X232235714Y-24297619D01*
X232711904Y-24297619D01*
X233140476Y-23297619D02*
X233140476Y-24297619D01*
X233473809Y-23583333D01*
X233807142Y-24297619D01*
X233807142Y-23297619D01*
X234616666Y-23821428D02*
X234759523Y-23773809D01*
X234807142Y-23726190D01*
X234854761Y-23630952D01*
X234854761Y-23488095D01*
X234807142Y-23392857D01*
X234759523Y-23345238D01*
X234664285Y-23297619D01*
X234283333Y-23297619D01*
X234283333Y-24297619D01*
X234616666Y-24297619D01*
X234711904Y-24250000D01*
X234759523Y-24202380D01*
X234807142Y-24107142D01*
X234807142Y-24011904D01*
X234759523Y-23916666D01*
X234711904Y-23869047D01*
X234616666Y-23821428D01*
X234283333Y-23821428D01*
X235283333Y-23821428D02*
X235616666Y-23821428D01*
X235759523Y-23297619D02*
X235283333Y-23297619D01*
X235283333Y-24297619D01*
X235759523Y-24297619D01*
X236759523Y-23297619D02*
X236426190Y-23773809D01*
X236188095Y-23297619D02*
X236188095Y-24297619D01*
X236569047Y-24297619D01*
X236664285Y-24250000D01*
X236711904Y-24202380D01*
X236759523Y-24107142D01*
X236759523Y-23964285D01*
X236711904Y-23869047D01*
X236664285Y-23821428D01*
X236569047Y-23773809D01*
X236188095Y-23773809D01*
X237902380Y-24202380D02*
X237950000Y-24250000D01*
X238045238Y-24297619D01*
X238283333Y-24297619D01*
X238378571Y-24250000D01*
X238426190Y-24202380D01*
X238473809Y-24107142D01*
X238473809Y-24011904D01*
X238426190Y-23869047D01*
X237854761Y-23297619D01*
X238473809Y-23297619D01*
X239092857Y-24297619D02*
X239188095Y-24297619D01*
X239283333Y-24250000D01*
X239330952Y-24202380D01*
X239378571Y-24107142D01*
X239426190Y-23916666D01*
X239426190Y-23678571D01*
X239378571Y-23488095D01*
X239330952Y-23392857D01*
X239283333Y-23345238D01*
X239188095Y-23297619D01*
X239092857Y-23297619D01*
X238997619Y-23345238D01*
X238950000Y-23392857D01*
X238902380Y-23488095D01*
X238854761Y-23678571D01*
X238854761Y-23916666D01*
X238902380Y-24107142D01*
X238950000Y-24202380D01*
X238997619Y-24250000D01*
X239092857Y-24297619D01*
X239807142Y-24202380D02*
X239854761Y-24250000D01*
X239950000Y-24297619D01*
X240188095Y-24297619D01*
X240283333Y-24250000D01*
X240330952Y-24202380D01*
X240378571Y-24107142D01*
X240378571Y-24011904D01*
X240330952Y-23869047D01*
X239759523Y-23297619D01*
X240378571Y-23297619D01*
X240997619Y-24297619D02*
X241092857Y-24297619D01*
X241188095Y-24250000D01*
X241235714Y-24202380D01*
X241283333Y-24107142D01*
X241330952Y-23916666D01*
X241330952Y-23678571D01*
X241283333Y-23488095D01*
X241235714Y-23392857D01*
X241188095Y-23345238D01*
X241092857Y-23297619D01*
X240997619Y-23297619D01*
X240902380Y-23345238D01*
X240854761Y-23392857D01*
X240807142Y-23488095D01*
X240759523Y-23678571D01*
X240759523Y-23916666D01*
X240807142Y-24107142D01*
X240854761Y-24202380D01*
X240902380Y-24250000D01*
X240997619Y-24297619D01*
D11*
X190500000Y-76200000D02*
X30480000Y-76200000D01*
X190500000Y-57150000D02*
X190500000Y-76200000D01*
X190500000Y-76200000D02*
X190500000Y-95250000D01*
X190500000Y-57150000D02*
X256540000Y-57150000D01*
X190500000Y-95250000D02*
X256540000Y-95250000D01*
D12*
X254000000Y-20320000D02*
G75*
G02X259080000Y-25400000I0J-5080000D01*
G01*
X20320000Y-25400000D02*
G75*
G02X25400000Y-20320000I5080000J0D01*
G01*
X25400000Y-132080000D02*
G75*
G02X20320000Y-127000000I0J5080000D01*
G01*
X259080000Y-127000000D02*
G75*
G02X254000000Y-132080000I-5080000J0D01*
G01*
X259080000Y-25400000D02*
X259080000Y-127000000D01*
X254000000Y-20320000D02*
X25400000Y-20320000D01*
X20320000Y-127000000D02*
X20320000Y-25400000D01*
X254000000Y-132080000D02*
X25400000Y-132080000D01*
M02*
